<svg xmlns="http://www.w3.org/2000/svg" width="1271.59" height="294.281" viewBox="0 0 1271.59 294.281">
  <g id="Capa_2" data-name="Capa 2" transform="translate(-147.141 -147.141)">
    <g id="Capa_1" data-name="Capa 1">
      <path id="Path_43840" data-name="Path 43840" d="M271.188,173.094V75H173.094v98.094H75v98.094h98.094v98.094h98.094V271.188h98.094V173.094Z" transform="translate(72.141 72.141)" fill="#f5333f"/>
      <path id="Path_43841" data-name="Path 43841" d="M307.909,233.561a62.779,62.779,0,0,1-24.543-23.248,67.9,67.9,0,0,1,0-67.234,62.446,62.446,0,0,1,24.523-23.248,72.864,72.864,0,0,1,35.059-8.4,73.668,73.668,0,0,1,29.664,5.768,59.268,59.268,0,0,1,22.248,16.6l-18.736,17.3A40.336,40.336,0,0,0,344.4,136.311a42.2,42.2,0,0,0-20.914,5.14,36.53,36.53,0,0,0-14.341,14.341,45.123,45.123,0,0,0,0,41.808,36.531,36.531,0,0,0,14.341,14.341,42.2,42.2,0,0,0,20.914,5.14,40.14,40.14,0,0,0,31.724-14.969l18.736,17.3a58.129,58.129,0,0,1-22.326,16.735,74.2,74.2,0,0,1-29.742,5.886,72.412,72.412,0,0,1-34.882-8.475Z" transform="translate(263.997 107.178)" fill="#fff"/>
      <path id="Path_43842" data-name="Path 43842" d="M385.3,130.294a50.733,50.733,0,0,1,19.736-3.61v25.975c-3.119-.255-5.219-.373-6.3-.373q-12.1,0-18.932,6.768t-6.847,20.266v45.79H344.85V128.136h26.858v12.791a31.214,31.214,0,0,1,13.6-10.633Z" transform="translate(331.703 121.846)" fill="#fff"/>
      <path id="Path_43843" data-name="Path 43843" d="M482.421,127.42V224.4H455.739V212.919a37.276,37.276,0,0,1-13.341,9.652,42.042,42.042,0,0,1-16.774,3.335q-19.109,0-30.272-11.006T384.17,182.274V127.42H412.3v50.656q0,23.425,19.619,23.425a21.09,21.09,0,0,0,16.225-6.572q6.121-6.592,6.121-19.619V127.42Z" transform="translate(369.524 122.562)" fill="#fff"/>
      <path id="Path_43844" data-name="Path 43844" d="M530.689,202.766v21.581H444.17V207.416l49.4-58.405H445.426V127.43H529.08v16.951l-49.4,58.405Z" transform="translate(427.236 122.572)" fill="#fff"/>
      <path id="Path_43845" data-name="Path 43845" d="M604.868,238.718,580.541,203.58H553.682v35.137H524.47V112.549h54.619a70.334,70.334,0,0,1,29.114,5.572,43.338,43.338,0,0,1,19.03,15.872,43.81,43.81,0,0,1,6.67,24.327,41.2,41.2,0,0,1-25.995,39.846l28.29,40.552Zm-7.377-96.7q-6.866-5.689-20.011-5.689h-23.8v43.985h23.8q13.164,0,20.011-5.768a20.07,20.07,0,0,0,6.847-16.225c0-7.082-2.315-12.517-6.847-16.3Z" transform="translate(504.475 108.24)" fill="#fff"/>
      <path id="Path_43846" data-name="Path 43846" d="M613.2,220.112a47.574,47.574,0,0,1-19.03-17.657,51.951,51.951,0,0,1,0-51.558,47.5,47.5,0,0,1,19.03-17.755,61.878,61.878,0,0,1,54.933,0A47.615,47.615,0,0,1,687.062,150.9a51.951,51.951,0,0,1,0,51.558,47.692,47.692,0,0,1-18.932,17.657,61.877,61.877,0,0,1-54.933,0Zm45.241-23.955c4.61-4.865,6.945-11.4,6.945-19.619s-2.335-14.694-6.945-19.619a25.365,25.365,0,0,0-35.608,0q-7.024,7.3-7.024,19.619t7.024,19.619a25.366,25.366,0,0,0,35.608,0Z" transform="translate(564.929 121.882)" fill="#fff"/>
      <path id="Path_43847" data-name="Path 43847" d="M636,277.429l7.573-20.384a20.031,20.031,0,0,0,11.889,3.433,10.672,10.672,0,0,0,8.475-3.512A15.7,15.7,0,0,0,667,246.411V149.436h28.114v96.8q0,16.951-9.633,26.76T658.522,282.8Q643.847,282.824,636,277.429Zm32.449-146.022a15.263,15.263,0,0,1,0-22.346,17.814,17.814,0,0,1,12.615-4.512,18.285,18.285,0,0,1,12.615,4.336,13.871,13.871,0,0,1,4.865,10.81,15.362,15.362,0,0,1-4.865,11.634,19.756,19.756,0,0,1-25.229,0Z" transform="translate(611.753 100.546)" fill="#fff"/>
      <path id="Path_43848" data-name="Path 43848" d="M756.283,137.45q12.066,10.731,12.066,32.351v55.345H741.981V213.08q-7.946,13.5-29.566,13.517a46.1,46.1,0,0,1-19.383-3.786A29,29,0,0,1,680.5,212.354a27.23,27.23,0,0,1-4.316-15.146,25.269,25.269,0,0,1,10.182-21.267q10.182-7.749,31.39-7.848h22.365a17.95,17.95,0,0,0-5.591-14.165q-5.591-4.944-16.774-4.944a48.733,48.733,0,0,0-15.224,2.433,40.1,40.1,0,0,0-12.713,6.572L679.73,138.372a60.6,60.6,0,0,1,19.01-8.652,85.3,85.3,0,0,1,22.8-3.08Q744.139,126.719,756.283,137.45Zm-23.994,66.88a18.246,18.246,0,0,0,7.847-9.809v-9.809H720.969q-17.3,0-17.3,11.359a10.064,10.064,0,0,0,4.218,8.554,19.148,19.148,0,0,0,11.634,3.159,24.485,24.485,0,0,0,12.713-3.453Z" transform="translate(650.382 121.812)" fill="#fff"/>
    </g>
  </g>
</svg>
