<svg xmlns="http://www.w3.org/2000/svg" width="125.725" height="44.516" viewBox="0 0 125.725 44.516">
  <g id="Group_30557" data-name="Group 30557" transform="translate(-69 -30.135)">
    <g id="Group_30263" data-name="Group 30263" transform="translate(69 30.135)">
      <g id="Group_20430" data-name="Group 20430" transform="translate(0 0)">
        <g id="Group_29897" data-name="Group 29897">
          <path id="Path_35464" data-name="Path 35464" d="M2746.084-396.805c0-5.52.014-11.04-.016-16.56,0-.738.2-.987.945-.961,1.474.05,2.95.013,4.425.017,1,0,1.02.023,1.021,1.054,0,2.492.026,4.985-.019,7.476-.012.668.21.808.821.8,1.984-.024,3.97-.031,5.954.023a13.786,13.786,0,0,1,4.627.918c2.415.938,3.565,2.86,4.1,5.268a14.749,14.749,0,0,1,.268,3.27c-.011,5.118-.019,10.236.011,15.354,0,.742-.206.955-.947.926-1.5-.06-3.005-.063-4.5,0-.843.037-1.029-.268-1.023-1.061.034-4.877.019-9.754.014-14.631a7.063,7.063,0,0,0-.2-1.908,2.694,2.694,0,0,0-2.6-2.317c-1.979-.212-3.966-.06-5.95-.09-.557-.008-.564.354-.562.757.006,1.527,0,3.055,0,4.582,0,4.529-.018,9.057.015,13.586.006.793-.2,1.1-1.031,1.075-1.5-.054-3-.042-4.505,0-.665.019-.868-.187-.865-.861C2746.095-385.658,2746.084-391.232,2746.084-396.805Z" transform="translate(-2642.498 414.328)" fill="#faf9fb"/>
          <path id="Path_35465" data-name="Path 35465" d="M1472-12.483a14.128,14.128,0,0,1-2.709,9.094,11.936,11.936,0,0,1-9.073,4.464A13.721,13.721,0,0,1,1455.3.681c-5.691-1.694-8.585-6.122-8.937-11.46a15.439,15.439,0,0,1,1.569-8.479,10.787,10.787,0,0,1,6.715-5.624c4.256-1.174,8.518-1,12.325,1.626a11.286,11.286,0,0,1,4.592,7.17A21.961,21.961,0,0,1,1472-12.483Zm-18.917-.253a11.869,11.869,0,0,0,.613,4.38,5.665,5.665,0,0,0,5.108,3.889,5.7,5.7,0,0,0,5.713-3.479,10.358,10.358,0,0,0,.757-4.473,8.444,8.444,0,0,0-1.745-5.538,5.846,5.846,0,0,0-8.307-.444A7.93,7.93,0,0,0,1453.087-12.736Z" transform="translate(-1372.3 34.415)" fill="#faf9fb"/>
          <path id="Path_35466" data-name="Path 35466" d="M-1797.146-4.31c3.515,0,7.029.014,10.544-.012.629,0,.829.168.8.812-.054,1.392-.032,2.787-.017,4.181a1.506,1.506,0,0,1-.461,1.147q-4.977,5.078-9.937,10.172c-1.029,1.054-2.065,2.1-3.09,3.161-.157.162-.462.3-.341.574s.427.159.655.159c4.051.009,8.1.033,12.153,0,.814-.007,1.08.222,1.037,1.041-.066,1.256-.033,2.519-.009,3.778.011.55-.184.755-.748.755q-10.665-.018-21.33,0c-.459,0-.614-.158-.611-.6.013-1.528.017-3.056-.008-4.583a1.274,1.274,0,0,1,.516-.946q4.553-4.655,9.107-9.307,1.966-2.008,3.93-4.018c.159-.164.437-.317.3-.59-.11-.219-.387-.129-.59-.129-4.132,0-8.264-.015-12.4.015-.641,0-.9-.117-.877-.819.053-1.364.048-2.734.007-4.1-.018-.587.194-.7.735-.7C-1804.229-4.3-1800.687-4.31-1797.146-4.31Z" transform="translate(1808.514 13.646)" fill="#faf9fb"/>
          <path id="Path_35467" data-name="Path 35467" d="M-651.872,11.3c-2.119,0-4.239.02-6.358-.011-.681-.01-.873.182-.78.883.417,3.143,1.69,3.658,4.326,3.82,2.994.184,6.007.088,9.01.051.8-.01,1.1.174,1.052,1.016-.071,1.2-.035,2.41-.011,3.617.011.561-.151.837-.772.827-3.672-.058-7.361.229-11.013-.21-4.146-.5-7.59-2.3-9.044-7.447a17.766,17.766,0,0,1,.451-11.653A9.492,9.492,0,0,1-658.1-3.726a18.9,18.9,0,0,1,4.693-.532c2.656.009,5.312.021,7.968-.01.646-.008.835.207.813.833-.043,1.205-.052,2.413,0,3.617.03.734-.2.984-.956.972-2.575-.04-5.151-.034-7.726-.011a11,11,0,0,0-3.019.381,3.746,3.746,0,0,0-2.706,3.9c.023.292.123.457.419.47.241.011.482.014.724.014,4.078,0,8.156.023,12.234-.01.819-.007,1.084.244,1.035,1.057a24.953,24.953,0,0,0,0,3.374c.066.873-.282,1.013-1.049,1-2.065-.047-4.131-.016-6.2-.016Z" transform="translate(692.201 13.593)" fill="#faf9fb"/>
          <path id="Path_35468" data-name="Path 35468" d="M459.147-377.423q0-8.2,0-16.394c0-1.147.023-1.165,1.169-1.165q2.251,0,4.5.006c1.04.005,1.067.033,1.067,1.1q0,15.268,0,30.537c0,.777,0,1.554,0,2.33-.005,1.086-.008,1.093-1.056,1.1-1.582.006-3.165-.038-4.745.015-.763.025-.951-.265-.948-.973.019-5.25.007-10.5.005-15.75v-.8Z" transform="translate(-407.572 395.422)" fill="#f6e85a"/>
          <path id="Path_35469" data-name="Path 35469" d="M987.488,18.327q0-8.159,0-16.319c0-1.209.02-1.222,1.207-1.226,1.475,0,2.952.034,4.425-.018.826-.029,1.06.3,1.057,1.082-.023,5.9-.01,11.791-.01,17.686q0,7.557-.005,15.114c0,1.142-.045,1.182-1.169,1.186-1.5,0-3.005-.033-4.506.008-.777.021-1.015-.273-1.012-1.032.024-5.493.013-10.987.013-16.48Z" transform="translate(-923.897 8.677)" fill="#f6e85a"/>
        </g>
      </g>
    </g>
  </g>
</svg>
