<svg xmlns="http://www.w3.org/2000/svg" width="885.5" height="373.646" viewBox="0 0 885.5 373.646">
  <g id="Group_30552" data-name="Group 30552" transform="translate(-277.5 -877)">
    <g id="Group_29922" data-name="Group 29922" transform="translate(-326.375 703)">
      <rect id="Rectangle_11073" data-name="Rectangle 11073" width="523" height="325" rx="15" transform="translate(966.375 199)" fill="#fff"/>
      <g id="g4158" transform="translate(1351.297 468.946)">
        <path id="polygon9" d="M441.69,142.372h-8.182l5.118-31.645h8.182Z" transform="translate(-397.919 -110.153)" fill="#d5d5d5"/>
        <path id="path11" d="M589.724,106.395a20.165,20.165,0,0,0-7.339-1.347c-8.081,0-13.771,4.309-13.806,10.469-.067,4.545,4.074,7.07,7.171,8.585,3.166,1.549,4.242,2.559,4.242,3.94-.032,2.12-2.558,3.1-4.914,3.1a16.285,16.285,0,0,1-7.677-1.683l-1.078-.506-1.145,7.1a24.9,24.9,0,0,0,9.126,1.684c8.586,0,14.175-4.242,14.241-10.807.033-3.6-2.154-6.363-6.868-8.618-2.862-1.448-4.615-2.424-4.615-3.906.034-1.347,1.482-2.726,4.713-2.726a13.9,13.9,0,0,1,6.1,1.212l.74.336,1.113-6.833Z" transform="translate(-516.291 -105.048)" fill="#d5d5d5"/>
        <path id="path13" d="M803.182,131.161c.674-1.818,3.267-8.854,3.267-8.854-.034.068.672-1.852,1.077-3.03L808.1,122s1.55,7.575,1.886,9.157Zm10.1-20.434h-6.329c-1.952,0-3.435.572-4.277,2.626l-12.154,29.019h8.586s1.413-3.906,1.717-4.747H811.33c.235,1.111.976,4.747.976,4.747h7.576l-6.6-31.645Z" transform="translate(-718.874 -110.153)" fill="#d5d5d5"/>
        <path id="path15" d="M186.037,110.727l-8.013,21.579-.876-4.376c-1.482-5.05-6.128-10.536-11.313-13.265l7.34,27.674h8.653l12.861-31.612h-8.652Z" transform="translate(-157.284 -110.153)" fill="#d5d5d5"/>
        <path id="path17" d="M94.465,110.727H81.3l-.135.639c10.269,2.626,17.071,8.956,19.865,16.565l-2.862-14.544c-.471-2.021-1.919-2.593-3.7-2.66Z" transform="translate(-81.166 -110.153)" fill="#efefef"/>
      </g>
      <text id="Matías_León_M." data-name="Matías León M." transform="translate(1002.375 420)" font-size="19" font-family="Axiforma-Medium, Axiforma" font-weight="500"><tspan x="0" y="0">Matías León M.</tspan></text>
      <text id="_10_27" data-name="10/27" transform="translate(1002.375 456)" font-size="20" font-family="Axiforma-Medium, Axiforma" font-weight="500"><tspan x="0" y="0">10/27</tspan></text>
      <text id="_5544" data-name="5544" transform="translate(1064.375 495)" font-size="25" font-family="Axiforma-Medium, Axiforma" font-weight="500"><tspan x="0" y="0">5544</tspan></text>
      <ellipse id="Ellipse_7916" data-name="Ellipse 7916" cx="4.5" cy="5" rx="4.5" ry="5" transform="translate(1002.375 480)"/>
      <circle id="Ellipse_7917" data-name="Ellipse 7917" cx="5" cy="5" r="5" transform="translate(1017.375 480)"/>
      <ellipse id="Ellipse_7918" data-name="Ellipse 7918" cx="4.5" cy="5" rx="4.5" ry="5" transform="translate(1033.375 480)"/>
      <circle id="Ellipse_7919" data-name="Ellipse 7919" cx="5" cy="5" r="5" transform="translate(1048.375 480)"/>
      <g id="Group_29923" data-name="Group 29923" transform="translate(857.84 184.848)">
        <path id="Path_35464" data-name="Path 35464" d="M2746.084-396.372c0-5.656.014-11.313-.017-16.969,0-.756.2-1.011.969-.985,1.51.051,3.023.013,4.534.017,1.028,0,1.045.023,1.046,1.08,0,2.554.027,5.108-.019,7.661-.013.685.216.827.841.82,2.033-.025,4.068-.032,6.1.023a14.123,14.123,0,0,1,4.742.94c2.475.961,3.653,2.931,4.2,5.4a15.138,15.138,0,0,1,.275,3.351c-.011,5.245-.019,10.489.011,15.734,0,.76-.211.979-.971.949-1.538-.062-3.08-.065-4.616,0-.864.038-1.054-.274-1.049-1.087.035-5,.02-9.995.015-14.992a7.235,7.235,0,0,0-.2-1.956,2.76,2.76,0,0,0-2.665-2.374c-2.028-.217-4.064-.062-6.1-.092-.571-.008-.578.363-.576.776.006,1.565,0,3.13,0,4.7,0,4.641-.019,9.281.015,13.921.006.813-.2,1.132-1.056,1.1-1.538-.055-3.078-.043-4.616,0-.682.02-.89-.192-.887-.882C2746.1-384.95,2746.084-390.661,2746.084-396.372Z" transform="translate(-2500.331 456.463)"/>
        <path id="Path_35465" data-name="Path 35465" d="M1472.639-12.16c0,3.589-.718,6.669-2.776,9.319-2.349,3.024-5.592,4.306-9.3,4.575a14.061,14.061,0,0,1-5.041-.4c-5.832-1.736-8.8-6.273-9.158-11.743a15.822,15.822,0,0,1,1.608-8.689,11.053,11.053,0,0,1,6.881-5.763c4.361-1.2,8.729-1.02,12.63,1.667a11.565,11.565,0,0,1,4.7,7.348A22.5,22.5,0,0,1,1472.639-12.16Zm-19.385-.259a12.162,12.162,0,0,0,.628,4.488,5.8,5.8,0,0,0,5.234,3.985,5.839,5.839,0,0,0,5.854-3.565,10.614,10.614,0,0,0,.775-4.584,8.653,8.653,0,0,0-1.788-5.675,5.991,5.991,0,0,0-8.512-.455A8.126,8.126,0,0,0,1453.254-12.419Z" transform="translate(-1230.864 76.768)"/>
        <path id="Path_35466" data-name="Path 35466" d="M-1796.865-4.31c3.6,0,7.2.014,10.8-.012.644,0,.849.172.824.832-.055,1.426-.033,2.856-.017,4.284a1.544,1.544,0,0,1-.473,1.175q-5.1,5.2-10.183,10.423c-1.055,1.08-2.116,2.154-3.167,3.239-.161.166-.473.307-.35.588s.438.163.672.163c4.151.009,8.3.034,12.454,0,.834-.007,1.107.228,1.063,1.067-.068,1.287-.034,2.581-.009,3.872.011.563-.189.774-.766.773q-10.929-.019-21.857,0c-.47,0-.629-.161-.626-.617.013-1.565.017-3.131-.008-4.7a1.305,1.305,0,0,1,.529-.969q4.665-4.77,9.332-9.537,2.014-2.058,4.027-4.117c.163-.168.447-.325.308-.6-.112-.225-.4-.132-.6-.133-4.234,0-8.468-.016-12.7.015-.656,0-.927-.12-.9-.839.055-1.4.049-2.8.007-4.2-.018-.6.2-.721.753-.718C-1804.123-4.3-1800.494-4.31-1796.865-4.31Z" transform="translate(1948.121 56.011)"/>
        <path id="Path_35467" data-name="Path 35467" d="M-651.517,11.685c-2.172,0-4.344.021-6.515-.012-.7-.01-.894.186-.8.9.427,3.221,1.732,3.748,4.433,3.915,3.068.188,6.155.09,9.233.052.816-.01,1.129.178,1.078,1.041-.073,1.232-.036,2.47-.011,3.706.011.575-.154.857-.791.847-3.763-.059-7.543.234-11.285-.216-4.249-.511-7.778-2.357-9.267-7.631a18.2,18.2,0,0,1,.463-11.941A9.726,9.726,0,0,1-657.9-3.713a19.369,19.369,0,0,1,4.809-.545c2.721.009,5.443.021,8.164-.011.662-.008.856.212.833.853-.044,1.235-.053,2.473,0,3.707.031.752-.21,1.009-.98,1-2.639-.041-5.278-.035-7.917-.012a11.269,11.269,0,0,0-3.094.39,3.838,3.838,0,0,0-2.773,4c.023.3.126.468.43.482.247.011.494.014.742.014,4.178,0,8.357.023,12.536-.011.839-.007,1.111.25,1.061,1.083a25.567,25.567,0,0,0,0,3.458c.067.895-.289,1.038-1.075,1.02-2.116-.048-4.233-.017-6.35-.017Z" transform="translate(832.45 55.958)"/>
        <path id="Path_35468" data-name="Path 35468" d="M459.147-376.989q0-8.4,0-16.8c0-1.175.023-1.193,1.2-1.194q2.307,0,4.616.006c1.066.006,1.093.034,1.093,1.128q0,15.646,0,31.292c0,.8,0,1.592,0,2.388-.005,1.112-.008,1.12-1.082,1.124-1.621.006-3.243-.038-4.863.015-.782.026-.974-.271-.972-1,.02-5.38.007-10.76.005-16.14v-.824Z" transform="translate(-266.69 437.568)" fill="#f6e85a"/>
        <path id="Path_35469" data-name="Path 35469" d="M987.489,18.761q0-8.361,0-16.723c0-1.239.021-1.252,1.237-1.256,1.512,0,3.025.035,4.535-.018.847-.03,1.086.3,1.083,1.109-.023,6.041-.01,12.082-.01,18.123q0,7.743-.005,15.487c0,1.17-.047,1.212-1.2,1.215-1.539,0-3.079-.034-4.617.008-.8.021-1.04-.28-1.037-1.058.025-5.629.013-11.258.013-16.887Z" transform="translate(-782.718 51.044)" fill="#f6e85a"/>
      </g>
    </g>
    <g id="Group_20692" data-name="Group 20692">
      <g id="Group_20690" data-name="Group 20690" transform="translate(13955.5 -12907.039)">
        <path id="Urntitled-1" d="M980.622,225H332.9c-7.677,0-13.9,7.18-13.9,16.036V384.4a19.776,19.776,0,0,1,4.281-.489c13.635,0,23.734,12.829,24.324,28.064s-11.6,28.063-24.324,28.063A20.889,20.889,0,0,1,319,439.59v143.02c0,8.857,6.223,16.036,13.9,16.036H980.622c7.677,0,13.9-7.18,13.9-16.036V241.036c0-8.857-6.223-16.036-13.9-16.036Z" transform="translate(-13997 13559.039)" fill="#252525"/>
        <line id="Line_2230" data-name="Line 2230" x1="675" transform="translate(-13677.5 13900.5)" fill="none" stroke="#2f2f2f" stroke-width="1.5"/>
        <line id="Line_2231" data-name="Line 2231" x1="675" transform="translate(-13677.5 13828.5)" fill="none" stroke="#2f2f2f" stroke-width="1.5"/>
        <line id="Line_2232" data-name="Line 2232" x1="646" transform="translate(-13648.5 13972.5)" fill="none" stroke="#2f2f2f" stroke-width="1.5"/>
        <line id="Line_2233" data-name="Line 2233" x1="675" transform="translate(-13677.5 14044.5)" fill="none" stroke="#2f2f2f" stroke-width="1.5"/>
        <line id="Line_2234" data-name="Line 2234" x1="675" transform="translate(-13677.5 14116.5)" fill="none" stroke="#2f2f2f" stroke-width="1.5"/>
        <line id="Line_2235" data-name="Line 2235" y2="373" transform="translate(-13615.5 13784.5)" fill="none" stroke="#2f2f2f" stroke-width="1.5"/>
        <line id="Line_2236" data-name="Line 2236" y2="373" transform="translate(-13478.5 13784.5)" fill="none" stroke="#2f2f2f" stroke-width="1.5"/>
        <line id="Line_2237" data-name="Line 2237" y2="373" transform="translate(-13341.5 13784.5)" fill="none" stroke="#2f2f2f" stroke-width="1.5"/>
        <line id="Line_2238" data-name="Line 2238" y2="373" transform="translate(-13204.5 13784.5)" fill="none" stroke="#2f2f2f" stroke-width="1.5"/>
        <line id="Line_2239" data-name="Line 2239" y2="373" transform="translate(-13067.5 13784.5)" fill="none" stroke="#2f2f2f" stroke-width="1.5"/>
      </g>
      <text id="Excellent_4.9_out_of_5" data-name="Excellent 4.9 out of 5" transform="translate(330 928.961)" fill="#fff" font-size="17" font-family="Axiforma-Medium, Axiforma" font-weight="500"><tspan x="0" y="0">Excellent 4.9 out of 5</tspan></text>
      <text id="PULL_YOUR_PACKAGE" data-name="PULL YOUR PACKAGE" transform="translate(911 927.961)" fill="#fff" font-size="11" font-family="Axiforma-Medium, Axiforma" font-weight="500"><tspan x="-116.138" y="0">PULL YOUR PACKAGE</tspan></text>
      <g id="Group_20691" data-name="Group 20691" transform="translate(17718.992 -319.119)">
        <path id="Path_14845" data-name="Path 14845" d="M9.407,0l2.964,6.093,6.443.743-5.073,4.221,1.479,6.835L9.407,14.41,3.594,17.892l1.479-6.835L0,6.835l6.443-.743Z" transform="translate(-17412.4 1231.188)" fill="#f3d854"/>
        <line id="Line_1356" data-name="Line 1356" x2="1.838" y2="3.961" transform="translate(-17402.873 1232.904)" fill="none"/>
        <line id="Line_1357" data-name="Line 1357" x2="3.154" y2="2.645" transform="translate(-17410.404 1238.571)" fill="none"/>
      </g>
      <path id="Path_35412" data-name="Path 35412" d="M16.385-54.858a.69.69,0,0,0,.493-.21l3.27-3.22a.54.54,0,0,0,.175-.4.6.6,0,0,0-.607-.587.638.638,0,0,0-.445.18l-2.882,2.851L13.5-59.1a.649.649,0,0,0-.445-.18.6.6,0,0,0-.607.587.556.556,0,0,0,.175.407l3.27,3.216A.685.685,0,0,0,16.385-54.858Z" transform="translate(977.002 940.285) rotate(-90)" fill="#fff" stroke="#fff" stroke-width="0.6"/>
    </g>
    <path id="Path_35437" data-name="Path 35437" d="M2348.8,1355.332c41.64-5.665,46.231-10.255,51.894-51.893,5.665,41.638,10.253,46.229,51.894,51.893-41.641,5.664-46.229,10.254-51.894,51.893C2395.031,1365.587,2390.44,1361,2348.8,1355.332Z" transform="matrix(0.985, 0.174, -0.174, 0.985, -1420.203, -761.52)" fill="#fff"/>
    <path id="Path_35438" data-name="Path 35438" d="M2348.8,1336.7c26.685-3.63,29.628-6.572,33.257-33.256,3.63,26.684,6.571,29.627,33.257,33.256-26.686,3.63-29.627,6.572-33.257,33.256C2378.428,1343.267,2375.485,1340.325,2348.8,1336.7Z" transform="translate(-1390.227 -634.96) rotate(9)" fill="#fff"/>
    <path id="Vector" d="M16.255,36.255c-.1,0-.2.033-.329.033a2.479,2.479,0,0,1-2.437-2.141,7.009,7.009,0,0,0-6.225-6.225,2.474,2.474,0,1,1,.626-4.908A12.032,12.032,0,0,1,18.4,33.521,2.468,2.468,0,0,1,16.255,36.255ZM26.3,34.575c-.1,0-.2.033-.329.033a2.479,2.479,0,0,1-2.437-2.141A16.5,16.5,0,0,0,8.943,17.876a2.474,2.474,0,1,1,.626-4.908A21.331,21.331,0,0,1,28.442,31.841,2.487,2.487,0,0,1,26.3,34.575Zm8.893-2.865c-.1,0-.2.033-.329.033A2.479,2.479,0,0,1,32.427,29.6,23.267,23.267,0,0,0,11.776,8.95,2.474,2.474,0,1,1,12.4,4.043,28.163,28.163,0,0,1,37.335,28.976,2.45,2.45,0,0,1,35.194,31.709Z" transform="translate(1113.049 923.528) rotate(45)" fill="#292d32"/>
  </g>
</svg>
