<svg xmlns="http://www.w3.org/2000/svg" width="363" height="334" viewBox="0 0 363 334">
  <g id="Group_30549" data-name="Group 30549" transform="translate(-2838.092 -97.245)">
    <g id="Group_30541" data-name="Group 30541" transform="translate(7969.092 -6034.755)">
      <g id="Hold_Near_Reader" data-name="Hold Near Reader" transform="translate(-5025.48 6357)">
        <rect id="Tech_Wallet_x_Key_-_Hold_Near_Reader_-_Light_background" data-name="Tech/Wallet/x/Key - Hold Near Reader - Light background" width="152" height="100" fill="none"/>
        <g id="Glyph_-_Hold_Near_Reader" data-name="Glyph - Hold Near Reader" transform="translate(55.204 29.204)">
          <path id="Path-2" d="M.693,0,13.7,8.085q-8.969,1.615-11.9-.2T.693,0Z" transform="translate(11.493 30.709)" fill="rgba(10,122,255,0.1)"/>
          <path id="Oval" d="M0,20.8a20.8,20.8,0,1,1,20.8,20.8A20.8,20.8,0,0,1,0,20.8Z" transform="translate(0)" fill="#007aff"/>
          <path id="Path" d="M17.62,20.776l-.166.094V2.133c0-1.072-.681-1.281-1.451-1.281h-1.97q-.274.8-.8.841H5.627a.753.753,0,0,1-.11,0H5.5A.742.742,0,0,1,4.593.852H2.75c-.77,0-1.451.21-1.451,1.281V20.87l-.166-.094v.094L0,20.137.278,2.574A2.418,2.418,0,0,1,3,0H15.749A2.4,2.4,0,0,1,18.47,2.458q0,.058,0,.117l.278,17.562-1.133.733v-.094Z" transform="translate(11.356 16.691)" fill="#007aff"/>
          <path id="Path-2-2" data-name="Path" d="M18.753,20.137,18.475,2.574A2.347,2.347,0,0,0,17.656.657,3.083,3.083,0,0,0,15.749,0H3A2.418,2.418,0,0,0,.278,2.574L0,20.137l1.3.733V2.133C1.3,1.062,1.98.852,2.75.852H4.72q.3.884.907.841h7.627A.742.742,0,0,0,14.16.852h2.009c.77,0,1.451.246,1.451,1.281V20.87Z" transform="translate(11.356 16.691)" fill="#007aff"/>
        </g>
        <text id="Hold_Near_Reader-2" data-name="Hold Near Reader" transform="translate(76 105)" fill="rgba(255,255,255,0.6)" font-size="18" font-family="Helvetica" letter-spacing="0.009em"><tspan x="-73.751" y="0">Hold Near Reader</tspan></text>
        <path id="Oval-2" data-name="Oval" d="M16.247,0A16.247,16.247,0,1,0,32.494,16.247,16.247,16.247,0,0,0,16.247,0Z" transform="translate(59.753 33.753)" fill="rgba(67,67,67,0.1)"/>
        <path id="Oval-3" data-name="Oval" d="M9.1,0a9.1,9.1,0,1,0,9.1,9.1A9.1,9.1,0,0,0,9.1,0Z" transform="translate(66.902 40.902)" fill="rgba(67,67,67,0.1)"/>
      </g>
      <g id="Group_30540" data-name="Group 30540" transform="translate(-6097 5933)">
        <g id="Group_30539" data-name="Group 30539" transform="translate(966 199)">
          <g id="Group_30538" data-name="Group 30538">
            <g id="Rectangle_11971" data-name="Rectangle 11971" stroke="#f6e85a" stroke-width="1">
              <rect width="363" height="225" rx="15" stroke="none"/>
              <rect x="0.5" y="0.5" width="362" height="224" rx="14.5" fill="none"/>
            </g>
            <g id="g4158" transform="translate(267.118 187.148)">
              <path id="polygon9" d="M439.18,132.666h-5.673l3.548-21.939h5.672Z" transform="translate(-408.835 -110.329)" fill="#d5d5d5"/>
              <path id="path11" d="M582.2,105.982a13.978,13.978,0,0,0-5.088-.934c-5.6,0-9.547,2.987-9.571,7.258-.047,3.151,2.825,4.9,4.972,5.952,2.195,1.074,2.941,1.774,2.941,2.731-.022,1.47-1.773,2.147-3.407,2.147a11.29,11.29,0,0,1-5.323-1.167l-.747-.351-.794,4.925a17.262,17.262,0,0,0,6.327,1.168c5.952,0,9.827-2.941,9.873-7.492.023-2.5-1.493-4.411-4.762-5.975-1.984-1-3.2-1.681-3.2-2.708.023-.934,1.028-1.89,3.267-1.89a9.638,9.638,0,0,1,4.226.84l.513.233.771-4.737Z" transform="translate(-531.286 -105.048)" fill="#d5d5d5"/>
              <path id="path13" d="M799.3,124.894c.467-1.26,2.265-6.138,2.265-6.138-.024.047.466-1.284.746-2.1l.4,1.89s1.074,5.251,1.307,6.348Zm7-14.167h-4.388a2.8,2.8,0,0,0-2.965,1.82l-8.426,20.118h5.952s.98-2.708,1.19-3.291h7.283c.163.77.677,3.291.677,3.291h5.252L806.3,110.727Z" transform="translate(-740.85 -110.329)" fill="#d5d5d5"/>
              <path id="path15" d="M179.841,110.727l-5.555,14.96-.607-3.034a16.792,16.792,0,0,0-7.843-9.2l5.089,19.186h6l8.917-21.916h-6Z" transform="translate(-159.907 -110.329)" fill="#d5d5d5"/>
              <path id="path17" d="M90.386,110.727H81.259l-.093.443c7.12,1.821,11.835,6.209,13.772,11.484l-1.984-10.083a2.347,2.347,0,0,0-2.568-1.844Z" transform="translate(-81.166 -110.329)" fill="#efefef"/>
            </g>
            <text id="Matías_León_M." data-name="Matías León M." transform="translate(25 153)" fill="#fff" font-size="13" font-family="Axiforma-Medium, Axiforma" font-weight="500"><tspan x="0" y="0">Matías León M.</tspan></text>
            <text id="_10_27" data-name="10/27" transform="translate(25 176)" fill="#fff" font-size="12" font-family="Axiforma-Medium, Axiforma" font-weight="500"><tspan x="0" y="0">10/27</tspan></text>
            <text id="_5544" data-name="5544" transform="translate(69 204)" fill="#fff" font-size="17" font-family="Axiforma-Medium, Axiforma" font-weight="500"><tspan x="0" y="0">5544</tspan></text>
            <ellipse id="Ellipse_9352" data-name="Ellipse 9352" cx="3" cy="3.5" rx="3" ry="3.5" transform="translate(25 195)" fill="#fff"/>
            <ellipse id="Ellipse_9353" data-name="Ellipse 9353" cx="3" cy="3.5" rx="3" ry="3.5" transform="translate(36 195)" fill="#fff"/>
            <ellipse id="Ellipse_9354" data-name="Ellipse 9354" cx="2.5" cy="3.5" rx="2.5" ry="3.5" transform="translate(47 195)" fill="#fff"/>
            <ellipse id="Ellipse_9355" data-name="Ellipse 9355" cx="2.5" cy="3.5" rx="2.5" ry="3.5" transform="translate(59 195)" fill="#fff"/>
            <path id="Vector" d="M7.024,20.3c-.062,0-.124.021-.207.021a1.562,1.562,0,0,1-1.535-1.349A4.415,4.415,0,0,0,1.36,15.053a1.558,1.558,0,1,1,.394-3.091A7.579,7.579,0,0,1,8.373,18.58,1.555,1.555,0,0,1,7.024,20.3Zm6.328-1.058c-.062,0-.124.021-.207.021a1.562,1.562,0,0,1-1.535-1.349A10.391,10.391,0,0,0,2.418,8.725a1.558,1.558,0,1,1,.394-3.091A13.436,13.436,0,0,1,14.7,17.522,1.566,1.566,0,0,1,13.352,19.244Zm5.6-1.8c-.062,0-.124.021-.207.021a1.562,1.562,0,0,1-1.535-1.349A14.656,14.656,0,0,0,4.2,3.1,1.558,1.558,0,1,1,4.6.012,17.74,17.74,0,0,1,20.3,15.717,1.543,1.543,0,0,1,18.953,17.439Z" transform="translate(329.357 19.425) rotate(45)" fill="#292d32"/>
            <g id="Group_30537" data-name="Group 30537" transform="translate(15.677 22.42)">
              <path id="Path_43867" data-name="Path 43867" d="M2746.077-404.2c0-3.192.008-6.383-.01-9.575,0-.427.115-.571.547-.556.852.029,1.706.007,2.559.01.58,0,.59.013.59.61,0,1.441.015,2.882-.01,4.323-.007.386.122.467.475.463,1.147-.014,2.3-.018,3.442.013a7.971,7.971,0,0,1,2.676.531,3.861,3.861,0,0,1,2.371,3.046,8.549,8.549,0,0,1,.155,1.891c-.006,2.959-.011,5.919.006,8.878,0,.429-.119.552-.548.535-.868-.035-1.738-.037-2.6,0-.487.021-.595-.155-.592-.613.02-2.82.011-5.64.008-8.459a4.074,4.074,0,0,0-.113-1.1,1.557,1.557,0,0,0-1.5-1.34c-1.144-.122-2.293-.035-3.44-.052-.322,0-.326.2-.325.438,0,.883,0,1.766,0,2.649,0,2.618-.011,5.237.009,7.855,0,.458-.115.639-.6.622-.867-.031-1.737-.024-2.6,0-.385.011-.5-.108-.5-.5C2746.083-397.751,2746.077-400.974,2746.077-404.2Z" transform="translate(-2686.183 414.328)" fill="#faf9fb"/>
              <path id="Path_43868" data-name="Path 43868" d="M1461.169-18.005a8.169,8.169,0,0,1-1.567,5.258,6.9,6.9,0,0,1-5.246,2.581,7.933,7.933,0,0,1-2.844-.228,7.007,7.007,0,0,1-5.167-6.626,8.928,8.928,0,0,1,.907-4.9,6.237,6.237,0,0,1,3.882-3.252,8.209,8.209,0,0,1,7.126.94,6.526,6.526,0,0,1,2.655,4.146A12.674,12.674,0,0,1,1461.169-18.005Zm-10.938-.146a6.86,6.86,0,0,0,.354,2.533,3.275,3.275,0,0,0,2.953,2.248,3.3,3.3,0,0,0,3.3-2.012,5.99,5.99,0,0,0,.438-2.586,4.883,4.883,0,0,0-1.009-3.2,3.38,3.38,0,0,0-4.8-.257A4.585,4.585,0,0,0,1450.231-18.151Z" transform="translate(-1403.52 30.686)" fill="#faf9fb"/>
              <path id="Path_43869" data-name="Path 43869" d="M-1801.941-4.315c2.032,0,4.064.008,6.1-.007.364,0,.479.1.465.469-.031.8-.019,1.612-.01,2.417a.87.87,0,0,1-.267.663q-2.878,2.936-5.746,5.881c-.6.609-1.194,1.215-1.787,1.828-.091.094-.267.173-.2.332s.247.092.379.092c2.342.005,4.685.019,7.027,0,.471,0,.625.128.6.6-.038.726-.019,1.456,0,2.185.006.318-.106.437-.433.436q-6.167-.011-12.333,0c-.265,0-.355-.091-.353-.348.008-.883.01-1.767,0-2.65a.737.737,0,0,1,.3-.547q2.632-2.692,5.266-5.381l2.272-2.323c.092-.095.252-.183.174-.341-.063-.127-.224-.075-.341-.075-2.389,0-4.778-.009-7.167.009-.37,0-.523-.068-.507-.473.031-.789.028-1.581,0-2.371-.01-.339.112-.407.425-.405C-1806.036-4.31-1803.989-4.316-1801.941-4.315Z" transform="translate(1808.514 9.713)" fill="#faf9fb"/>
              <path id="Path_43870" data-name="Path 43870" d="M-657.926,4.733c-1.225,0-2.451.012-3.676-.007-.394-.006-.5.105-.451.51.241,1.817.977,2.115,2.5,2.209,1.731.106,3.473.051,5.21.029.46-.006.637.1.608.587-.041.695-.02,1.394-.006,2.091.006.325-.087.484-.446.478a61.274,61.274,0,0,1-6.368-.122A5.553,5.553,0,0,1-665.783,6.2a10.272,10.272,0,0,1,.261-6.738,5.488,5.488,0,0,1,4-3.422,10.928,10.928,0,0,1,2.713-.308c1.536.005,3.071.012,4.607-.006.373,0,.483.12.47.481-.025.7-.03,1.4,0,2.092.018.424-.118.569-.553.562-1.489-.023-2.978-.02-4.467-.007a6.358,6.358,0,0,0-1.746.22,2.166,2.166,0,0,0-1.565,2.255c.013.169.071.264.242.272.139.006.279.008.419.008,2.358,0,4.716.013,7.074-.006.473,0,.627.141.6.611a14.424,14.424,0,0,0,0,1.951c.038.5-.163.586-.607.576-1.194-.027-2.389-.009-3.583-.009Z" transform="translate(681.245 9.66)" fill="#faf9fb"/>
              <path id="Path_43871" data-name="Path 43871" d="M459.144-384.829q0-4.739,0-9.479c0-.663.013-.673.676-.674q1.3,0,2.6,0c.6,0,.617.019.617.637q0,8.828,0,17.657c0,.449,0,.9,0,1.347,0,.628,0,.632-.611.634-.915,0-1.83-.022-2.744.009-.441.015-.55-.153-.548-.563.011-3.036,0-6.071,0-9.107v-.465Z" transform="translate(-429.323 395.237)" fill="#f6e85a"/>
              <path id="Path_43872" data-name="Path 43872" d="M987.484,10.918q0-4.718,0-9.436c0-.7.012-.707.7-.709.853,0,1.707.02,2.559-.01.478-.017.613.171.611.626-.013,3.409-.005,6.817-.006,10.226q0,4.369,0,8.739c0,.66-.026.684-.676.686-.869,0-1.738-.019-2.605,0-.449.012-.587-.158-.585-.6.014-3.176.007-6.352.007-9.529Z" transform="translate(-950.715 4.695)" fill="#f6e85a"/>
            </g>
          </g>
        </g>
      </g>
    </g>
  </g>
</svg>
