<svg xmlns="http://www.w3.org/2000/svg" width="470.357" height="60" viewBox="0 0 470.357 60">
  <g id="IMAGE" transform="translate(0)">
    <path id="Vector" d="M32.791,39.248,65.432.451V58.2H56.858V23.91l-18.5,21.955L48.886,58.346H37.6l-4.964-5.865-4.964,5.865H16.546L27.075,45.865,8.574,23.759V58.2H0V.451ZM76.563,1.654h39.56v8.421H84.986v15.94h31.137v8.571H84.986V49.624h31.137v8.421H76.563Zm199.454,0h39.56v8.421H284.44v15.94h31.137v8.571H284.44V49.925h31.137v8.421h-39.56Zm163.2,8.421v15.94h31.136v8.571H439.221V49.624h31.136v8.421H430.8V1.654h39.56v8.421ZM151.17,9.624V58.346H142.6V9.774H123.644V1.2h46.328V9.624Zm42.568-7.669,29.031,56.391h-9.627L193.889,20.9,174.936,58.346h-9.627Zm13.388-.3h62.122L238.563,58.346Zm47.983,8.271H221.415l17,30.677ZM354.986,40l12.936,18.5H357.544l-25.12-36.09v35.94H323.85V1.955h24.969A19.516,19.516,0,0,1,354.986,40ZM359.8,21.5a11.041,11.041,0,0,0-10.981-10.977H334.53l15.342,21.955A11.079,11.079,0,0,0,359.8,21.5Zm24.668-3.759v7.97H421.02V42.256C421.02,52.03,410.942,60,398.457,60s-22.562-7.97-22.562-17.744h8.573c0,4.962,6.468,9.173,13.989,9.173s13.989-4.211,13.989-9.173v-7.97H375.895V17.744C375.895,7.97,385.973,0,398.457,0S421.02,7.97,421.02,17.744h-8.574c0-4.962-6.468-9.173-13.989-9.173s-13.989,4.211-13.989,9.173Z" fill="#fff"/>
  </g>
</svg>
