<svg xmlns="http://www.w3.org/2000/svg" width="336.001" height="484" viewBox="0 0 336.001 484">
  <g id="Group_30551" data-name="Group 30551" transform="translate(0.001 -22)">
    <g id="Group_30550" data-name="Group 30550">
      <rect id="Rectangle_11967" data-name="Rectangle 11967" width="335" height="256" rx="20" transform="translate(1 250)" fill="#2c2c2c"/>
      <circle id="Ellipse_9344" data-name="Ellipse 9344" cx="19.5" cy="19.5" r="19.5" transform="translate(25 267)" fill="#424242"/>
      <circle id="Ellipse_9345" data-name="Ellipse 9345" cx="19.5" cy="19.5" r="19.5" transform="translate(25 328)" fill="#424242"/>
      <circle id="Ellipse_9346" data-name="Ellipse 9346" cx="19.5" cy="19.5" r="19.5" transform="translate(25 391)" fill="#424242"/>
      <circle id="Ellipse_9347" data-name="Ellipse 9347" cx="19.5" cy="19.5" r="19.5" transform="translate(27 455)" fill="#424242"/>
      <text id="Get_a_Free_NFT" data-name="Get a Free NFT" transform="translate(83 279)" fill="#fff" font-size="15" font-family="Axiforma-Regular, Axiforma"><tspan x="0" y="12">Money</tspan></text>
      <text id="Get_a_Free_NFT-2" data-name="Get a Free NFT" transform="translate(83 340)" fill="#fff" font-size="15" font-family="Axiforma-Regular, Axiforma"><tspan x="0" y="12">Gas dollar</tspan></text>
      <text id="Get_a_Free_NFT-3" data-name="Get a Free NFT" transform="translate(83 403)" fill="#fff" font-size="15" font-family="Axiforma-Regular, Axiforma"><tspan x="0" y="12">NFTs</tspan></text>
      <text id="Get_a_Free_NFT-4" data-name="Get a Free NFT" transform="translate(83 467)" fill="#fff" font-size="15" font-family="Axiforma-Regular, Axiforma"><tspan x="0" y="12">Game loot</tspan></text>
      <line id="Line_2390" data-name="Line 2390" x2="217" transform="translate(83.5 317.5)" fill="none" stroke="#707070" stroke-width="1"/>
      <line id="Line_2391" data-name="Line 2391" x2="217" transform="translate(83.5 377.5)" fill="none" stroke="#707070" stroke-width="1"/>
      <line id="Line_2392" data-name="Line 2392" x2="217" transform="translate(83.5 443.5)" fill="none" stroke="#707070" stroke-width="1"/>
      <g id="vuesax_bold_card" data-name="vuesax/bold/card" transform="translate(-457.279 -231.279)">
        <g id="card" transform="translate(492 508)">
          <path id="Vector" d="M16.3,3.382a.981.981,0,0,1-.978.978H.978A.981.981,0,0,1,0,3.382V3.374A3.37,3.37,0,0,1,3.374,0h9.543A3.384,3.384,0,0,1,16.3,3.382Z" transform="translate(1.63 2.771)" fill="#fff"/>
          <path id="Vector-2" data-name="Vector" d="M0,.978V5.061A3.37,3.37,0,0,0,3.374,8.435h9.543A3.384,3.384,0,0,0,16.3,5.053V.978A.981.981,0,0,0,15.321,0H.978A.981.981,0,0,0,0,.978ZM4.89,5.7H3.26a.611.611,0,0,1,0-1.222H4.89a.611.611,0,0,1,0,1.222Zm5.3,0H6.927a.611.611,0,0,1,0-1.222h3.26a.611.611,0,1,1,0,1.222Z" transform="translate(1.63 8.353)" fill="#fff"/>
          <path id="Vector-3" data-name="Vector" d="M0,0H19.559V19.559H0Z" fill="none" opacity="0"/>
        </g>
      </g>
      <g id="vuesax_bold_dollar-circle" data-name="vuesax/bold/dollar-circle" transform="translate(-201.141 -234.141)">
        <g id="dollar-circle" transform="translate(236 572)">
          <path id="Vector-4" data-name="Vector" d="M0,2.289H.522a1,1,0,0,0,.956-1.028c0-.7-.249-.835-.659-.98L.008,0V2.289Z" transform="translate(10.242 10.499)" fill="#fff"/>
          <path id="Vector-5" data-name="Vector" d="M8.009,0a8.033,8.033,0,1,0,8.057,8.009A8.036,8.036,0,0,0,8.009,0Zm1.84,8.114a2.01,2.01,0,0,1,1.47,2.121,2.2,2.2,0,0,1-2.161,2.233H8.636v.466a.6.6,0,1,1-1.2,0v-.466H7.142A2.432,2.432,0,0,1,4.756,9.993a.6.6,0,0,1,1.2,0,1.23,1.23,0,0,0,1.181,1.269h.289V8.547L6.218,8.114a2.01,2.01,0,0,1-1.47-2.121A2.2,2.2,0,0,1,6.909,3.76h.522V3.294a.6.6,0,1,1,1.2,0V3.76h.289a2.432,2.432,0,0,1,2.386,2.474.6.6,0,0,1-1.2,0A1.23,1.23,0,0,0,8.925,4.965H8.636V7.68Z" transform="translate(1.607 1.526)" fill="#fff"/>
          <path id="Vector-6" data-name="Vector" d="M0,1.036c0,.7.249.835.659.98L1.47,2.3V0H.948A1,1,0,0,0,0,1.036Z" transform="translate(7.567 6.491)" fill="#fff"/>
          <path id="Vector-7" data-name="Vector" d="M0,0H19.28V19.28H0Z" fill="none" opacity="0"/>
        </g>
      </g>
      <g id="vuesax_bold_gallery" data-name="vuesax/bold/gallery" transform="translate(-329.279 148.93)">
        <g id="gallery" transform="translate(364 252)">
          <path id="Vector-8" data-name="Vector" d="M.423,1.579.407,1.6A4.934,4.934,0,0,1,0,0,4.9,4.9,0,0,0,.423,1.579Z" transform="translate(1.635 13.582)" fill="#fff"/>
          <path id="Vector-9" data-name="Vector" d="M3.8,1.9A1.9,1.9,0,1,1,1.9,0,1.9,1.9,0,0,1,3.8,1.9Z" transform="translate(5.279 4.482)" fill="#fff"/>
          <path id="Vector-10" data-name="Vector" d="M11.317,0H4.634A4.256,4.256,0,0,0,0,4.634v6.683a5.362,5.362,0,0,0,.447,2.265A4.248,4.248,0,0,0,4.634,15.95h6.683a4.256,4.256,0,0,0,4.634-4.634V4.634A4.256,4.256,0,0,0,11.317,0ZM14.65,8.374a1.778,1.778,0,0,0-2.249,0L9.084,11.221a1.778,1.778,0,0,1-2.249,0L6.563,11a1.771,1.771,0,0,0-2.105-.112l-2.983,2A4.253,4.253,0,0,1,1.2,11.317V4.634A3.073,3.073,0,0,1,4.634,1.2h6.683a3.073,3.073,0,0,1,3.437,3.437V8.462Z" transform="translate(1.595 1.595)" fill="#fff"/>
          <path id="Vector-11" data-name="Vector" d="M0,0H19.14V19.14H0Z" fill="none" opacity="0"/>
        </g>
      </g>
      <g id="vuesax_bold_bitcoin-refresh" data-name="vuesax/bold/bitcoin-refresh" transform="translate(-380 101)">
        <g id="bitcoin-refresh" transform="translate(428 188)">
          <path id="Vector-12" data-name="Vector" d="M0,0H2.688V2.688H0Z" fill="none" opacity="0"/>
          <path id="Vector-13" data-name="Vector" d="M2.185,1.127a.085.085,0,0,0-.119,0l-.052.052V1.121a1.121,1.121,0,0,0-2-.7A.084.084,0,1,0,.15.525a.953.953,0,0,1,1.7.6v.056l-.052-.052a.084.084,0,0,0-.119.119l.195.195a.087.087,0,0,0,.027.018.08.08,0,0,0,.032.007.084.084,0,0,0,.032-.007.087.087,0,0,0,.027-.018l.195-.195A.083.083,0,0,0,2.185,1.127Z" transform="translate(0.451 0.223)" fill="#292d32"/>
          <path id="Vector-14" data-name="Vector" d="M2.177.926A.083.083,0,0,0,2.059.94a.949.949,0,0,1-.744.357A.955.955,0,0,1,.363.344V.288L.414.339A.083.083,0,0,0,.473.364.08.08,0,0,0,.532.338a.085.085,0,0,0,0-.119L.338.025A.12.12,0,0,0,.31.007a.079.079,0,0,0-.064,0A.113.113,0,0,0,.219.025L.024.22A.084.084,0,0,0,.143.338L.195.287V.344A1.122,1.122,0,0,0,1.316,1.465a1.117,1.117,0,0,0,.875-.42A.084.084,0,0,0,2.177.926Z" transform="translate(0.028 1)" fill="#292d32"/>
          <path id="Vector-15" data-name="Vector" d="M.806.632A.275.275,0,0,0,.853.476.288.288,0,0,0,.573.2H.482V.084a.084.084,0,0,0-.168,0V.2H.084A.085.085,0,0,0,0,.28v.784a.085.085,0,0,0,.084.084h.23V1.26a.084.084,0,0,0,.168,0V1.148H.644A.3.3,0,0,0,.952.868.274.274,0,0,0,.806.632ZM.168.364H.573A.12.12,0,0,1,.685.476.112.112,0,0,1,.573.588H.168ZM.644.98H.168V.756H.644a.129.129,0,0,1,.14.112A.129.129,0,0,1,.644.98Z" transform="translate(0.924 0.672)" fill="#292d32"/>
        </g>
      </g>
      <g id="vuesax_bold_game" data-name="vuesax/bold/game" transform="translate(-130.932 147.069)">
        <g id="game" transform="translate(168 318)">
          <path id="Vector-16" data-name="Vector" d="M11.513,0H4.2A4.209,4.209,0,0,0,0,4.2V8.59a4.209,4.209,0,0,0,4.2,4.2h7.309a4.209,4.209,0,0,0,4.2-4.2V4.2A4.209,4.209,0,0,0,11.513,0ZM9.823,4.951a.786.786,0,1,1,0,.016ZM6.389,8.134a.588.588,0,0,1-.833,0l-.809-.809L3.969,8.1a.588.588,0,0,1-.833,0,.593.593,0,0,1,0-.833l.778-.778-.754-.754A.589.589,0,0,1,3.992,4.9l.754.754.778-.778a.589.589,0,1,1,.833.833l-.778.778.809.809A.593.593,0,0,1,6.389,8.134Zm2.68-.841a.8.8,0,0,1-.794-.786.781.781,0,0,1,.778-.786h.016a.786.786,0,0,1,0,1.572Zm1.54,1.548a.781.781,0,0,1-.786-.778V8.047a.786.786,0,1,1,.786.794Zm1.556-1.548a.8.8,0,0,1-.794-.786.781.781,0,0,1,.778-.786h.016a.786.786,0,1,1,0,1.572Z" transform="translate(1.572 4.495)" fill="#fff"/>
          <path id="Vector-17" data-name="Vector" d="M2.578.558,2.57,1.3A1.288,1.288,0,0,1,1.289,2.562a.175.175,0,0,0-.189.181.178.178,0,0,0,.181.181H.016A1.262,1.262,0,0,1,1.273,1.462a.182.182,0,0,0,.2-.181L1.477.542A.555.555,0,0,1,2.028,0h.008A.547.547,0,0,1,2.578.558Z" transform="translate(8.142 1.572)" fill="#fff"/>
          <path id="Vector-18" data-name="Vector" d="M0,0H18.861V18.861H0Z" transform="translate(18.861 18.861) rotate(180)" fill="none" opacity="0"/>
        </g>
      </g>
      <path id="Path_43848" data-name="Path 43848" d="M204.7,123.756l-3.542-3.562a.674.674,0,0,0-.957,0,.685.685,0,0,0,0,.964l3.987,4.009a.768.768,0,0,0,1.025,0l3.987-4.009a.685.685,0,0,0,0-.964.674.674,0,0,0-.957,0Z" transform="translate(175.137 491.688) rotate(-90)" fill="#b4b4b4"/>
      <path id="Path_43849" data-name="Path 43849" d="M204.7,123.756l-3.542-3.562a.674.674,0,0,0-.957,0,.685.685,0,0,0,0,.964l3.987,4.009a.768.768,0,0,0,1.025,0l3.987-4.009a.685.685,0,0,0,0-.964.674.674,0,0,0-.957,0Z" transform="translate(175.137 552.707) rotate(-90)" fill="#b4b4b4"/>
      <path id="Path_43850" data-name="Path 43850" d="M204.7,123.756l-3.542-3.562a.674.674,0,0,0-.957,0,.685.685,0,0,0,0,.964l3.987,4.009a.768.768,0,0,0,1.025,0l3.987-4.009a.685.685,0,0,0,0-.964.674.674,0,0,0-.957,0Z" transform="translate(175.137 612.707) rotate(-90)" fill="#b4b4b4"/>
      <path id="Path_43851" data-name="Path 43851" d="M204.7,123.756l-3.542-3.562a.674.674,0,0,0-.957,0,.685.685,0,0,0,0,.964l3.987,4.009a.768.768,0,0,0,1.025,0l3.987-4.009a.685.685,0,0,0,0-.964.674.674,0,0,0-.957,0Z" transform="translate(175.137 678.707) rotate(-90)" fill="#b4b4b4"/>
      <text id="Get_a_Free_NFT-5" data-name="Get a Free NFT" transform="translate(188 279)" fill="#fff" font-size="16" font-family="Axiforma-ExtraBold, Axiforma" font-weight="800"><tspan x="-73.856" y="12">$1.420,33</tspan></text>
      <text id="Get_a_Free_NFT-6" data-name="Get a Free NFT" transform="translate(188 340)" fill="#fff" font-size="16" font-family="Axiforma-ExtraBold, Axiforma" font-weight="800"><tspan x="-30.624" y="12">$40</tspan></text>
      <text id="Get_a_Free_NFT-7" data-name="Get a Free NFT" transform="translate(188 400)" fill="#fff" font-size="16" font-family="Axiforma-ExtraBold, Axiforma" font-weight="800"><tspan x="-18.208" y="12">33</tspan></text>
      <text id="Get_a_Free_NFT-8" data-name="Get a Free NFT" transform="translate(188 465)" fill="#fff" font-size="16" font-family="Axiforma-ExtraBold, Axiforma" font-weight="800"><tspan x="-65.344" y="12">$420,40</tspan></text>
    </g>
    <g id="Group_30530" data-name="Group 30530" transform="translate(-965.574 -177)">
      <g id="Group_30529" data-name="Group 30529" transform="translate(966 199)">
        <g id="Group_30528" data-name="Group 30528">
          <g id="Rectangle_11968" data-name="Rectangle 11968" transform="translate(-0.427)" stroke="#f6e85a" stroke-width="1">
            <rect width="336" height="208" rx="15" stroke="none"/>
            <rect x="0.5" y="0.5" width="335" height="207" rx="14.5" fill="none"/>
          </g>
          <g id="g4158" transform="translate(246.936 173.008)">
            <path id="polygon9" d="M438.751,131.008h-5.244l3.28-20.281h5.244Z" transform="translate(-410.699 -110.359)" fill="#d5d5d5"/>
            <path id="path11" d="M580.909,105.911a12.922,12.922,0,0,0-4.7-.863c-5.179,0-8.826,2.762-8.848,6.71-.043,2.913,2.611,4.531,4.6,5.5,2.029.992,2.719,1.64,2.719,2.525-.021,1.359-1.639,1.985-3.149,1.985a10.437,10.437,0,0,1-4.92-1.079l-.691-.324-.734,4.553A15.958,15.958,0,0,0,571.027,126c5.5,0,9.085-2.719,9.127-6.926.021-2.309-1.381-4.078-4.4-5.523-1.834-.928-2.958-1.554-2.958-2.5.021-.863.95-1.747,3.021-1.747a8.909,8.909,0,0,1,3.906.777l.474.215.713-4.38Z" transform="translate(-533.847 -105.048)" fill="#d5d5d5"/>
            <path id="path13" d="M798.635,123.823c.432-1.165,2.094-5.675,2.094-5.675-.022.043.431-1.187.69-1.942l.367,1.748s.993,4.855,1.209,5.869Zm6.473-13.1h-4.056a2.588,2.588,0,0,0-2.741,1.683l-7.79,18.6h5.5s.906-2.5,1.1-3.042h6.733c.151.712.626,3.042.626,3.042h4.855l-4.231-20.281Z" transform="translate(-744.603 -110.359)" fill="#d5d5d5"/>
            <path id="path15" d="M178.783,110.727l-5.136,13.83-.561-2.8a15.523,15.523,0,0,0-7.25-8.5l4.7,17.736h5.546l8.243-20.26h-5.545Z" transform="translate(-160.355 -110.359)" fill="#d5d5d5"/>
            <path id="path17" d="M89.689,110.727H81.252l-.086.41c6.582,1.683,10.94,5.74,12.731,10.616l-1.834-9.321a2.17,2.17,0,0,0-2.374-1.7Z" transform="translate(-81.166 -110.359)" fill="#efefef"/>
          </g>
          <text id="Matías_León_M." data-name="Matías León M." transform="translate(23.573 141)" fill="#fff" font-size="11" font-family="Axiforma-Medium, Axiforma" font-weight="500"><tspan x="0" y="0">Matías León M.</tspan></text>
          <text id="_10_27" data-name="10/27" transform="translate(23.573 162)" fill="#fff" font-size="11" font-family="Axiforma-Medium, Axiforma" font-weight="500"><tspan x="0" y="0">10/27</tspan></text>
          <text id="_5544" data-name="5544" transform="translate(63.573 189)" fill="#fff" font-size="15" font-family="Axiforma-Medium, Axiforma" font-weight="500"><tspan x="0" y="0">5544</tspan></text>
          <ellipse id="Ellipse_9348" data-name="Ellipse 9348" cx="2.5" cy="3.5" rx="2.5" ry="3.5" transform="translate(23.573 180)" fill="#fff"/>
          <ellipse id="Ellipse_9349" data-name="Ellipse 9349" cx="2.5" cy="3.5" rx="2.5" ry="3.5" transform="translate(33.573 180)" fill="#fff"/>
          <ellipse id="Ellipse_9350" data-name="Ellipse 9350" cx="2" cy="3.5" rx="2" ry="3.5" transform="translate(43.573 180)" fill="#fff"/>
          <ellipse id="Ellipse_9351" data-name="Ellipse 9351" cx="2.5" cy="3.5" rx="2.5" ry="3.5" transform="translate(54.573 180)" fill="#fff"/>
          <path id="Vector-19" data-name="Vector" d="M6.493,18.768c-.058,0-.115.019-.192.019A1.444,1.444,0,0,1,4.882,17.54a4.081,4.081,0,0,0-3.625-3.625,1.44,1.44,0,1,1,.364-2.858A7.006,7.006,0,0,1,7.74,17.176,1.437,1.437,0,0,1,6.493,18.768Zm5.85-.978c-.058,0-.115.019-.192.019a1.444,1.444,0,0,1-1.419-1.247,9.606,9.606,0,0,0-8.5-8.5A1.44,1.44,0,1,1,2.6,5.208,12.421,12.421,0,0,1,13.59,16.2,1.448,1.448,0,0,1,12.343,17.79Zm5.178-1.669c-.058,0-.115.019-.192.019a1.444,1.444,0,0,1-1.419-1.247A13.549,13.549,0,0,0,3.885,2.868,1.44,1.44,0,1,1,4.249.011,16.4,16.4,0,0,1,18.768,14.529,1.426,1.426,0,0,1,17.521,16.121Z" transform="translate(304.472 17.957) rotate(45)" fill="#292d32"/>
          <g id="Group_30527" data-name="Group 30527" transform="translate(14.492 20.726)">
            <path id="Path_43852" data-name="Path 43852" d="M2746.077-404.962c0-2.951.007-5.9-.009-8.852,0-.394.106-.527.505-.514.787.027,1.577.007,2.365.009.536,0,.545.012.545.564,0,1.332.014,2.664-.01,4-.007.357.113.432.439.428,1.061-.013,2.122-.016,3.182.012a7.366,7.366,0,0,1,2.474.49,3.569,3.569,0,0,1,2.192,2.816,7.926,7.926,0,0,1,.144,1.748c-.006,2.736-.01,5.471.006,8.207,0,.4-.11.51-.507.495-.8-.032-1.606-.034-2.408,0-.45.02-.55-.143-.547-.567.018-2.607.01-5.213.008-7.82a3.773,3.773,0,0,0-.1-1.02,1.44,1.44,0,0,0-1.39-1.238c-1.057-.113-2.12-.032-3.18-.048-.3,0-.3.189-.3.4,0,.816,0,1.633,0,2.449,0,2.421-.01,4.841.008,7.262,0,.424-.106.59-.551.575-.8-.029-1.606-.022-2.408,0-.355.01-.465-.1-.463-.46C2746.082-399,2746.076-401.983,2746.077-404.962Z" transform="translate(-2690.708 414.328)" fill="#faf9fb"/>
            <path id="Path_43853" data-name="Path 43853" d="M1460.047-18.577a7.551,7.551,0,0,1-1.448,4.861,6.38,6.38,0,0,1-4.85,2.386,7.334,7.334,0,0,1-2.629-.211,6.477,6.477,0,0,1-4.777-6.125,8.254,8.254,0,0,1,.839-4.532,5.766,5.766,0,0,1,3.589-3.006,7.588,7.588,0,0,1,6.588.869,6.033,6.033,0,0,1,2.454,3.833A11.728,11.728,0,0,1,1460.047-18.577Zm-10.112-.135a6.342,6.342,0,0,0,.327,2.341,3.028,3.028,0,0,0,2.73,2.078,3.046,3.046,0,0,0,3.053-1.86,5.537,5.537,0,0,0,.4-2.391,4.514,4.514,0,0,0-.932-2.96,3.125,3.125,0,0,0-4.44-.238A4.238,4.238,0,0,0,1449.935-18.712Z" transform="translate(-1406.753 30.3)" fill="#faf9fb"/>
            <path id="Path_43854" data-name="Path 43854" d="M-1802.438-4.316c1.879,0,3.757.008,5.636-.006.336,0,.443.09.43.434-.029.744-.017,1.49-.009,2.235a.8.8,0,0,1-.246.613q-2.66,2.714-5.312,5.437c-.55.563-1.1,1.124-1.652,1.69-.084.087-.247.16-.182.307s.228.085.35.085c2.165,0,4.331.018,6.5,0,.435,0,.577.119.554.556-.035.671-.018,1.346,0,2.02.006.294-.1.4-.4.4q-5.7-.01-11.4,0c-.245,0-.328-.084-.326-.322.007-.817.009-1.633,0-2.45a.682.682,0,0,1,.276-.505q2.433-2.488,4.868-4.975l2.1-2.148c.085-.088.233-.17.161-.315-.059-.117-.207-.069-.315-.069-2.208,0-4.417-.008-6.625.008-.342,0-.483-.063-.469-.438.028-.729.026-1.462,0-2.192-.01-.314.1-.376.393-.374C-1806.224-4.311-1804.331-4.316-1802.438-4.316Z" transform="translate(1808.514 9.306)" fill="#faf9fb"/>
            <path id="Path_43855" data-name="Path 43855" d="M-658.553,4.053c-1.133,0-2.266.011-3.4-.006-.364-.005-.466.1-.417.472.223,1.68.9,1.955,2.313,2.042,1.6.1,3.211.047,4.816.027.425-.005.589.093.562.543-.038.642-.018,1.288-.006,1.933.006.3-.081.447-.412.442a56.645,56.645,0,0,1-5.887-.112,5.133,5.133,0,0,1-4.834-3.981,9.5,9.5,0,0,1,.241-6.229,5.073,5.073,0,0,1,3.695-3.164,10.1,10.1,0,0,1,2.508-.284c1.42,0,2.839.011,4.259-.006.345,0,.446.111.435.445-.023.644-.028,1.29,0,1.933.016.392-.109.526-.511.52-1.376-.022-2.753-.018-4.13-.006a5.877,5.877,0,0,0-1.614.2A2,2,0,0,0-662.381.912c.012.156.066.244.224.251.129.006.258.007.387.007,2.18,0,4.359.012,6.539-.006.438,0,.58.13.553.565a13.334,13.334,0,0,0,0,1.8c.035.467-.151.541-.561.532-1.1-.025-2.208-.009-3.312-.009Z" transform="translate(680.11 9.253)" fill="#faf9fb"/>
            <path id="Path_43856" data-name="Path 43856" d="M459.143-385.6q0-4.381,0-8.763c0-.613.012-.622.625-.623q1.2,0,2.408,0c.556,0,.57.018.57.589q0,8.161,0,16.323c0,.415,0,.83,0,1.246,0,.58,0,.584-.564.586-.846,0-1.692-.02-2.536.008-.408.013-.508-.142-.507-.52.01-2.806,0-5.613,0-8.419v-.43Z" transform="translate(-431.575 395.217)" fill="#f6e85a"/>
            <path id="Path_43857" data-name="Path 43857" d="M987.484,10.151q0-4.361,0-8.723c0-.646.011-.653.645-.655.789,0,1.578.018,2.365-.009.442-.015.566.158.565.578-.012,3.151-.005,6.3-.005,9.453q0,4.039,0,8.078c0,.61-.024.632-.625.634-.8,0-1.606-.018-2.409,0-.415.011-.543-.146-.541-.552.013-2.936.007-5.873.007-8.809Z" transform="translate(-953.493 4.283)" fill="#f6e85a"/>
          </g>
        </g>
      </g>
    </g>
  </g>
</svg>
