<svg xmlns="http://www.w3.org/2000/svg" width="1091.299" height="646.272" viewBox="0 0 1091.299 646.272">
  <g id="logo" transform="translate(0 0.003)">
    <path id="Path_43849" data-name="Path 43849" d="M501.577,64.981c-.342-.373-1.072.047-1.476-.606a5.382,5.382,0,0,0-2.066-1.725,6.588,6.588,0,0,1-1.662-.777,6.458,6.458,0,0,1-1.2-1.631c-.311-.528-1.274-.621-1.678-.948-.637-.513-1.476-1.445-1.9-1.864a3.806,3.806,0,0,1-.653-3.17,7.784,7.784,0,0,1,1.165-2.455c.2-.388-.218-.59.482-1.383.031-.016.047-.016.062-.031-.435-.7,1.336-2.082,1.756-2.47-.435-.792,1.818-1.119,1.554-2.1.357-.171.715-.761,1.088-1.181-.155-.218.59-.994.715-1.041a3.348,3.348,0,0,0,.4-1.476c-.684-1.259.2-2.284-2.02-2-.419.062-.854.109-1.041.466-.233.14-.466.311-.7.435a7.419,7.419,0,0,0-2.237,1.756c-.264.109-2.564,1.072-2.89,1.771-.3.684-2.533,1.476-2.75,1.569-.249.326-1.973.5-2.237.792-2.331.047-2.191-.886-3.4-1.29-1.227-.4-.777-3.154-1.787-3.962-1.057-.792-.668-3.278-1.507-4.179-.777-.9.031-.917-.3-1.429-.326-.5-.528-1.212-.4-1.305-.155-.621.155-.839.093-1.569-.047-.031-.155-.544-.218-.575-.171-.186.171-.606-.109-1.259-.249-.528-.466-.155-.621-.886-.078,0-.761-.249-.823-.249-.186,0-.435-.373-.606-.373-.482-.186-.684.249-.979.606a5.892,5.892,0,0,0-.808.948c-.14.218.078.621.031.87-.14.559-.5.994-.684,1.6a8.784,8.784,0,0,0-.109,1.165,5.831,5.831,0,0,1-.451,1.15c.342.808-.5,2.377-.093,3.34a7.915,7.915,0,0,1,.4,3.372c-.233,1.01.513,2.735.357,3.76-.14,1.041-.792.653-1.445,1.476s-1.352.684-2.066.9c-.684.218-1.88-.093-2.3.078-1.507.3-.513.466-2.035.264-.124-.14-.559.326-1.585-.186a2.494,2.494,0,0,0-1.227.062c-.031-.016-.466-.14-.466-.155a5.332,5.332,0,0,1-.746.124s-1.041-.28-1.243-.155c-.047,0-.047-.016-.078-.031-.326,0-.684,0-1.041-.016-.311-.078-1.352-.42-1.694-.513-.963.14-2.237.808-2,1.492.14.435.016.5-.155.994-.186.5.311.342.451.59.823.761.73.963,1.989,1.243a5.061,5.061,0,0,0,3.216,1.134c.357.5,1.274.621,1.771.948.419.7,1.616-.109,2.253.373.249.513.823.42,1.243.73.575.373,2.362-.078,4.086,1.538a1.666,1.666,0,0,0,.994.637,4.811,4.811,0,0,1,1.243,1.134c.684,1.227-.124,1.429.606,2.16.3.482-.078,2.144-.233,2.579a11.608,11.608,0,0,1,0,1.274,4.256,4.256,0,0,1-.186,2.657c-.171,1.259-.544,1.6-.5,2.362s-.746,2.268-.637,3.294a10.3,10.3,0,0,1-.513,3.014c-.264.606.621,1.041.373,1.958-.3.886.419,1.305.839,1.569,1.01.715,2.843.451,3.247-.482.606-.2,1.429-2.377,1.367-2.952-.093-.7,1.523-1.414,1.523-2.1a25.82,25.82,0,0,1,.777-2.8c.994-.357.808-2.781,1.6-3.325.994-.684.451-3.045,1.694-3.558.9-.3,1.088-1.429,1.15-1.29.917-.3,1.694.4,2.47.249.466-.155,1.29.932,1.756.792.575.093,1.554.917,2.641,1.1,1.243.249,2.331.513,2.626.979a5.118,5.118,0,0,0,2.3,1.057,5.214,5.214,0,0,1,3.247,1.212c2.439,1.694,4.8,1.756,4.941.73.155-1.119,1.694-1.336,1.336-2.61-.606-2.191-.948-.808-2.284-2.191" transform="translate(251.477 16.497)" fill="#fff"/>
    <path id="Path_43850" data-name="Path 43850" d="M447.963,211.074c1.942-3.03,5.019-1.227,6.37-1.523a48.887,48.887,0,0,1,17.277-.855c5.64.9,13.02,3.744,20.478,7.116a48.11,48.11,0,0,0,10.223,3.558s2.066-1.336,5.593.047c3.449,1.367,6.184,2.237,14.418,2.517a47.172,47.172,0,0,0,13.455-2.082c2.377-.761,7.3-3.372,8.452-2.393,1.165.963-.062,1.181-1.15,1.507a19.7,19.7,0,0,0-2.517,1.445c-1.1.575-2.082,1.756-2.766,2.02-1.1.435-2.626.342-3.853.746-1.336.466-2.377,1.445-3.309,1.616a30.771,30.771,0,0,0-3.838.435c-.9.217-1.88,1.057-3.511,1.227-3.154.357-4.071,1.072-4.071,1.072l-1.088.886s7.582,3.744,16.485,17.386c11.342,16.547,6.526,41.111,11.56,43.737,3.418,1.8,11.264,2.983,16.532,4.863,2.533.948,9.043,3.216,10.612,6.308,1.756,3.48.575,5.407-.373,6.852-.963,1.461-3.061,1.072-2.937-.171.218-1.864-2.393-2.02-5.034-1.336-2.859.715-5.873,1.647-10.674,2.5-6.153,1.041-8.468-2.952-8.623-1.709a8.48,8.48,0,0,1-2.393,5.05c-2.268,1.927-4.4,2.3-8.592,4.071-4.863,2.082-8.064,4.18-8.468,5.3a2.483,2.483,0,0,1-2.3,1.771c-.932,0-2.393-1.01-1.973-4.164.311-2.377.482-5.624,5.966-13.642,2.486-3.636,5.034-5.873,6.013-9.1.792-2.5,1.585-4.956.047-10.037-.855-2.75-2.16-7.24-9.6-12.663-6.961-5.065-11.42-6.06-17.837-11.187-8.81-7.023-11.3-8.328-10.021-4.677.792,1.756-.047,1.6.482,3.9a23.635,23.635,0,0,1-.062,2.548,38.9,38.9,0,0,1,.451,4.366c-.078,1.274-.637,2.424-.715,3.48a10.792,10.792,0,0,0,.264,3.185c.311,1.243.093,2.455-.746,2.517-2.517.155-1.989-5.92-4.04-10.783a47.247,47.247,0,0,0-12.088-17.557c-3.511-3.247-3.185-5.236-3.185-5.236s-4.677-3.185-14.418-9.99c-9.726-6.774-11.513-15.087-12.678-16.112-1.212-.979-3.884-3.574-1.833-6.821" transform="translate(247.62 115.316)" fill="#fff"/>
    <path id="Path_43851" data-name="Path 43851" d="M592.392,178.33s-5.407,7.815-5.966,8.654c-1.274,1.74-2.424,1.025-3.325.093-.917-.932-.87-1.336-2.8-1.787-1.383-.28-1.181.513-2.952.513-.482,0-.917-.419-1.569-.621-.684-.218-1.538-1.057-2.486-1.383-.42-.109-1.212-1.227-1.694-1.352-.466-.155-1.585,0-2.067-.14-.575-.186-1.321-1.2-1.88-1.383-.761-.28-1.554.124-2.3-.155-.761-.233-.979-.979-1.678-1.367a41.673,41.673,0,0,0-4.211-1.523c-4.863-1.911-11.668-1.336-16.454-3.185-7.194-2.812-16.423-4.273-21.022-3.651-6.495,1.119-9.167-1.787-15.366.684-5.531,2.191,7.3,8.577,12.476,11.156,11.637,8.064,19.546,12.554,38.454,10.208,6.526-1.258,14.76-1.833,19.282-4.739a1.4,1.4,0,0,1,1.134-.186,10.134,10.134,0,0,1,2.595,1.057A3.448,3.448,0,0,1,582,192.406c0,.761.2,2-1.787,5.454a128.032,128.032,0,0,0-5.64,12.507c-1.492,3.511-2.828,6.805-3.418,7.675-.979,1.429-2.144,2.595-2.812,2.719-2.129.357-2.175-.637-2.734-2.579-.559-1.958-.559-4.615-2.672-3.869a1.244,1.244,0,0,0-.622.342c-.466-.792-1.507-1.1-2.47-1.942-.575-.528-1.165-1.476-1.865-2.02-.482-.357-1.057-.326-1.569-.684-.482-.342-.979-1.041-1.46-1.336-.886-.559-2.237-.513-3.2-1.072-1.787-1.088-3.17-2.781-4.817-3.822-14.5-8.141-22.187-8.266-33.731-7.473-4.941-.326-17.029-.994-13.207,2.3,4.242,3.667,7.24,2.89,12.15,5.858,3.542,2,11.327,4.4,17.9,5.3,4.381.559,9.664,3.34,14.139,3.915,1.2.14,2.657.559,3.776.559a8.222,8.222,0,0,0,1.492.047c.171-.047.016-.326.3-.28.668.124,1.181.606,1.88.73.466.093,1.4-.233,1.9-.171.451.093,1.259.559,1.678.653s1.352-.3,1.74-.233c.87.14,1.818-.062,2.393.078.606.093.73-.357,1.15-.233a5.373,5.373,0,0,1,1.165.451,4.174,4.174,0,0,0-.621,1.1A2.015,2.015,0,0,0,562,218.82c1.2,1.554,5.2,4.366,2.113,5.547a28.4,28.4,0,0,1-10.006,2.144,1.531,1.531,0,0,0-1.616,1.554c-2.144-1.958-7.784-3.092-12.1-4.366-11.311-2.8-13.207-1.538-22.389-2.237-3.387.559-12.694.59-9.462,2,3.558,1.616,5.422.668,9.307,1.756,2.766.684,7.551,5.3,12.212,4.8,3.061-.311,7.178.559,10.317.233.839-.109,1.9-.078,2.641-.233.513-.093.668-.388,1.165-.451.466-.016.979.217,1.383.171.388-.047.948-.373,1.258-.4.326-.047,1.647.73,1.958.7.28-.031,2.486-.373,2.734-.4a7.443,7.443,0,0,0,1.088-.218,5.065,5.065,0,0,0,.528,1.15c.42.5,1.492.808,6.153-.544,9.012-2.626,12.632-7.178,13.828-8.406,1.259-1.429,3.278-5.92,5.065-10.021l.451-1.041c5.22-11.824,6.805-15.226,7.271-16.05a69.086,69.086,0,0,1,4.242-5.982l4.288-7.473-2.082-2.7h.047Z" transform="translate(276.446 94.52)" fill="#fff"/>
    <path id="Path_43852" data-name="Path 43852" d="M613.578,154.941a.481.481,0,0,0-.932.171c-.2,6.759-2.781,13.331-3.542,20.167-1.476,6.028-1.6,10.456-2.129,14.294a7.182,7.182,0,0,1-1.74,2.61c-3.076,2.129-10.068,6.153-15.6,10.6-1.1-1.1-3.651-2.331-7.815-2.968-5.764-.886-6.4,1.15-5.889,3.527a17.168,17.168,0,0,1-4.568-3.7c-.093-.078-.264-.28-.5-.2-.218.093.016.373.016.513a10.505,10.505,0,0,0,1.647,2.843A6.151,6.151,0,0,0,575.776,205c-.031,2.02,1.585,3.776,5.733,3a31.065,31.065,0,0,0,3.372-.746,16.834,16.834,0,0,0-1.849,2.486,4.2,4.2,0,0,1-.342.513c-2.921.435-8.11,3.325-13.8,8.545-6.51,5.966-5.9,9.819-2.874,11.824a17.7,17.7,0,0,0-2.874,5.624c-.777.932-.622,3.449-1.631,5.733-.559,1.942-.823,3.946-1.678,6.619-.559.653-.839,4.2-.606,3.449.062-.264.73-.87.886-1.165.124-.388,1.025-2.362,1.2-2.843.078-.218,1.119-1.321,1.2-1.523.078-.264.093-1.6.186-1.864.078-.28.357-.621.466-.917a10.353,10.353,0,0,0,.28-1.243c.155-.4.326-.435.466-.777a16.356,16.356,0,0,0,.932-1.647c1.569-4.2,2.3-2.7,2.905-4.319a15.835,15.835,0,0,0,.886-3.139c2.843,2.905,7.846,2.921,11.544-4.785a80.961,80.961,0,0,0,4.848-11.948c1.088-1.072,2.191-2.175,3.356-3.325a28.988,28.988,0,0,0-1.523,3.713c-1.8,5.3.124,6.526,2.5,6.4a15.558,15.558,0,0,1-3.76,6.712c-.435.994,2.719-.823,3.573-2.16a7.066,7.066,0,0,0,1.523-4.2c1.927.5,3.6-.808,4.117-5.252.528-4.956-.994-9-2.253-9.338,4.133-4.024,8.359-8.079,12.274-11.218l-2.843,12.041L598.072,219.3a124.485,124.485,0,0,0-3.776,17.277c-3.356.839-10.394,4.35-13.533,7.5-4.646,4.677-10.86,8.375-12.756,17.4a20.469,20.469,0,0,0,.653,10.146c.14.559.186,1.585.7,1.057.59-.544.466-3.325.777-3.946.171-.264,1.694-2.408,1.865-2.672s.062-1.927.218-2.191c.2-.357.839-.761,1.057-1.181.311-.466.249-1.01.575-1.445.249-.513.668-.59,1.026-1.057.544-.684,1.1-1.849,1.569-2.579,1.973-3.092.249-.388,2.175-3.387,2.828-4.537,5.889-7.007,8.437-9.369,2.688-2.7,4.832-3.5,7.023-5.578v.792c-3.325,3.387-10.534,12.088-13.626,19.841-.948,3.2-.839,8.033,2.595,8.5a33.14,33.14,0,0,1-2.874,5.3c-2.89,4.646-3.714,1.864-11.3,9.6-2.735,2.75,1.057,3.387-6.06,10.659-1.15,1.15-1.492,2.517-2.455,3.589-.575.7-.466,1.134-1.165,1.818-.668.637-1.6,1.072-2.237,1.662-.513.5-.932,1.476-1.383,1.942-.466.435-3.247,1.507-3.651,1.958-.373.357-1.631,3.838-2.035,4.211-.792.808-3.931,4.646-4.615,5.252-6.541,6.106,2.781,1.864,4.879-1.181,7.644-8.406,8.561-6.557,11.932-9.415,3.776-4.366,9.058-6,10.239-8.67,3.76-4.009,7.442-7.24,9.431-13.222a26.725,26.725,0,0,0,6.028-10.1c.28-.87.528-1.818.761-2.75,2.983-.233,5.858-1.989,6.836-6.572a121.7,121.7,0,0,0,1.554-12.678,70.61,70.61,0,0,0-.3-8.095c1.476-2.222,3.247-6.992,4.226-13.144a106.1,106.1,0,0,1,2.408-12.445c1.181-4.4,2.89-8.592,3.791-13.393.746-4.133,3.014-6.51,3.978-11.824,1.507-8.281,3.294-17.759,4.8-30.189l-2.222-5.7-.047-.078Z" transform="translate(300.659 85.622)" fill="#fff"/>
    <path id="Path_43853" data-name="Path 43853" d="M567.025,249.237c3.076,4.117,7.722-2.781,10.876-1.383.886-.839-.528-2.16-.7-2.5-.233-.761.979-1.367.979-1.367s.824-.357.3-.932c-6.324-1.927-5.438-11.125-6.06-11.591-.435-.5-1.585-.73-1.336-1.864a3.236,3.236,0,0,0-.761-2.75c-3.822-1.678-3.993-5.034-5.7-5.158a18.987,18.987,0,0,1-6.432-2.579s-5.827.093-6.992,1.041c-3.216,2.672-6.9,3.853-7.489,4.366.031.062-2.5-2.921-5.391-3.48-4.164-.621-5.9,2.191-6.743,3.278-3.434-5.733-8.017-1.243-8.281-.948a5.067,5.067,0,0,1-.528,2.346c0-1.2-.233-2.206-.59-2.408L522,223.15c-1.973-1.429-4.071-.948-5.018.326.233.171-.233,1.119-.761,2.331.109-1.227.4-1.942.218-2.206a3.858,3.858,0,0,0-2.144-.994,2.7,2.7,0,0,0-2.1.963l-.357.326a6.142,6.142,0,0,1-.544,2.144,4.745,4.745,0,0,0-.093-2.144l-.388-.357c-.233-.093-.559-.311-.637-.233-1.663-.4-4.335,1.383-4.335,1.383s.839,3.62,4.1,4.677c0,0,.451.171.823-.668-.14.9-.357,1.072-.373,1.072.155,5.05,3.791,2.921,3.791,2.921s.3-.715.668-1.554a11.161,11.161,0,0,1-.342,2.5c-.14,2.859,4.646,4.739,6.277,2.983.093-.249-.016.264.451-1.165a9.91,9.91,0,0,1-.3,2.439c-1.771,5,4.817,10.441,7.442,8.079,0,0,1.725,1.057,2.5,4.211.42,1.74.761,2.657,2.47,3.325,1.383.544,1.492-.186,2.486.062,1.694.513,1.383,1.29,2.066,1.864.606.109,1.429-.388,3.03.668,2.315-.932,3.4.28,3.48-.186,1.864-1.585,3.729.062,3.884-.4a4.8,4.8,0,0,1,3.62-1.756c1.15-.047,1.88-2.579,2.641-2.61a6.434,6.434,0,0,0,2.937-2.781s5.252-3.527,9.54.9" transform="translate(280.091 121.326)" fill="#fff"/>
    <path id="Path_43854" data-name="Path 43854" d="M525.154,280.368c-.995-.171-1.787.171-2.253-1.4-.435-1.569-2.517-1.538-3.325-2.082-.87-.575.419-1.631-1.476-1.818-1.865-.186-1.662-1.4-2.191-1.74-.575-.373-1.2,0-2.082.062-.994.093.87-3.776-2.579-5.593-3.465-1.818-2.424-2.61-3.48-3.729-3.527-3.9-7.629-.062-5.9,5.05.357.948-.124,3.309-.451,5.78-.249,1.864.249,3.651-1.227,5.3-2.983,3.263-4.024,2.595-7.225,4.164-2.315,1.181-5.469,4.257-6.013,4.35-2.905.5-5.189,2.719-6.93,5.407-2.828,4.3-4.055,3.014-4.646,2.564-.994-.668,1.041-11.591,5.034-16.733.777-.963,2.735-4.444.606-5.22-.963-.3,2.175-6.526,5.376-9.26,1.383-1.2,2.393-3.542,3.387-4.319,3.558-2.828,5-2.035,5.267-1.849,3.558,2.781,11.855-1.833,3.962-5.314-1.026-.451-1.352-2.828-3.682-3.123-1.942-.109-2.657,1.025-3.03.606-.435-.5-.482-1.227-1.336-1.864-.839-.621-2.983.59-3.232-1.569-.218-2.191-2.455-2.688-4.475-2.533a1.073,1.073,0,0,1-1.321-.823c-.388-1.072-1.4-1.181-2.735-1.259-1.352-.109-.326-2.75-3.449-3.061-5.624-.73-3.558,3.7-3.558,3.7s-4.1,1.057-6.06-.451c-2.983-2.346-3.574-3.216-2.843-3.962,1.212-1.321.031-1.989-1.057-2.781-1.523-.311-1.849-.2-2.144-.435-.808-.544-.746-1.243-2.408-2.237-.14-.078-2.268.311-2.921-.668-1.258-.855-.87-1.2-2.066-1.523-4.459-1.181-4.739,5.2-1.445,7.613,1.865,1.336,5.36,3.434,7.069,8,.87,2.346,5.1,4.444,6.665,7.737a24.026,24.026,0,0,1,1.958,15.755c-.451,2.113.513,4.63.14,6.137-1.492,6.013-3.667,6.961-4.583,9.835-1.771,5.64-.5,6.914-1.072,10.053-.575,3.154-2.47,5.7-3.838,6.495-1.383.792-4.723,1.165-8.126,2.595-2.641,1.088-5.1,3.076-6.184,3.434-4.04,1.476-14.123,1.057-12.445-3.511,1.2-3.247.792-6.122,1.119-6.867,2.533-.839,7.178-1.507,8.825-3.869,1.833-2.641,5.407-2.781,7.287-3.884,1.864-1.072,2.1-6.759-.435-8.452s-3.5,1.165-6.619,2.968c-2.175,1.274-7.6,3.946-9.788,4.288-.093-1.569.124-7.815-.3-11.327-.388-3.014,4.848-5,3.838-7.815-2.61-7.225,2.781-7.831,3.76-7.877,4.055-.264,5.749-.186,6.6-1.88.73-1.476.746-4.537-2.688-4.6-1.274,0-2.533,1.492-2.843.668a3.755,3.755,0,0,0-1.8-2.377c-1.352-.761-2.455.482-3.869.14-1.833-.466-.7-1.523-2.113-2.129-1.414-.653-4.133.994-4.537-.186-1.631-4.863-5.78-2.983-6.665-3.962-3.294-3.589-6.79-.792-6.914.932-.326,5.2,5.283,6.9,8.452,15.056a12,12,0,0,1-.528,8.312c-1.818,4.257.792,10.938.3,14.294-.823,5.1-1.476,9.633-1.8,11.933-.326,2.284-1.74,2.377-3.418,5.951-4.49,9.757-1.6,6.137-10.627,11.964l-.264.047c-.761.155-4.925-.109-5.935,2.937a9.773,9.773,0,0,0,1.258,8.173c3.48,5.329,9.245,8.126,12.2,5.422,2.222-1.958,4.49-.186,8.017-2.082,10.5-5.718,16.33-4.04,23.352-7.955,4.211-1.4,10.27-2.983,12.274-3.589a31.6,31.6,0,0,0,9.913-3.387,6.083,6.083,0,0,1,5.935-.186c2.129.823,8.5-.87,11.932,1.4,2.672,1.74,8.825,1.927,13.284,2.284,3.138.249,5.329.684,6.681,2.175,1.74,1.989,3.946,2.517,4.18,3.853.2,1.4.637,7.411,4.832,6.712,1.88-.3.917-3,1.01-3,1.4-2.113.777-2.439.761-3.372-.031-.932,1.927-.715,1.818-2.641-.2-2.672,2.331-2.812,1.927-5a5.65,5.65,0,0,1,.684-4.537c1.026-1.212-1.243-2.129.109-3.651,2.828-3.045,1.445-4.211.559-4.583-5.22-2.253-7.536,7.023-14.854,6.059-2.983-.4-7.536-1.771-9.043-3.744-2.113-2.766-5.391-3.154-6.712-3.931,2.175-4.1,9.369-3.915,9.167-7.054a4.162,4.162,0,0,0-1.321-2.564,23.948,23.948,0,0,0,5.158-4.117c3.915-3.76,7.753-2.89,10.457-4.3a11.156,11.156,0,0,1,7.194-.684c4.133.994,7.069.357,6.743-2.937a3.826,3.826,0,0,0-2.268-2.812" transform="translate(221.173 128.384)" fill="#fff"/>
    <path id="Path_43855" data-name="Path 43855" d="M580.449,99.335c8.421-17.806,10.658-47.357.451-61.76C543.641-16.417,457.534,25,457.27,44.4c-.3,8.514,15.677,6.23,14.418,14.807-1.2,7.6-8.98,10.348-14.683,12.383C428.573,82.71,407.287,44.178,381.9,61.346c-4.335,2.486-11.886,5.5-11.637,11.668.218,6.137,8.126,5.982,12.212,9.214,7.225,17.464,57.658,22.218,88.36-.28,36.481-26.475-6.355-18.334,12.787-42C498.3,21.6,559.287,28.314,570.676,47.922c10.565,18.66.14,5.547-10.6,46.953-2.564,9.99,1.414,22.715,3.247,23.306,2.237.715,12.709-9.555,17.106-18.878" transform="translate(205.016 6.024)" fill="#fff"/>
    <path id="Path_43856" data-name="Path 43856" d="M402.939,48.493c-.917.87-1.709,1.662-1.6,1.927.855,1.072,5.267,4.024,8.483,5.656,1.119.575,2.439.855,3.185.218a18.646,18.646,0,0,0,4.024-6.308A50.17,50.17,0,0,0,427.8,47.872c.062,1.445.155,6.557,2.952,7.163,1.787.388,4.009-10.146,4.413-10.752,7.831-4.941,16.811-14.418,19.468-26.04,3.325-15.755.218-17.79-.5-18.008-.342-.171-4.77-1.74-16.485,6.184A77.084,77.084,0,0,0,423.076,20.5c-4.646-1.072-7.473-1.662-11.42-2.424-.963-.155-1.756-.171-1.942.823a3.97,3.97,0,0,0,.5,2.066c1.243,2.564,1.305,6.728,1.134,8.732-.062.886.606,1.165,1.461,1.088.264-.031.854.5,1.476,1.072-1.8,1.864-5.8,4.164-7.427,4.335-3.123-.621-6.992-2.7-9.012-1.958-.854.3-1.305,2.3.249,3.776a6.378,6.378,0,0,0,1.025.559,27.642,27.642,0,0,1-7.675.823c-.249-.218-.311-.715-.513-1.134-.233-1.989,1.414-3.123,2.61-4.086,1.569-1.243,1.305-2.75.373-4.164a8.009,8.009,0,0,0-4.568-2.921,9.03,9.03,0,0,1-3.822-1.025,8.516,8.516,0,0,1-2.7-3.17c-1.523-2.828-2.7-5.78-5.3-7.971a.851.851,0,0,0-1.227.171c-.932,1.367,2.672,14.248,6.013,18.567a37.462,37.462,0,0,0,20.649,14.854" transform="translate(208.277 0)" fill="#fff"/>
    <path id="Path_43857" data-name="Path 43857" d="M400.652,108.2c.171-.155.264-.979-1.181-2.191-1.476-1.181-3.045-2.315-3.045-2.315a1.921,1.921,0,0,0-.528-1.041,2.6,2.6,0,0,0-1.554-.575s.326-.155-3.776-2.781c-2.688-1.74-5.345-1.46-5.889-1.74-.513-.218-.606-.482-1.134-1.01-.823-.87-5.547-2.284-5.889-1.958-.342.357,2.206,1.538,2.206,1.538s-2.937-.932-2.921-.357c0,.047,1.336,1.181,1.336,1.181s-2.937-.979-2.874-.249c0,.062.808.994.73.979-.264-.109-1.383-.4-1.585-.047,0,.047.684.715.653.684-.388-.171-1.383.42-1.383.42s1.445.264,1.725.326c-.342-.047-1.958.093-2.051.419.047.031,1.29.823,1.29.823s-.963-.264-1.29-.4a2.734,2.734,0,0,0-1.787.062c-.979.73-.746-.373-2.859.466-3.667,1.445-3.651,1.4-5.391,2.564-1.088.73-6.028,4.3-6.339,3.651a18.965,18.965,0,0,0-2.3-2.952c-.513-.575-1.74-1.74-2.206-1.476-1.6,1.025-.979,4.521.3,7.458,1.336,3.045-.637,6.852-.109,7.427.5.575,3.076-2.144,4.49-4.148.606-.761,3.03-.948,4.3-.3,1.818.932,4.646,2.191,4.646,2.191a12.115,12.115,0,0,1,.917,3.34c.093.684.031.792.7.777,1.445.031,2.983-1.694,2.983-1.694s-.435-.264,1.492.357a3.175,3.175,0,0,0,1.756.093c-.5.451-1.025,1.2-1.616,1.725a7.136,7.136,0,0,0-1.942,3.372c.047.684.979.5,1.864.2a15.194,15.194,0,0,0,3.511-1.9c1.476-.963,2.579-2.253,3.03-2.517a.641.641,0,0,1,.823.14s-.078,1.958-.078,2.626-.2,3.092.093,2.843a4.22,4.22,0,0,0,1.072-1.973c.388-1.181.047-2.983.59-2.952,13.5.233,19.3-8.328,19.857-8.918a.929.929,0,0,0-.062-1.258s-.823-.746-.622-.9" transform="translate(194.716 52.349)" fill="#fff"/>
    <path id="Path_43858" data-name="Path 43858" d="M553.149,57.313c1.243,2.222,1.041,4.4,2.222,6.463a5.713,5.713,0,0,0,4.661,3c.357,0,.264-.218.062-.249a5.632,5.632,0,0,1-4.164-3.092c-.9-1.6-1.01-4.413-2.191-6.495-1.8-3.123-5.018-1.492-6.526-.482-.062.062-.218.171-.264.047-.031-.093.093-.171.155-.233a22.279,22.279,0,0,0,2.331-1.616c.544-.575-.715-1.321-.823-1.01a5.5,5.5,0,0,1-2.051,1.74c-.047.047-.187.093-.249.031-.031-.093.062-.171.171-.218.653-.42,1.414-1.088,1.445-1.725.031-.684-.5-.575-.684-.7-2.268-.808-8.949-1.942-13.238-4.164a18.264,18.264,0,0,1-7.846-8.592c-.544-1.2-1.181-.684-1.414.218-1.352,5.749-.746,9.757-.466,15.211a14.078,14.078,0,0,1-1.352,6.712c-.4.746-1.833.948-2.346,1.709a6.7,6.7,0,0,0-.606,1.585c-.932.186-2.175.078-3.123.2a2.994,2.994,0,0,0-2.035.948,1.377,1.377,0,0,0,.124,2.035c1.569,1.29,3.807.357,5.531-.932a1.473,1.473,0,0,1,1.818-.233c1.15,1.01,3.946,5.2,3.776,7.24a2.042,2.042,0,0,1-.761,1.212c-.917.637-1.631.839-2.517,1.554a4.06,4.06,0,0,0-1.756,3.123,1.455,1.455,0,0,0,.7,1.181c2.02.746,3.154-1.538,4.148-3a4.99,4.99,0,0,1,1.041-.792,2.66,2.66,0,0,0,1.554.2c.559-.2,1.305-1.274,1.678-1.01,2.144,1.429,2.066.932,3.931,1.243,6.836,1.088,11.715,7.613,15.615,10.208,1.693,1.1,2.051.171,1.631-.9-.886-2.268-1.725-4.3-2.362-6.557-2.346-7.629,1.227-19.39,1.942-21.177.14-.544.544-1.771-.218-1.678a5.128,5.128,0,0,0-2.362.87c-.093,0-.249.109-.3.016-.047-.062.062-.2.155-.233a7.375,7.375,0,0,1,2.517-1.1.494.494,0,0,0,.326-.7.6.6,0,0,0-.715-.435,6.029,6.029,0,0,0-2.455,1.057c-.14.093-.233.186-.3.078-.078-.109.016-.2.124-.249,1.585-1.088,4.288-2.315,5.454-.311" transform="translate(284.847 21.773)" fill="#fff"/>
    <path id="Path_43859" data-name="Path 43859" d="M552.463,156.5s4.63-.9,6.805-4.2c2.315-1.336,3.744-10.1,3.154-13.983a10.818,10.818,0,0,0,2.066-7.846c.932,1.15,2.191,2.672,2.595,3.107.932,4.6,5.22,11.389,5.22,11.389s.994,2.362.047,4.04a4.129,4.129,0,0,0,2.129-4.754c.513-.917-2.067-7.38-4.786-12.2-1.787-1.709-5.935-7.334-8.11-10.363a17.913,17.913,0,0,1-.761-4.615c1.724,3.232,6.137,10.985,8.328,9.928,1.476,2.859,9.571,7.769,11.684,6.79a5.914,5.914,0,0,0,5.22-1.678,25.27,25.27,0,0,0-4.956-.528s-7.535-5.687-10.456-6.976c-2.906-3.325-6.759-9.617-9.8-11.808a11.873,11.873,0,0,0-.233-1.911c2.517,1.942,11.156,8.343,13.781,6.836,2.75-1.6,3.651-1.025,4.521-2.144a13.123,13.123,0,0,0,2.75-10.6c-1.1-5.469-2.548-6.526-2.548-6.526s.078,5.112.28,6.355-3.853,3.946-4.071,9.012c-3.7-.792-7.3-4.117-9.649-4.832-2.408-.73-4.071.218-5.8-.7a19.944,19.944,0,0,0-4.226-6.432,19.5,19.5,0,0,0-6.712-4.071c-.9-2.02-.155-3.5-.746-5.749-.606-2.408-4.226-5.889-5.127-9.555,5-.419,7.567-4.568,8.794-4.4,1.243.171,6.339.078,6.339.078s-1.088-1.414-6.557-2.3a12.941,12.941,0,0,0-10.456,3.092c-1.119.932-.482,1.8-1.989,4.63-1.429,2.75,5.687,11.653,7.287,13.6a11.143,11.143,0,0,0-2.16-.155c-2.906-4.086-8.359-6.588-11.839-9.462-1.352-2.89-7.287-10.27-7.287-10.27a25.8,25.8,0,0,0-.715-4.972A6.2,6.2,0,0,0,523,77.623c-.917,2.175,4.273,10.161,7.178,11.529-1.243,2.517,8.033,6.852,10.627,8.033a19.294,19.294,0,0,1-5.64-.761,119.9,119.9,0,0,1-9.385-7.551c-4.894-2.579-11.373-4.956-12.29-4.413a4.122,4.122,0,0,0-4.661,2.331c1.662-1.025,4.04-.093,4.04-.093s6.867,4.086,11.513,4.848a13.854,13.854,0,0,0,3.356,2.486,11.4,11.4,0,0,0-7.971,1.787c-4.63,0-13.144,1.8-14.372,4.148-3.2,2.3-3.931,6.992-3.931,6.992s3.278-3.822,4.739-4.583c.357.792,8-1.492,10.41-2.222a.967.967,0,0,0-.109.3,20.714,20.714,0,0,0-.994,5.624c-4.133.808-11.932,3.139-10.348,9.229-1.8,4.257-1.29,15.693.855,15.693,1.227,3.574,7.613,10.923,10.41,8.281-3.076.14-5.158-7.365-4.692-8.716,1.647,1.321,6.339,5.531,6.168,6.432.761-1.15-2.921-8.654-2.921-8.654s-.28-8.483-1.088-11.389c-.746-2.579,1.414-5.485,1.88-6.075a26.621,26.621,0,0,0,5.065,12.8c4.428,5.469,3.713,7.271,3.713,7.271a3.727,3.727,0,0,1,2.517.839,3.375,3.375,0,0,1,.808,2.393s1.74-.792,7.349,3.48A26.51,26.51,0,0,0,548.19,142.3c-.7.606-3.5,2.766-6,2.129-2.921-.761-11.358-.73-11.358-.73s-7.6-3.434-8.716-2.61c.854-.2,5.236,4.319,6.6,5.935-1.367.528-8.856-1.29-8.841-4.413-2.532,2.937,4.972,9.058,8.546,10.177.093,2.175,11.466,2.284,15.63.357,6.479,1.445,8.747-7.784,8.7-10.752a21.3,21.3,0,0,0,5.407-1.119c-.435,1.864-2.129,9.975-1.305,10.348-.7,1.492-4.382,4.91-4.382,4.91" transform="translate(277.672 40.057)" fill="#fff"/>
    <path id="Path_43860" data-name="Path 43860" d="M622,180.861l.544-.326-.435-2.843.513-.326-.917-2.812.73-.249s-2.735-3.17-1.212-3.045c.357.062-2.424-2.657-1.849-3.791.311-.684-4.521-2.1-5.065-11.156-.2-3.9-.575-12.6-4.475-21.379-5.562-12.538-7.163-20.431-5.609-19.064a6.7,6.7,0,0,0,2.051,1.057c-.093-.59-.124-1.305-.124-1.305l1.538,1.072-.233-.715,1.74,1.259-.482-.948,1.305,1.01s.155-.761.4-.606c.668.451,1.927,1.29,1.927,1.29l-.28-1.1,1.227.59.14-.855s1.336.808.808.357c-.513-.482-.4-.761-.4-.761l1.227.513s-.388-.855-.062-.388c.342.419,2.393,1.274,1.787.761-.606-.482-2.579-2.657-3.62-3.62a26.39,26.39,0,0,1-3.7-4.04,10.038,10.038,0,0,0-3.232-3.729,4.02,4.02,0,0,0-4.117-.373c-3.651,1.476-3.838-4.148-8.794-11.606-1.29-1.927-2.937-3.247-3.123-6.246-.746-12.57-9.229-12.834-11.249-14.434-1.181-.9-2.75-.047-3.014.031a2.6,2.6,0,0,1-2.02.078,16.355,16.355,0,0,1-2.7-1.8c-1.492-1.119-2.766-1.507-3.5-.621a13.308,13.308,0,0,0-2.066,2.672,4.119,4.119,0,0,0-.357,3.232c.249.855,3.092,7.986,2.626,9.151-.4,1.025-4.832,4.739-7.644,11.513-.357.761-2.626,7.038.746,17.526a37.676,37.676,0,0,0,4.444,8.654c-.979,2.331-5.127,7.769-6.308,12.958a34.065,34.065,0,0,0,.155,12.507,20.012,20.012,0,0,0,4.49,8.5l.9-2.237.357.823,1.025-2.61.373,1.057.979-2.595.4.917,1.134-3.4.264.823,1.057-3.776.466.7.451-3.869.482.7.342-4.242,1.134,1.119c-.124-.823-.28-2.688-.326-3.465-.062-1.554.419-3.682.761-2.641.124.311,7.163,11.948,14.077,16.656,6.93,4.692,10.612,4.739,13.222,8.561.948,1.429,2.408,3.309,1.647,5.407-.668,1.88-2.595,7.256-2.486,9.851a13.233,13.233,0,0,0,2.455,6.681,15.625,15.625,0,0,1,1.492,4.226l.264-.948.917.186.777-3.776.761.808.326-4.04.342.746.917-3.651.482.761s.4-4.242.715-3.185c.031.124.093.3.155.5a3.41,3.41,0,0,1,.186-1.181,7.638,7.638,0,0,0,.528-2.735c.109.4-.047-2.564.062-2.377.373.808,1.569.777,1.119,2.222a10.467,10.467,0,0,0-.249,2.082c-.2,2.812,1.585,7.4,5.391,9.9a18.572,18.572,0,0,0,3.7,1.818l1.181.373L620.977,182l1.631.2-.622-1.336H622Z" transform="translate(309.341 38.898)" fill="#fff"/>
    <path id="Path_43861" data-name="Path 43861" d="M513.037,19.23a11.512,11.512,0,0,1,1.367.7c1.227.823,2.408,1.507,3.449,2.144,3.449,2.237,18.629,11.14,21.985,15.646-1.958-.5-5.05-2.983-10.892-7.085-5.764-4.179-13.471-7.1-17.153-9.338-3.4-1.709.979,1.414,1.678,2.129,4.024,4.133,12.1,8.452,12.1,8.452s-19.017-8.67-21.612-12.958c-1.165-1.383-.653.963.653,2.439a39.864,39.864,0,0,0,11.575,8.577c5.376,2.579,11.2,4.615,15.6,7.769-.87,1.787-11.249-5.283-15.537-5.174-.186.109-.994.155,2.253,1.259,6.417,2.144,11.094,7.318,15.894,8.934,5.656,1.9,10.41,2,12.337,3.372,1.694,1.2,4.475,1.383,7.66,1.492a13.746,13.746,0,0,1-5.7.42,11.692,11.692,0,0,1-3.636-1.787c-.342,1.523,16,18.645,30.795,25.885,14.651,7.163,8.328,18.365,14.589,17.044a47.4,47.4,0,0,0,12.088-4.754,2.075,2.075,0,0,0,.078-1.352c8.608,3.667,8.344.451,5.36-1.818a28.321,28.321,0,0,1-2.486-2.237,2.906,2.906,0,0,0,1.585-.109s1.352-5.034-1.088-8.887c-1.429-2.191-6.774-.559-10.8-4.848-3.993-4.273-4.288-5.951-6.355-8.794C582.721,48.051,564,35.917,564,35.917a2.383,2.383,0,0,1-.078,2.859c-.59-2.362-1.756-4.754-5.951-6.028-.062-2.983-2.253-3.542-4.319-2.47a15.24,15.24,0,0,0-2.7,1.523,30.3,30.3,0,0,0-13.471-8.343c-7.675-2.16-14.4-8.141-19.359-11.2-4.459-2.548-.4.482,1.057,2.657,3,4.475,10.317,11.777,16.221,14.077,6.774,2.7,10.255,7.147,7.691,6.665-2.61-.451-18.784-10.721-23.135-14.714-3.993-3.62-5.236-7.24-11.218-9.68-.606-.249-2.766-1.15-3.014-.87-.342.342.5.855.7,1.227-1.305-.451-5.143-2-4.35-.7a26.929,26.929,0,0,0,10.954,8.312" transform="translate(277.944 5.725)" fill="#fff"/>
    <path id="Path_43862" data-name="Path 43862" d="M598.654,169.513c-.979,1.072-4.754-6.6-5.174-3.418-.124,1.088-5.236-5.826-4.863-1.833,0,0-4.785-5.562-4.475-2.408.14,1.849-2.439-2.548-2.89-1.507-1.818,3.791-1.725-7.007-2.921-3.325-.249.746.42-3.729-.854-2.144-.513.637.42-4.754-.886-2.362-.311.575.653-2.905-.637-1.523-.544.59,2.113-3.993.373-3-.342.2,1.119-1.15,1.569-1.818.451-.637-.73-.124-.342-.637.606-.73,1.4-.839,1.833-1.352.42-.5-.186-.559.093-.777.653-.482,1.989-.606,2.5-1.305.932-1.29-1.383-1.025-1.414-1.15a4.834,4.834,0,0,1,.233-1.227c.109-.575-.155-1.2-.637-.963s-.808,1.274-.792.994c.109-1.2-1.119,1.647-1.181.7-.124-1.336-.886,2.346-1.01,1.662-.42-1.8-.963,2.641-1.119,1.771-.326-2.144-.466,3.154-1.476,2.766-.777-.311,1.29-3.962.186-3.776-.3.062,1.694-2.206.886-1.989-.186.047.482-1.274.031-1.352-.2-.078,1.227-1.414.5-1.243-.28.047.9-1.4.528-2.1-.264-.5-.963.326-.963.326s.031-1.025-.435-.948c-.342.062-.948,1.259-1.01,2.082-.016.451-.326,1.243-.451,1.119-.466-.4-.73,3.247-.917,2.874-.388-.715.326,3.076-.2,2.315-.544-.746-.14,2.129-.326,1.942-.559-.5-.14,1.243.093,2.113.109.466-.3-.668-.466-.186-.2.513.42,1.864.637,2.408.233.559-1.15-.4.109,1.88.622,1.119-1.165-.031-.311,1.523.637,1.1,2.735,4.6,2.144,5.065-.2.171-4.459-3.511-3.589-1.165.218.621-4.009-3.418-3.573-1.8.28.979-1.461.155-2.066-1.025h.031a.465.465,0,0,0-.109-.14c0-.062-.078-.109-.078-.155-.109-.388-.233-.684-.357-1.01a6.432,6.432,0,0,1,.715-2.781c1.243-1.647-.218-1.367-.14-1.492.326-.466,1.414-1.771.311-1.585-.5.109,1.321-1.787.761-1.445-.622.357,1.662-2.237.9-1.942-.186.062.59-.7.87-1.647.28-.9,0-1.383-.388-1.041-.031,0-.047.031-.062.047a3.784,3.784,0,0,1,1.041-1.849,8.154,8.154,0,0,0,1.9-3.884c.109-1.352-.792-.7-.792-.7s.777-2.362.357-2.843c-.575-.684-1.973,3.356-1.88,2.626.218-2.16-1.119,2.5-1.134,1.973-.062-1.134-1.2,3.2-1.212,2.626-.078-.979-.854,3.107-.917,2.222-.047-.777-.264.9-.59,2.595-.062-.062-.124-.466-.388.249a13.5,13.5,0,0,0-.575,2.113c-.466-1.119,1.74-5.935.746-5.034-.186.186,1.569-2.859.668-2.1-.637.482,2.1-4.18,1.321-3.5-.855.777,2.035-3.853.979-3.123-.264.155.73-1.227.963-2.672.249-1.383-.264-1.911-.777-1.305-.544.637-1.4,2.548-1.507,2.486-.078-.047.42-3.853-.948-2.237a13.923,13.923,0,0,0-1.74,4.817c-.186.948-.28-.73-.668.823a30.5,30.5,0,0,0-.559,4.257c-.155,1.585-.42-.575-.637,1.274-.2,1.911.419,4.972-.031,4.335-.109-.171-.249-.342-.482.3-.388,1.181.264,4.49,0,6.355-.093.466-.3.606-.5.559-.047-.078-.124-.2-.186-.3h0a12.463,12.463,0,0,0,.186-2.719c-.047-1.15-.777.886-.761.093.047-1.507.544-2.952-.124-2.455-.233.186.777-3.232.047-2.533-.373.326.482-2.455-.124-1.756-.342.342.963-3.045.28-3.6a4.528,4.528,0,0,1,.249-2.331,10.2,10.2,0,0,0,.326-4.63c-.357-1.1-.963.2-.963.2s-.155-2.47-.715-2.47c-.761,0-.544,4.226-.777,3.6-.59-1.8-.093,2.89-.311,2.486-.482-.808.062,3.418-.171,3.045-.435-.668.342,3.092-.016,2.455-.653-1.01,1.429,5.283.451,5.158-.9-.124-.637-6.059-1.212-4.49-.14.326.388-3.527-.2-2.175-.357.948.435-4.987-.031-3.776-.482,1.336.435-4.661-.249-3.185-.171.357.249-1.569-.093-2.89-.249-1.227-.917-1.212-1.165-.264-.233.948-.326,3.154-.435,3.154-.124.062-.979-3.278-1.647-.839a13.17,13.17,0,0,0,.14,5.127c.2.87-.5-.311-.311,1.2a18.377,18.377,0,0,0,1.041,3.682c.4,1.305-.466.109-.171,1.352-.466-1.305-.9-3.372-1.538-4.1-1.243-1.383-.963,1.29-1.958.093-1.414-1.662-1.569-4.273-2.579-5.485-1.072-1.165-1.227,1.088-1.631.186-.9-2.051-2.268-3.822-3.107-3.76-3.232.2-1.134,5.407-1.414,5.671-.233.233-1.865-1.569-4.444-1.88-1.165-.171-2.02.855-1.569,2.268.482,1.507,3.232,1.585,2.641,1.771-2.486.823,4.086,2.1,2.066,2.517-1.8.388,4.552,2.02,3.045,2.533-2.222.777,3.5,2.129,3,2.377-2.579,1.181,4.77,2.082,4.273,4.615-.653,2.968-7.023-1.29-6.028,1.6.264.715-4.04-1.414-3.418.031.264.7-4.226-1.134-2.657.73.528.668-3.651-.3-3.978,2.051-.218,1.631,2.362,1.227,2.362,1.227s-2.47,1.694-.87,1.927c1.585.233,3.822-2.346,2.7-.249-.528.963,5.422-2,4.987-1.523-2.61,2.8,5.935-1.352,5.454-.373-.886,1.9,1.414-.031,3.294-.109.963-.047,3.465-.373,1.445.528-1.958.87,1.756,1.507,2.968,1.616.824.078.917.5.544.792a3,3,0,0,0-1.352-.3c-.559.078-.5.249-.466.4.186.606-1.585-.761-3.014-.948-1.476-.218-.078.513-1.305.357a16.378,16.378,0,0,0-3.247-.466c-1.29.047-.218.544-.948.5a10.406,10.406,0,0,0-4.3.653c-1.911,1.041,1.041,1.367,1.041,1.492,0,.109-1.787.559-2.533.932-.73.4-.637,1.057.451,1.119,1.165.078,2.672-.606,2.424-.373-1.072.9,3.713-.963,2.688-.3-.886.653,3.853-1.057,3.17-.544-1.025.777,2.082-.326,1.833-.171-1.2.792,3.713-.4,3.978.482.311.948-5.345-.109-4.35.342.559.264-2.719.109-2.082.435.373.186-3.263.3-2.486.653.357.14-3.62.4-1.989.684.544.124-3.014.575-2.859,1.336.109.5,1.989.311,2.144.3h0a1.481,1.481,0,0,0-.357.528,1.3,1.3,0,0,1-.3.047c-1.647.047-4.1.171-2.408,1.569,1.1.917-5.826-1.088-4.086.668.854.839-3.216.186-4.77,1.818-2.564,2.641,1.538,3.449,1.616,3.713a24.529,24.529,0,0,1-2.082,3.325c-.761,1.181-.171,2.626,1.4,2.393,1.616-.249,3.232-2.377,3.03-1.771-.886,2.533,4.521-3.636,3.589-1.616-.855,1.8,4.6-3.946,4.009-2.47-.917,2.191,2.486-1.616,2.424-1.119-.419,2.8,2.921-2.424,3.884-.466,1.025,2.144-5.578,1.9-3.869,2.595.979.4-3.667,1.243-2.548,1.74.606.264-4.288,1.942-3.076,2.408.637.233-4.708,2.346-2.268,2.393.839,0-3.791,2.47-3.045,4.179.528,1.2,3.232-.171,3.232-.171s-.14,2.393,1.445,1.46c1.927-1.119,3.62-4.832,3.76-3.061.14,1.74,2.517-3.387,2.517-2.89-.062,2.377,3.2-3.278,3.17-2.331,0,2.688,2.02-1.927,1.973-.886-.078,2.066,2.657-2.486,2.641-1.8-.171,2.688,3.511-3.325,2.968-1.507-.575,2,2.331-.668,3.449-1.258,1.212-.653-.171,1.864,1.507.606a24.065,24.065,0,0,1,3.636-2.237c2.237-.963.824,1.336-.264,2.346-1.258,1.165-3.729,1.616-4.552,2.75-.435.621-.233.73-.078.839.668.4-2,.761-3.449,1.958-1.414,1.181.388.559-.792,1.554-1.725,1.4-3.263,3.387-3.294,4.35,0,1.833,1.787-.233,1.336.637a20.5,20.5,0,0,0-1.927,6.479c.233,2.859,2.02-.466,2.16-.4.109.093-.233,2.47-.171,3.589.109,1.072.886,1.321,1.492.047.637-1.305.513-3.449.746-3.061,1.01,1.787.218-4.8.994-3.387.87,1.647.373-5.065.886-4.071.932,1.74,1.1-2.579,1.15-2.206.249,2.672,2.1-3.776,3.325-3.03,1.01.621-2.408,5.5-1.523,4.894.528-.357-1.088,2.843-.047,1.864.311-.233-.668,2.626.233,1.8.249-.233-.264,3.076.59,1.554.264-.42.761,2.206,1.538,1.942.559-.186.155-1.74.155-1.74s.839.59.994-.218a4.185,4.185,0,0,0-1.258-2.75c-.357-.264.218-.373.419-.28.528.28-.684-2.874-.4-2.657.808.606.031-1.538.357-.994.622,1.041.684-2.828.823-2.486.326.963,1.134-3.2,1.616-2.144.513,1.15.948-3.216.963-2.874,0,.311.528,1.4,1.274-1.119.357-1.212,2.595-3.6,4.568-4.49.653-.264,2.688-.761,2.191-.047-1.927,2.626,5.5-1.429,3.791.42-1.538,1.709,4.692.047,5.562-.093,1.025-.155-1.6,1.072-.249,1.212a7.494,7.494,0,0,0,3.434-.59c1.476-.42-1.818,1.321.808,1.29a10.137,10.137,0,0,0,3.092-.357c-2.688,1.367,3.309,1.4,2.517,2.035-1.461,1.227,4.366,1.088,3.636,1.787-1.134,1.088,5.547.777,5.127-1.476-.109-.637-2.688-5.749-4.459-3.869" transform="translate(294.11 71.253)" fill="#fff"/>
    <path id="Path_43863" data-name="Path 43863" d="M392.451,265.16c-6.976.249-13.16,4.009-17.246,8.141-4.04,4.117,3.822,1.585,5.9.932,6.246-1.973,12.414.28,18.349,5.081,2.828,2.253,10.115,1.445,12.29-1.88,2.874-4.506-7.551-12.647-19.282-12.259" transform="translate(207.127 146.825)" fill="#fff"/>
    <path id="Path_43864" data-name="Path 43864" d="M416.611,250.323c-3.776.171-9.711-.031-14.729-4.6-7.877-7.147-19.67-11.653-28.107-12.072-8.421-.5-14.481-.482-28.371,5-15.6,6.215-11.839,17.106-5.656,18.1,6.215.948,14.216-2.8,17.7-9.353,2.766-5.236,9.416-10.472,16.858-8.39,4.583,1.29,13.533,8.359,13.082,15.289-.218,3.139-13.393,1.694-31.68,14.325-13.378,9.26-8.9,24.362-.249,31.773,8.7,7.411,19.95,11.016,29.35,10.053,9.4-.932,21.814-5.8,20.882-8.732-.917-2.905-4.35-4.18-8.872-2.859-3.636,1.088-10.6,1.025-13.968-6.417-2.905-6.417,7.769-14.838,18.147-17.712,10.348-2.874,40.412-11.358,37.662-18.986-2.75-7.644-18.272-5.609-22.032-5.454" transform="translate(185.158 129.267)" fill="#fff"/>
    <path id="Path_43865" data-name="Path 43865" d="M416.116,220.379c-21.317-3.092-16.314,2.346-14.589,5.22-1.833.2-4.941-1.864-16.19-1.445-9.276.357-17.2,6.4-17.2,6.4-2.874,2.02-3.822,6.37-2.393,5.3,1.383-1.057,6.805-2.859,14.03-3.107,11.342-.4,13.175,5.593,29.054,5.158,11.855-.3,25.667-4.956,26.537-9.8.653-3.092-13.5-6.914-19.251-7.722" transform="translate(202.154 121.518)" fill="#fff"/>
    <path id="Path_43866" data-name="Path 43866" d="M355.184,87.712c1.725-2.362,3.667-4.4,5.469-6.572,1.057-1.2,2.113-2.517,3.092-3.807,1.072-1.336,2.439-2.253,3.558-3.511a50.345,50.345,0,0,1,6.712-5.811c2.035-1.585,4.832-2.548,7.147-3.574,2.874-1.336,5.64-1.725,8.53-.435a15.008,15.008,0,0,0,4.6.746c1.259.109,2.424.249,3.589.357a7.953,7.953,0,0,0,3.915-.746c2.564-1.041,5.112-2.89,7.4-.093a5.412,5.412,0,0,1,1.274,3.822c-.87-1.29-2.253-.513-3.4-.124-1.4.466-2.952.9-4.3,1.476-1.538.637-3.061,1.445-4.521,2.206a10.891,10.891,0,0,0-5.081,5.314c-.4.963-.668,1.585.3,1.849a6.068,6.068,0,0,0,2.564-.342c1.258-.311,2.533-.513,3.807-.746,2.595-.5,5.174-.466,7.753-1.258A43.748,43.748,0,0,1,417.1,74.21c1.523-.109,2.828-.451,4.335-.7,1.554-.28,2.937-1.057,4.444-1.476a5.167,5.167,0,0,1,3.387.233c2.719.963,4.506,2.874,6.9,4.335,1.352.839,2.253,2.362,3.667,3.045,2.874,1.367,6.044,3.185,7.893,5.842,2.051,2.952,4.894,5.3,6.821,8.359a50.039,50.039,0,0,1,4.583,9.338c.7,2.035,1.616,4.117,1.119,6.339-.311,1.134-.839.886-1.88.528a25.153,25.153,0,0,0-3.107-1.041,23.363,23.363,0,0,1-4.024-1.445,11.851,11.851,0,0,1-2.066-1.414c-1.414-.979-3.511-1.2-5.112-1.662a17.429,17.429,0,0,1-3.558-1.445,20.346,20.346,0,0,0-3.061-1.942,14.843,14.843,0,0,1-1.74-.528,17.152,17.152,0,0,0-1.725-1.088,39.918,39.918,0,0,1-5.609-2.362c-2.035-1.274-4.646-.87-6.805-1.818a4.042,4.042,0,0,0-2.766-.575,3.857,3.857,0,0,1-1.88.155c-.575-.14-.979-.559-1.6-.559-.482,0-.808.342-1.243.28-.544-.078-.73-.653-1.336-.575-.948.109-1.258,1.212-2.377,1.134-.388-.031-.854-.435-1.165-.419-.419,0-.761.435-1.1.544a10.721,10.721,0,0,1-2.983.249c-.792.031-1.647.2-2.439.2-.435,0-.932-.186-1.4-.155-.886.047-1.725.326-2.641.435-.994.124-2-.218-3.045-.171a13.249,13.249,0,0,0-3.931.963,22.391,22.391,0,0,1-3.045.963c-1.6.342-1.833.621-2.781,1.942a102.74,102.74,0,0,1-9.182,11.373,57.078,57.078,0,0,1-5.345,5.1c-1.585,1.274-3.636,1.989-5.1,3.4-1.29,1.212-2.579,2.393-3.915,3.527a70.03,70.03,0,0,1-9.8,7.287c-3,1.771-6.417,3.511-8.856,6.059-2.066,2.144-2.206,4.537-2.626,7.318-.357,2.47-2.952,3.853-4.055,5.935a31.02,31.02,0,0,1-4.615,7.085c-1.8,1.849-2.874,4.319-5.05,5.842-2.47,1.725-.2-1.429-.326-1.942-1.554,1.336-.5-1.445-.14-2.035a18.733,18.733,0,0,1,2.735-3.76,17.625,17.625,0,0,0,2.268-2.16,19.81,19.81,0,0,1,1.29-2.051c.777-.886,1.492-1.864,2.237-2.766.482-.575,1.258-1.29,1.181-2.066a21.719,21.719,0,0,0-3.418,1.989c-1.29.73-2.237,2.1-3.387,3.014-1.212.963-4.77,6.4-6.432,4.723-.373-.373.808-.855-.7-.606a15.293,15.293,0,0,1-1.818.7c-.792-.668,2.035-2.968,2.47-3.34-1.01-.14.062-1.29.171-1.849.186-1.243-.482-1.383-1.352-.621-1.321,1.134-3.247,3.092-4.91,3.651a5.947,5.947,0,0,1,.87-3.589,15.271,15.271,0,0,1,3.309-3.838,52.51,52.51,0,0,0,4.055-5.2c.823-1.025,1.662-2.051,2.455-3.107a10.371,10.371,0,0,0,1.336-2.812c.653-1.818,2.191-3.232,3.17-4.879a60.858,60.858,0,0,1,3.931-6.432,11.1,11.1,0,0,0,2.424-5.143c.062-.466.264-1.165-.186-1.523-.575-.513-.87.14-1.538,0-.59-.109-.715-.761-1.274-.839-.528-.093-.917.513-1.367.792-1.258.792-2.5,1.771-3.962,1.476-3.573-.684-5.873,1.989-7.427,5.065-1.833,3.636-4.335,6.774-6.479,10.223-2.641,4.179-5.9,7.8-8.685,11.87-2.61,3.853-4.583,8.157-6.961,12.166-1.274,2.129-2.362,4.848-5.05,4.879.575-3.185.746-6.712,2.47-9.571,2.237-3.776,5.189-7.085,7.271-10.938a43.473,43.473,0,0,0,3.931-9.136c.357-1.383,1.025-2.657,1.429-4.024a10.374,10.374,0,0,1,.948-2.5c.621-.886,1.259-1.088,1.647-2.066a14.238,14.238,0,0,1,2.843-4.413c.886-.932,1.74-1.864,2.564-2.828a20.3,20.3,0,0,0,2.113-3.651,24,24,0,0,1,2.766-3.263c.854-1.088,1.507-2.315,2.47-3.325a42.765,42.765,0,0,1,5.8-4.49c3.263-2.346,7.427-3.014,10.907-4.894,1.818-.994,3.651-2.082,5.453-3.076a23.9,23.9,0,0,0,6.836-6.728" transform="translate(163.772 34.769)" fill="#fff"/>
    <path id="Path_43867" data-name="Path 43867" d="M323.4,210.343v-.124c-.062-1.072-.932-2.16-1.4-3.139-.886-1.787-1.864-3.542-2.859-5.314a49.448,49.448,0,0,0-3.5-5.422c-1.414-1.849-3.372-3.387-3.309-5.873.047-5.422,6.961-5.314,10.969-6.448,2.7-.746,5.252-1.864,7.893-2.7,2.408-.808,10.425-3.48,7.955-7.209-1.476-2.191-6-1.585-8.281-1.4-1.492.124-4.63,1.1-4.817-1.088a2.833,2.833,0,0,1,1.725-2.766A18.091,18.091,0,0,1,334,167.134a42.693,42.693,0,0,0,6.541-1.74c3.822-1.119,6.743-.839,9.944,1.616,2.284,1.725,4.941,2.936,7.287,4.537,2.268,1.538,4.863.979,7.52,1.1a80.806,80.806,0,0,1,8.67.451,36.486,36.486,0,0,1,9.571,2.905c1.585.73,3.4.87,4.925,1.725.979.544,1.849,1.274,2.766,1.9,1.383.917,6.961,5.826,6.6,1.367-.264-3.931-5.422-3.527-7.955-5.065-2.237-1.367-2.843-4.661.233-5.1,4.024-.575,8.017,1.554,11.9,2.315a20.845,20.845,0,0,1,10.69,6.075c.963,1.025,2.61,2.16,2.7,3.682a3.818,3.818,0,0,1-1.725,3.139c-1.507,1.321-4.055,1.538-5.05,3.294a23.6,23.6,0,0,1-1.445,2.781c-.886,1.15-2.175,1.694-1.911,3.17.5,2.688-.5,5.593.264,8.141.715,2.455,4.459,2.066,6.65,1.973a47.166,47.166,0,0,1,4.956-.233,10.05,10.05,0,0,1,4.739,1.927c1.165,1.227.9,3.278,1.305,4.785a12.942,12.942,0,0,0,2.812,4.879c.994,1.165,2.626,2.983,1.958,4.444-.886,2-3.107,1.647-4.925,2.206-3.185.963-7.085,3.574-10.565,2.206-1.709-.684-3.061-2.035-4.754-2.828-2.781-1.336-7.178-2.828-10.363-1.709-1.072.373-1.958,1.134-3.03,1.554a8.969,8.969,0,0,0-3.185,1.445c-.823.823-1.165,1.973-2.284,2.735a22.869,22.869,0,0,1-4.4,2.113c-2.035.792-4.2,1.01-6.168,1.88-.684.3-2.113.87-2.424,1.631-.4.948.7,2.082.979,2.952.419,1.414.59,2.812.932,4.211.59,3.061.559,7.567-2.657,9.245-1.429.653-3.092,1.321-4.521,1.864-2,.917-4.086.653-6.137.746-1.818.078-3.138.948-4.925,1.383a18.864,18.864,0,0,1-5.78.73c-3.527.047-7.411.326-10.736-1.165-3.356-1.631-6.79-2.905-9.369-5.749a8.833,8.833,0,0,1-1.6-3.48c-.575-2.113,1.227-2.191,2.937-2.268,2.905-.124,5.78-1.2,8.685-1.227,4.381-.062,8.949,1.74,13.284.979,3.962-.777,1.476-5.05.031-6.992-1.662-2.517-5.236-3.449-8.064-4.506a104.791,104.791,0,0,1-10.348-4.615,9,9,0,0,0-2.408-1.088,10.628,10.628,0,0,0-2.346.528,56.655,56.655,0,0,1-5.842.528c-1.367.124-2.533.855-3.884,1.134a29.958,29.958,0,0,1-4.568.311c-6.168.2-9.882-4.04-11.855-9.182a12.7,12.7,0,0,0-1.088-2.533,18.218,18.218,0,0,0-2.486-2.408,4.149,4.149,0,0,1-.606-5.422c1.725-2.206,4.086.14,5.982.932,2.253.963,4.521,3.2,6.992,3.434,2.377.233,4.972-2.066,7.085-.761" transform="translate(167.621 91.235)" fill="#fff"/>
    <path id="Path_43868" data-name="Path 43868" d="M361.772,145.112s-12.445-8.235-29.878-2.346c-13.02,4.4-15.832,9.353-17,11.42-.761,1.352-1.942,4.04-3.9,4.817s-15.957-1.942-18.287-1.864c-2.331.093.761,1.958,2.377,4.009a36.543,36.543,0,0,1,2.517,3.636,7.338,7.338,0,0,1,.917,3.356c-.047,3.185-.031,9.12.715,9.571.994.59,6.557-7.194,8.079-8.608,1.771-1.647,2.672-3.838,5.22-4.055,2.564-.218,10.115,1.6,17.044-.435,6.93-2.02,1.771.668,1.771.668l.062.42,2.5.3a7,7,0,0,0,4.521-1.01c2.595-1.616,6.852-4.242,8.235-5,2.082-1.119,8.623-4.63,10.363-6.65A52,52,0,0,1,362,148.3c.994-.9,1.414-2.268-.233-3.139" transform="translate(161.613 77.878)" fill="#fff"/>
    <path id="Path_43869" data-name="Path 43869" d="M326.113,133.2a21.846,21.846,0,0,1,18.21-9.8c9.4-.109,12.538,2.937,13.828,4.211.839.839,2.331,2.595,3.776,2.657,1.445.078,9.54-5.78,11.016-6.339,1.492-.544.062,1.709-.4,3.713a32.9,32.9,0,0,0-.59,3.465,7.121,7.121,0,0,0,.342,2.828c.9,2.439,2.5,7.007,2.16,7.536-.466.73-6.091-3.76-7.442-4.459-1.554-.792-2.719-2.237-4.4-1.709-1.678.513-5.951,3.946-10.86,4.242-4.925.311-.932.979-.932.979l.078.326-1.507.9a4.057,4.057,0,0,1-3.123.435c-2.066-.544-5.469-1.414-6.557-1.631-1.616-.311-6.7-1.243-8.359-2.331a38.977,38.977,0,0,0-4.506-2.533,1.581,1.581,0,0,1-.715-2.486" transform="translate(180.383 68.329)" fill="#fff"/>
    <path id="Path_43870" data-name="Path 43870" d="M372.018,156.7a14.287,14.287,0,0,0-12.119-5.982c-6.153.155-8.11,2.206-8.934,3.076-.528.559-1.46,1.74-2.393,1.818-.948.078-6.355-3.542-7.349-3.884-.994-.326,0,1.119.357,2.408a19.551,19.551,0,0,1,.466,2.253,4.438,4.438,0,0,1-.155,1.849c-.528,1.616-1.476,4.63-1.227,4.972.326.466,3.884-2.61,4.754-3.076.994-.559,1.725-1.523,2.828-1.227s3.978,2.439,7.194,2.517.637.621.637.621l-.047.218.994.544a2.693,2.693,0,0,0,2.051.218c1.336-.4,3.542-1.057,4.242-1.227,1.041-.233,4.35-.963,5.391-1.725a24.236,24.236,0,0,1,2.89-1.771,1.019,1.019,0,0,0,.4-1.631" transform="translate(188.609 83.456)" fill="#fff"/>
    <path id="Path_43871" data-name="Path 43871" d="M50.558,336.859c-13.346,0-25.652-3.744-36.466-16.205C3.6,308.5,0,294.691,0,281.345c0-32.426,21.907-55.825,50.869-55.825,26.258,0,50.884,19.5,50.713,55.67-.155,30.313-18.458,55.67-51.024,55.67m.155-93.176c-18.147,0-30.313,14.7-30.313,36.761,0,23.865,13.207,38.128,30.764,38.128,13.207,0,30.158-9.6,30.608-35.13.451-20.711-10.208-39.744-31.059-39.744" transform="translate(0 124.875)" fill="#fff"/>
    <path id="Path_43872" data-name="Path 43872" d="M126.373,274.5a17.47,17.47,0,0,0-16.951-12.756c-10.348,0-18.614,8.25-18.614,23.259,0,13.517,7.054,23.414,18.909,23.414s15.755-8.685,18.008-14.7l15.459,8.095c-5.858,16.221-20.7,23.43-33.762,23.43-20.866,0-37.211-16.065-37.211-39.76s16.5-39.76,37.817-39.76c18.909,0,28.511,12.6,32.41,21.3l-16.065,7.5V274.5Z" transform="translate(39.984 136.066)" fill="#fff"/>
    <path id="Path_43873" data-name="Path 43873" d="M198.759,306.181c-9.307,12.445-21.3,19.064-36.606,19.064-19.654,0-38.563-12.445-38.563-40.07,0-25.232,16.205-39.464,37.367-39.464,19.81,0,28.06,11.855,29.567,14.108,6.153,8.7,7.5,21.752,7.644,29.256H142.654c2.113,11.87,9.462,18.614,21.317,18.614s17.246-7.194,19.5-10.348l15.3,8.856h-.016Zm-20.4-30.313c-1.647-11.7-8.856-15.755-16.811-15.755-9.6,0-16.221,5.547-18.3,15.755Z" transform="translate(68.434 136.055)" fill="#fff"/>
    <path id="Path_43874" data-name="Path 43874" d="M181.979,270.01c.3-3.744.606-6.9,3-11.249,7.194-13.051,25.061-13.051,29.862-13.051,7.194,0,15.91.9,22.513,4.8,8.856,5.407,9,12.445,9,20.556v39.76c0,5.7,0,7.66,3.294,12.15h-21.3c-.155-1.787-.451-4.785-.451-5.842a35.374,35.374,0,0,1-22.2,7.644c-16.967,0-27.159-10.5-27.159-23.414a22.823,22.823,0,0,1,2.393-10.208c5.407-10.8,16.967-13.207,24.16-14.558,15.459-3.154,16.656-3.449,23.259-5.547,0-3.76-.3-11.4-12.772-11.4-7.489,0-11.544,2.408-13.362,4.8-1.942,2.393-1.8,4.521-1.8,6.6l-18.458-1.057h.031Zm46.378,15.615c-3.6,1.8-7.66,3.138-15.755,4.506-6.463.9-15.009,2.393-15.009,10.348,0,5.842,4.941,8.856,12.15,8.856,9.151,0,15.615-4.2,17.573-8.7a15.167,15.167,0,0,0,1.057-6.759v-8.25h0Z" transform="translate(98.855 136.055)" fill="#fff"/>
    <path id="Path_43875" data-name="Path 43875" d="M233.766,247.947h18.147V256.8a20.9,20.9,0,0,1,5.857-5.842c4.506-3.309,11.4-5.252,17.246-5.252,8.561,0,15.91,3.884,19.654,9,4.646,6.293,4.646,14.4,4.646,24.16v44.11H281.465V284.724c0-5.562,0-9.307-.606-11.4-1.647-6.588-6.448-10.037-12.305-10.037a15.726,15.726,0,0,0-13.8,8.406c-2.859,5.547-2.859,13.191-2.859,18.753v32.55H233.75V247.963h.016Z" transform="translate(129.431 136.055)" fill="#fff"/>
    <path id="Path_43876" data-name="Path 43876" d="M208.179,408.494a55.712,55.712,0,0,1-9.151,15.895c-7.5,8.732-19.359,16.376-36.606,16.376-28.06,0-49.532-20.571-49.532-55.98s23.259-55.374,50.278-55.374c33.016,0,40.816,25.372,43.224,32.721l-19.81,5.267a26.782,26.782,0,0,0-3.9-10.519c-2.253-3.294-8.11-9.307-19.064-9.307-17.246,0-29.256,14.263-29.256,36.916,0,24.16,12.756,37.522,29.412,37.522,9.9,0,15.91-4.8,20.276-10.363a34.764,34.764,0,0,0,5.547-10.954l18.614,7.815h-.031Z" transform="translate(62.509 182.401)" fill="#fff"/>
    <path id="Path_43877" data-name="Path 43877" d="M218.734,429.125c-23.414,0-39.014-17.106-39.014-40.086s15.926-39.449,38.268-39.449c20.866,0,38.719,14.543,38.858,39.449,0,23.414-15.459,40.086-38.113,40.086m-.9-63.314c-11.249,0-19.359,8.98-19.359,22.793,0,15.459,9.462,24.02,20.26,24.02,13.051,0,19.654-11.4,19.219-23.865-.311-12.445-7.5-22.948-20.121-22.948" transform="translate(99.514 193.575)" fill="#fff"/>
    <path id="Path_43878" data-name="Path 43878" d="M236.56,351.837h18.163v8.856a20.872,20.872,0,0,1,5.857-5.857c4.506-3.294,11.4-5.236,17.246-5.236,8.561,0,15.91,3.9,19.654,9,4.646,6.308,4.646,14.419,4.646,24.16v44.125H284.275V388.6c0-5.531,0-9.291-.606-11.389-1.647-6.6-6.448-10.068-12.305-10.068a15.726,15.726,0,0,0-13.8,8.406c-2.843,5.562-2.843,13.222-2.843,18.769V426.9H236.56V351.853h0Z" transform="translate(130.987 193.581)" fill="#fff"/>
    <path id="Path_43879" data-name="Path 43879" d="M299.753,404.664c4.506,5.547,11.249,9.6,21.6,9.6s14.854-5.1,14.854-8.856c0-4.8-5.407-6-7.815-6.432-2.548-.606-14.854-2.859-17.557-3.6-17.852-4.211-21.162-14.558-21.162-21.333,0-12.74,11.56-24.44,32.115-24.44,11.4,0,19.654,3.589,24.751,7.194a32.487,32.487,0,0,1,7.644,6.759l-12.756,11.87c-2.1-4.071-7.194-11.4-20.4-11.4-8.561,0-12.461,3.76-12.461,7.644,0,5.407,5.562,6.9,15.164,8.545,15.6,2.859,19.95,3.62,24.751,7.349a20.427,20.427,0,0,1,7.66,15.926c0,11.684-10.5,25.652-33.762,25.652-13.362,0-26.553-4.211-36.015-13.346l13.362-11.125h.031Z" transform="translate(158.562 193.58)" fill="#fff"/>
    <path id="Path_43880" data-name="Path 43880" d="M413.254,410.061c-9.291,12.445-21.3,19.064-36.606,19.064-19.654,0-38.579-12.461-38.579-40.086,0-25.2,16.205-39.449,37.367-39.449,19.81,0,28.06,11.855,29.552,14.092,6.153,8.716,7.5,21.768,7.66,29.272h-55.53c2.1,11.855,9.462,18.6,21.317,18.6s17.246-7.209,19.5-10.348l15.32,8.856h0Zm-20.385-30.3c-1.662-11.7-8.856-15.755-16.811-15.755-9.6,0-16.221,5.547-18.318,15.755Z" transform="translate(187.195 193.575)" fill="#fff"/>
    <path id="Path_43881" data-name="Path 43881" d="M412.167,351.638v10.643c2.237-3.884,7.194-12.74,24-12.305v18.458c-3.9.171-10.658.311-16.19,4.506-7.675,5.842-7.815,13.517-7.815,25.963v27.78H394.75V351.638Z" transform="translate(218.579 193.78)" fill="#fff"/>
    <path id="Path_43882" data-name="Path 43882" d="M495.18,351.04l-24.6,75.044H451.226L426.91,351.04h18.6l15.615,51.63,15.32-51.63Z" transform="translate(236.387 194.378)" fill="#fff"/>
    <path id="Path_43883" data-name="Path 43883" d="M478.349,373.916c.3-3.76.59-6.93,3-11.264,7.194-13.051,25.077-13.051,29.847-13.051,7.209,0,15.926.9,22.529,4.8,8.856,5.391,8.981,12.445,8.981,20.556v39.775c0,5.687,0,7.644,3.309,12.15H524.7c-.155-1.8-.451-4.817-.451-5.857a35.336,35.336,0,0,1-22.2,7.644c-16.967,0-27.143-10.5-27.143-23.414a22.923,22.923,0,0,1,2.393-10.208c5.407-10.8,16.967-13.207,24.176-14.558,15.444-3.138,16.64-3.449,23.244-5.547,0-3.744-.3-11.4-12.756-11.4-7.489,0-11.544,2.393-13.362,4.8-1.958,2.408-1.787,4.506-1.787,6.6L478.349,373.9h0ZM524.712,389.5c-3.6,1.787-7.66,3.154-15.755,4.49-6.448.917-15.009,2.408-15.009,10.348,0,5.857,4.941,8.856,12.15,8.856,9.167,0,15.615-4.2,17.572-8.685a15.305,15.305,0,0,0,1.041-6.759V389.5h0Z" transform="translate(262.959 193.58)" fill="#fff"/>
    <path id="Path_43884" data-name="Path 43884" d="M528.886,351.837h18.132v8.856a21.32,21.32,0,0,1,5.858-5.857c4.506-3.294,11.4-5.236,17.246-5.236,8.561,0,15.926,3.9,19.67,9,4.646,6.308,4.646,14.419,4.646,24.16v44.125H576.585V388.6c0-5.531,0-9.291-.606-11.389-1.647-6.6-6.448-10.068-12.305-10.068a15.708,15.708,0,0,0-13.8,8.406C547,381.109,547,388.769,547,394.316V426.9H528.87V351.853h.016Z" transform="translate(292.843 193.581)" fill="#fff"/>
    <path id="Path_43885" data-name="Path 43885" d="M632.468,378.395a17.487,17.487,0,0,0-16.951-12.756c-10.363,0-18.629,8.266-18.629,23.259,0,13.517,7.069,23.43,18.924,23.43s15.755-8.732,17.992-14.714l15.459,8.11c-5.858,16.221-20.7,23.414-33.762,23.414-20.866,0-37.211-16.05-37.211-39.76s16.5-39.76,37.8-39.76c18.909,0,28.526,12.6,32.426,21.3l-16.065,7.5v-.031Z" transform="translate(320.208 193.592)" fill="#fff"/>
    <path id="Path_43886" data-name="Path 43886" d="M695.211,351.04l-19.064,65.443-4.2,14.092c-5.112,15.755-10.643,21.317-24.611,21.317a60.509,60.509,0,0,1-10.8-.9V435.236a25.342,25.342,0,0,0,4.817.451c1.336,0,5.252,0,8.095-1.958,2.1-1.367,4.2-4.661,4.2-6.153L626.49,351.04h19.375L662.52,407l14.263-55.965h18.427Z" transform="translate(346.897 194.378)" fill="#fff"/>
    <path id="Path_43887" data-name="Path 43887" d="M697.13,349.114a16.406,16.406,0,1,0,0-.016m-.109,34.663a18.466,18.466,0,1,1,18.52-18.365,18.3,18.3,0,0,1-18.52,18.365" transform="translate(375.757 192.047)" fill="#fff"/>
    <path id="Path_43888" data-name="Path 43888" d="M689.693,360.595h3.263c1.585,0,4.739.047,4.739-3.061a2.761,2.761,0,0,0-1.569-2.61c-.792-.357-1.29-.357-3.9-.357h-2.517v6.028h0Zm3.2-9.089a15.213,15.213,0,0,1,5.174.544,5.364,5.364,0,0,1,3.558,5.127c0,2.812-1.725,4.537-4.537,5.283,1.771.792,2.657,1.631,3.154,4.63.5,3.356.7,4.6,1.678,6.557h-4.49a10.119,10.119,0,0,1-.886-3.061c-.109-.5-.435-2.859-.544-3.4-.59-3.154-2.129-3.4-4.987-3.449h-1.367v9.9H685.7V351.49h7.194Z" transform="translate(379.682 194.627)" fill="#fff"/>
  </g>
</svg>
