<svg xmlns="http://www.w3.org/2000/svg" width="846.637" height="97.831" viewBox="0 0 846.637 97.831">
  <g id="logo_en_full" transform="translate(-1 63.312)">
    <path id="Path_43916" data-name="Path 43916" d="M14.26-62.825C7.24-61.733,1-58.769,1-56.585c0,.78,2.34,2.5,5.148,3.588,9.36,3.9,9.984,6.4,4.992,16.38C5.836-25.853,4.276-10.253,7.24.667L9.424,7.843l2.028-9.984c2.964-15.288,9.2-25.9,19.968-34.632,5.3-4.212,12.636-8.424,17-9.672,9.516-2.808,27.768-2.964,35.568-.156,5.46,1.872,5.616,1.872,3.9-.936-3.744-5.928-17.628-11.076-33.7-12.324-8.268-.624-16.38-1.56-18.1-2.028A68.185,68.185,0,0,0,14.26-62.825Z" fill="#fff"/>
    <path id="Path_43917" data-name="Path 43917" d="M94.108-51.214c-8.424,3.9-16.848,11.544-20.592,18.876-3.432,6.4-4.524,25.584-2.028,34.32s12.636,20.592,21.06,24.336c13.26,6.084,37.128,2.808,44.928-6.084,2.5-2.652,2.652-3.588.78-6.4-2.808-4.68-8.424-5.772-14.664-2.652-17,8.112-33.54-3.276-33.7-23.088-.156-20.124,14.04-31.668,31.668-25.428,4.056,1.56,8.736,2.652,10.452,2.652,3.744,0,10.452-8.424,8.736-11.076-.468-.936-4.68-3.432-9.048-5.46C120.629-56.362,105.028-56.362,94.108-51.214Z" transform="translate(38.712 4.613)" fill="#fff"/>
    <path id="Path_43918" data-name="Path 43918" d="M121-12.66V28.68h54.6V24.312c0-7.8-3.9-9.672-19.968-9.672H141.28V-5.64H167.8V-19.68H141.28V-39.96h14.664c13.572,0,14.976-.312,17.16-3.432a14.205,14.205,0,0,0,2.5-7.02V-54H121Z" transform="translate(67.201 5.215)" fill="#fff"/>
    <path id="Path_43919" data-name="Path 43919" d="M179.948-25.608c-5.928,15.444-13.1,34.164-15.756,41.34L159.2,28.68h9.2c10.14,0,11.7-1.4,15.444-12.948L185.72,9.8l15.756.468,15.6.468,2.5,7.02a86.191,86.191,0,0,0,3.744,9.048c1.248,1.872,19.812,2.808,19.812.936a70.963,70.963,0,0,0-3.12-8.112c-3.432-8.424-11.544-29.484-20.436-53.2-3.432-8.892-6.864-17.16-7.8-18.408C210.68-53.22,206.624-54,200.384-54h-9.516Zm31.98,21.84c0,1.4-19.344,1.716-20.592.312-.78-.624,5.3-21.06,9.048-30.264C201.164-35.748,211.928-7.824,211.928-3.768Z" transform="translate(88.593 5.215)" fill="#fff"/>
    <path id="Path_43920" data-name="Path 43920" d="M217-12.659v41.34h7.8c10.764,0,11.232-1.56,10.608-28.86-.312-16.848,0-22,1.248-20.592,1.092,1.092,10.3,12.636,20.748,25.584L276.28,28.681h14.04V-54h-7.8c-9.672,0-9.672,0-9.048,28.548.312,11.7,0,21.372-.468,21.372s-8.112-9.36-17-20.748C232.756-54.624,233.38-54,224.488-54H217Z" transform="translate(120.962 5.215)" fill="#fff"/>
    <path id="Path_43921" data-name="Path 43921" d="M294.963-39.592c-4.212,11.232-18.876,48.828-25.74,66.456-.468,1.56,1.56,1.872,9.2,1.56l9.984-.468,3.432-8.58,3.432-8.58H327.1l2.5,7.332c1.4,4.056,3.276,8.112,4.212,9.048s5.46,1.56,10.3,1.248l8.58-.468L343.635,4.244c-4.992-13.1-12.012-31.356-15.756-40.56l-6.708-16.848-10.3-.468-10.14-.468Zm22,21.06c2.5,7.8,4.368,14.664,3.744,15.132-1.4,1.4-18.72,1.092-19.656-.312-1.092-1.872,8.892-31.668,10.14-30.264C311.655-33.352,314.307-26.488,316.959-18.532Z" transform="translate(150.171 5.159)" fill="#fff"/>
    <path id="Path_43922" data-name="Path 43922" d="M336-38.4c0,8.736.624,15.6,1.4,15.6.936,0,1.716-2.652,2.028-5.928.468-5.616.624-5.772,7.02-6.24,4.68-.312,7.332-1.56,9.048-3.9,3.276-4.68,2.964-6.864-1.56-11.232-2.808-2.964-5.46-3.9-10.92-3.9H336Zm15.6-10.14c3.12,3.744.624,9.828-4.68,10.92-2.5.624-5.3.624-6.24,0-1.716-1.092-2.184-10.608-.468-12.168C342.084-51.816,349.572-50.88,351.6-48.54Z" transform="translate(187.603 5.215)" fill="#fff"/>
    <path id="Path_43923" data-name="Path 43923" d="M432-51.66a2.4,2.4,0,0,0,2.34,2.34,2.4,2.4,0,0,0,2.34-2.34A2.4,2.4,0,0,0,434.34-54,2.4,2.4,0,0,0,432-51.66Z" transform="translate(241.364 5.215)" fill="#fff"/>
    <path id="Path_43924" data-name="Path 43924" d="M487-38.4c0,12.636.468,15.6,2.34,15.6,1.56,0,2.34-2.34,2.652-9.048.468-8.268.78-8.892,4.368-8.892s3.9.624,4.368,8.892c.312,6.708,1.092,9.048,2.652,9.048,1.716,0,2.34-2.028,2.34-8.268,0-10.608-1.4-12.48-8.424-11.7-5.616.624-5.616.624-5.616-5.3,0-4.212-.624-5.928-2.34-5.928C487.468-54,487-51.192,487-38.4Z" transform="translate(272.164 5.215)" fill="#fff"/>
    <path id="Path_43925" data-name="Path 43925" d="M383.464-48.88a6.01,6.01,0,0,1-2.652,4.524c-1.56.936-1.872,1.716-.78,1.716s1.872,2.184,1.872,5.772c0,10.3,1.4,12.948,6.4,12.948,2.5,0,4.524-.78,4.524-1.56,0-.936-1.4-1.56-3.12-1.56-2.652,0-3.12-1.092-3.12-7.644,0-6.708.468-7.8,3.588-8.424l3.432-.624-3.432-.312c-2.652-.156-3.588-1.092-3.588-4.056,0-2.184-.624-3.9-1.56-3.9C384.244-52,383.464-50.6,383.464-48.88Z" transform="translate(211.899 6.335)" fill="#fff"/>
    <path id="Path_43926" data-name="Path 43926" d="M424.424-50.128c0,.936-1.092,3.12-2.652,4.68-1.4,1.56-1.716,2.808-.78,2.808s1.872,3.744,2.184,8.892c.468,8.58.624,9.048,4.836,9.516,2.34.312,4.212-.156,4.212-1.092s-1.092-1.716-2.34-1.716c-3.588,0-3.276-15.132.468-16.068,2.5-.624,2.5-.78,0-.936-1.872-.156-2.808-1.4-2.808-4.056,0-2.184-.624-3.9-1.56-3.9A1.756,1.756,0,0,0,424.424-50.128Z" transform="translate(234.899 6.335)" fill="#fff"/>
    <path id="Path_43927" data-name="Path 43927" d="M479.424-50.128c0,.936-1.092,3.12-2.652,4.68-1.4,1.56-1.716,2.808-.78,2.808s1.872,3.744,2.184,8.892c.468,8.58.624,9.048,4.836,9.516,2.34.312,4.212-.156,4.212-1.092s-1.092-1.716-2.34-1.716c-3.588,0-3.276-15.132.468-16.068,2.5-.624,2.5-.78,0-.936-1.872-.156-2.808-1.4-2.808-4.056,0-2.184-.624-3.9-1.56-3.9A1.756,1.756,0,0,0,479.424-50.128Z" transform="translate(265.7 6.335)" fill="#fff"/>
    <path id="Path_43928" data-name="Path 43928" d="M66.669-45.008c6.708,6.864,8.58,12.48,8.736,24.96,0,14.2-4.836,23.712-14.352,28.86-7.488,3.9-17.316,4.68-24.648,1.872C26.421,6.94,18.933-4.916,18.777-17.24l-.156-7.02-3.276,6.24C10.821-9.6,9.573,9.28,13,14.584c1.4,2.028,6.552,5.772,11.544,8.112,7.8,3.9,10.92,4.368,23.088,4.368,12.48,0,15.132-.468,23.088-4.524,18.408-9.2,27.768-28.86,24.336-50.7-2.028-12.948-7.8-17.316-27.924-20.9L61.833-50Z" transform="translate(5.623 7.455)" fill="#fff"/>
    <path id="Path_43929" data-name="Path 43929" d="M354-37.6c0,13.1,2.652,15.6,3.432,3.12.468-7.02.936-8.112,4.056-8.58,1.872-.312,3.432-1.56,3.432-2.808,0-2.652-.78-2.652-4.68-.312-2.652,1.716-3.432,1.56-4.68-.312C354.468-48.055,354-45.247,354-37.6Z" transform="translate(197.683 8.63)" fill="#fff"/>
    <path id="Path_43930" data-name="Path 43930" d="M366.784-44.216c-3.432,3.276-4.056,4.992-3.276,9.048,1.248,6.24,4.68,8.892,11.232,8.892,5.928,0,9.984-4.524,9.984-10.92,0-5.616-2.964-9.2-8.892-10.3C371.776-48.272,370.06-47.648,366.784-44.216Zm12.168,2.34c4.68,6.708-1.4,16.068-8.268,12.48C367.1-31.268,366.316-40,369.436-43.124,372.244-45.932,376.456-45.308,378.952-41.876Z" transform="translate(202.839 8.691)" fill="#fff"/>
    <path id="Path_43931" data-name="Path 43931" d="M394.836-44.158c-4.368,4.212-4.68,6.552-2.028,12.48,2.652,5.772,14.82,7.8,16.536,2.652.468-1.4-.468-1.56-3.588-.312-5.148,1.872-10.14-.312-10.14-4.68,0-2.652,1.092-3.12,7.8-3.12,8.736,0,10.14-2.34,4.68-7.8C403.884-49.15,399.36-48.838,394.836-44.158Zm11.7-.156a24.4,24.4,0,0,0,.936,3.12c.78,2.028-.312,2.5-5.46,2.5-6.084,0-8.268-2.184-5.3-5.148C397.8-45.094,406.536-45.406,406.536-44.314Z" transform="translate(218.468 8.633)" fill="#fff"/>
    <path id="Path_43932" data-name="Path 43932" d="M410.9-45.7c-6.708,4.68-5.616,17,1.872,18.876,4.836,1.248,12.168-.468,10.92-2.5-.624-1.092-2.184-.936-4.056.156-6.708,3.432-12.792-9.2-6.864-14.2,1.248-1.092,4.056-1.56,6.24-1.248,4.368.936,5.3-.936,1.4-2.5C416.668-48.505,414.484-48.193,410.9-45.7Z" transform="translate(227.056 8.612)" fill="#fff"/>
    <path id="Path_43933" data-name="Path 43933" d="M440.092-46.993c-.624.468-1.092,5.46-1.092,10.92,0,7.488.468,9.828,2.34,9.828,1.56,0,2.34-2.34,2.652-9.048.468-7.956.78-8.892,4.212-9.36,4.836-.78,6.4,1.872,6.4,10.92,0,4.212.78,7.488,1.56,7.488.936,0,1.56-4.056,1.56-9.2,0-11.388-2.5-14.2-9.828-11.388-3.12,1.248-5.148,1.248-5.772.312S440.716-47.617,440.092-46.993Z" transform="translate(245.284 8.66)" fill="#fff"/>
    <path id="Path_43934" data-name="Path 43934" d="M458.35-46.653c-3.276,2.028-3.744,8.736-.78,9.828,1.4.468,1.4,1.092-.156,3.12-1.248,1.4-1.716,3.276-1.092,4.368a2.4,2.4,0,0,1-.936,3.12c-1.716.936-1.716,2.028-.468,4.056,2.5,4.056,14.352,3.9,17.16-.312,2.964-4.368.624-7.176-7.02-8.112-7.488-1.092-7.8-4.056-.468-4.836,3.9-.468,5.148-1.4,6.084-4.68.468-2.34,1.716-4.68,2.652-5.3,1.092-.78.78-1.248-.78-1.248a47.628,47.628,0,0,1-7.02-.78A12.918,12.918,0,0,0,458.35-46.653Zm8.892,5.46c0,2.184-1.248,3.276-4.212,3.588-3.744.468-4.368,0-4.368-3.588s.624-4.056,4.368-3.588C465.994-44.469,467.242-43.377,467.242-41.193Zm1.56,17.16c0,2.34-1.248,3.276-4.524,3.588-5.148.624-7.956-1.56-6.552-5.148C459.13-29.493,468.8-28.089,468.8-24.033Z" transform="translate(253.702 8.788)" fill="#fff"/>
    <path id="Path_43935" data-name="Path 43935" d="M505.473-44.008c-3.12,3.12-3.744,4.836-2.964,8.892.468,2.808,2.184,5.928,3.744,7.02,3.276,2.5,13.1,1.872,14.04-.936.468-1.4-.468-1.56-3.588-.312-5.148,1.872-10.14-.312-10.14-4.68,0-2.652,1.092-3.12,7.8-3.12,8.736,0,10.14-2.34,4.68-7.8Q512.727-51.262,505.473-44.008Zm12.012-.312a24.386,24.386,0,0,0,.936,3.12c.78,2.028-.312,2.5-5.46,2.5-6.084,0-8.268-2.184-5.3-5.148C508.749-45.1,517.485-45.412,517.485-44.32Z" transform="translate(280.679 8.639)" fill="#fff"/>
    <path id="Path_43936" data-name="Path 43936" d="M432-36.86c0,7.956.468,10.14,2.34,10.14s2.34-2.184,2.34-10.14S436.212-47,434.34-47,432-44.816,432-36.86Z" transform="translate(241.364 9.135)" fill="#fff"/>
    <path id="Path_43937" data-name="Path 43937" d="M403.839-5.62c-.312,12.324,0,16.38,1.56,16.38,1.4,0,1.872-4.368,1.872-16.38,0-9.2-.624-16.38-1.4-16.38C404.931-22,404.151-14.668,403.839-5.62Z" transform="translate(225.532 23.135)" fill="#fff"/>
    <path id="Path_43938" data-name="Path 43938" d="M426.124-20.414c-.624.936-.78,3.432-.468,5.772.468,3.9,0,4.212-5.772,4.212-4.836.156-6.552.936-8.112,4.056-2.184,4.212-1.56,11.544,1.248,15.132,2.184,2.5,7.956,2.652,10.608,0,1.716-1.4,2.184-1.4,2.808,0,2.184,5.928,3.588.156,3.588-14.352C430.024-20.57,428.932-24.782,426.124-20.414ZM422.848-8.558c3.588,1.4,3.432,14.04-.156,16.068a5.659,5.659,0,0,1-5.46,0c-3.9-2.028-3.9-13.1,0-15.288C420.508-9.806,419.884-9.65,422.848-8.558Z" transform="translate(229.3 23.109)" fill="#fff"/>
    <path id="Path_43939" data-name="Path 43939" d="M427.5-17.322c0,2.5.468,4.68,1.092,4.68,1.56,0,3.12-5.928,2.028-7.8C428.748-23.406,427.5-22,427.5-17.322Z" transform="translate(238.843 23.137)" fill="#fff"/>
    <path id="Path_43940" data-name="Path 43940" d="M345-20.628c1.4,7.956,9.36,30.264,11.076,30.576,1.56.312,3.276-3.432,5.928-12.168,2.028-6.864,4.212-12.168,4.68-11.7.624.312,2.808,5.928,4.836,12.324,2.028,6.708,4.524,11.856,5.616,11.856,1.248,0,3.744-5.616,6.084-13.728,2.34-7.488,4.368-14.508,4.68-15.6.468-.936-.312-1.872-1.56-1.872-2.184,0-7.02,13.1-7.02,19.188,0,6.24-4.056,1.248-7.02-8.736-2.808-9.672-6.24-13.26-7.8-8.58-.312,1.092-2.184,6.552-4.056,12.012l-3.588,9.984L353.268-8.928c-2.5-7.956-4.524-12.012-5.928-12.012A5.025,5.025,0,0,0,345-20.628Z" transform="translate(192.643 23.635)" fill="#fff"/>
    <path id="Path_43941" data-name="Path 43941" d="M454.4-17.841c-3.276,2.5-3.9,4.212-3.9,11.7s.624,9.36,3.744,11.856c14.82,12.012,33.228-3.276,24.336-20.28C474.992-21.585,461.576-23.3,454.4-17.841Zm18.72,3.12c4.836,4.836,4.212,14.508-.936,18.564-5.3,4.056-8.424,4.056-13.728,0-8.424-6.708-3.744-21.684,6.864-21.684A12.48,12.48,0,0,1,473.12-14.721Z" transform="translate(251.724 23.657)" fill="#fff"/>
    <path id="Path_43942" data-name="Path 43942" d="M377.358-13.211c-5.3,6.552-3.12,17.628,3.9,19.5,9.2,2.184,17.316-8.268,12.636-16.38-1.716-3.276-3.588-4.368-8.58-4.68C381.414-15.083,378.294-14.459,377.358-13.211Zm11.7,1.56c1.092,1.092,1.872,4.056,1.872,6.708,0,5.616-2.34,8.58-7.176,8.58-3.744,0-5.3-2.652-5.3-9.2,0-4.68,2.5-7.956,6.24-7.956A6.89,6.89,0,0,1,389.058-11.651Z" transform="translate(209.113 27.139)" fill="#fff"/>
    <path id="Path_43943" data-name="Path 43943" d="M391.5-4.049c0,7.488.624,10.92,1.872,10.92,1.092,0,2.028-3.12,2.34-8.112.312-6.864,1.092-8.58,4.056-9.828,1.872-.78,3.432-2.028,3.432-2.652,0-1.872-3.9-1.4-6.084.624-1.716,1.56-2.184,1.56-2.808,0C392.592-17.621,391.5-14.189,391.5-4.049Z" transform="translate(218.683 27.024)" fill="#fff"/>
    <path id="Path_43944" data-name="Path 43944" d="M434.092-13.932c-.624.468-1.092,2.652-1.092,4.68,0,2.652,1.4,4.212,5.46,5.772,5.772,2.5,7.176,6.24,2.964,7.8a8.65,8.65,0,0,1-5.46-.624C433.936,2.6,433,2.6,433,3.54c0,3.12,7.644,3.744,11.856.936C450,1.2,449.068-2.7,442.36-5.82c-7.02-3.432-7.176-7.02-.468-6.708,2.808.156,4.68-.312,4.212-1.092C445.168-15.18,435.652-15.492,434.092-13.932Z" transform="translate(241.924 27.079)" fill="#fff"/>
    <path id="Path_43945" data-name="Path 43945" d="M475.6-12.5c-2.964,3.588-2.5,12.48.936,16.224,2.808,3.12,6.4,3.9,10.764,2.184,3.9-1.56,2.964-3.432-1.4-2.5-5.3.936-8.58-2.184-8.58-8.268,0-6.24,3.276-9.2,8.736-7.956,2.652.78,3.588.468,2.964-.624C487.459-15.935,477.943-15.311,475.6-12.5Z" transform="translate(264.685 27.054)" fill="#fff"/>
    <path id="Path_43946" data-name="Path 43946" d="M489.652-12.22C488.092-10.66,487-7.072,487-4.42c0,9.048,9.36,14.2,16.38,9.2,2.5-1.872,2.028-2.184-4.056-2.028-5.928.156-6.864-.312-7.332-3.432s.156-3.432,6.552-3.432S505.72-4.42,505.72-7.7a8.523,8.523,0,0,0-1.872-5.46C501.04-15.964,492.46-15.34,489.652-12.22Zm12.636,2.184c.468,2.34-.624,2.808-4.992,2.808-5.3,0-7.332-2.34-4.524-5.3C494.8-14.56,501.82-12.688,502.288-10.036Z" transform="translate(272.164 27.083)" fill="#fff"/>
    <path id="Path_43947" data-name="Path 43947" d="M505.254-13.44c-.624.936.78,1.092,3.744.624,3.588-.78,4.836-.312,6.4,2.34,1.248,2.652,1.248,3.432-.312,3.9-10.3,2.652-11.388,3.432-11.856,7.644-.624,5.148,2.808,7.02,8.736,4.368,2.808-1.4,4.368-1.4,4.68-.312,1.4,4.368,3.432.936,3.432-6.24C520.074-11.88,518.2-15,511.494-15,508.686-15,505.722-14.376,505.254-13.44ZM516.486-1.428c.78,2.34-6.552,7.332-8.892,5.928-2.184-1.4-2.028-6.552.468-7.644C511.026-4.392,515.862-3.456,516.486-1.428Z" transform="translate(281.21 27.055)" fill="#fff"/>
    <path id="Path_43948" data-name="Path 43948" d="M519-4.048c0,6.084.624,10.608,1.56,10.608s1.56-3.744,1.56-8.424c0-9.36,2.964-13.728,7.488-10.764,1.872,1.092,2.808,4.212,3.12,10.452.312,4.836,1.092,8.736,2.028,8.736s1.4-4.212,1.092-10.608L535.38-14.5H519Z" transform="translate(290.084 27.335)" fill="#fff"/>
    <path id="Path_43949" data-name="Path 43949" d="M535.116-13.932c-2.184,2.028-1.092,8.424,1.716,9.2,4.992,1.56,7.332,3.276,7.8,5.616.624,3.12-3.9,4.836-7.644,2.808-1.872-1.092-2.964-1.092-2.964-.156,0,2.184,5.616,3.588,9.36,2.5,3.588-1.092,6.864-6.4,5.46-8.58-.624-.936-3.432-2.652-6.552-3.9-6.552-2.808-6.084-6.4.936-6.084,2.652.156,4.836-.312,4.836-1.092C548.064-15.18,536.676-15.492,535.116-13.932Z" transform="translate(298.461 27.079)" fill="#fff"/>
  </g>
</svg>
