<?xml version="1.0" encoding="UTF-8"?>
<!-- Generator: Adobe Illustrator 16.0.0, SVG Export Plug-In . SVG Version: 6.00 Build 0)  -->
<!DOCTYPE svg PUBLIC "-//W3C//DTD SVG 1.1//EN" "http://www.w3.org/Graphics/SVG/1.1/DTD/svg11.dtd">
<svg version="1.1" id="Layer_1" xmlns="http://www.w3.org/2000/svg" xmlns:xlink="http://www.w3.org/1999/xlink" x="0px" y="0px" width="77px" height="76px" viewBox="36.5 36.5 77 76" enable-background="new 36.5 36.5 77 76" xml:space="preserve"><script xmlns="" src="moz-extension://1459541d-fbb8-4f23-8b4d-72415962be0f/js/elephant.js"/>
<g id="Layer_2" display="none">
	<circle display="inline" fill="#65BEDB" cx="74.25" cy="73.75" r="73.5"/>
	<path display="inline" fill="#FFFFFF" d="M137.75,94.25c0,0-2-3.25-25.75-8.5c0,0,8.25-4.75,7-17c0,0,11.5,1.5,10.5-4.75   c0,0-4.75-12.25-15.75-12.75c0,0-9.25-17.25-17.5-15.5c0,0-2.75,2,11.5,19.5c0,0-3,2-4.5,6.25c0,0-29.25-8-52.75-2.75   c0,0-6-6.5-10.5,1.5c0,0-2.5,6,4,8.75c0,0-1.25,2.75-2.25,9.5c0,0-4.5,1-8.5,6.25c0,0-6.25-1.5-8.5-1c0,0-6.5,4.5-13,16   c0,0,0.25,3.25,2.25,3c0,0,1,2.25,12.25-10.25c0,0,5.25,0.5,8.25-1c0,0,48.25-9.75,75.25,4.5c0,0,17,0.5,23.25,4.25   C132.75,99.75,140.25,101.75,137.75,94.25L137.75,94.25z M118.25,57.75c1,0,1.75,0.75,1.75,1.75s-0.75,1.75-1.75,1.75   s-1.75-0.75-1.75-1.75C116.75,58.5,117.5,57.75,118.25,57.75z"/>
</g>
<g>
	<polygon fill="#65BEDB" points="99,70.375 99,63.875 96,70.375  "/>
	<path fill="#65BEDB" d="M89.625,90.125c0.375,0,0.625-0.25,0.625-0.625s-0.25-0.625-0.625-0.625S89,89.125,89,89.5   S89.25,90.125,89.625,90.125z"/>
	<path fill="#65BEDB" d="M74.5,38.25c-20.296,0-36.75,16.454-36.75,36.75c0,20.297,16.454,36.75,36.75,36.75   c20.297,0,36.75-16.453,36.75-36.75C111.25,54.704,94.797,38.25,74.5,38.25z M76.75,60.875c0-0.125,1.375-4.875,1.375-4.875   l15-0.125L91.75,60.75l-4.875,0.125l-5,17.75h-5.5l4.875-17.75H76.75z M73.75,56.25c0.75,0.25,1.375,0.75,1.75,1.375   C76.375,59,75.75,61,75,62.375c-2.25,3.5-6.25,3.75-9.75,4.875l-1.625,0.5C63.25,68.5,63.25,69.5,63,70.375c-0.125,2.25,0,5,2.25,6   c2.125,0.5,3.875-0.625,5.375-2c0.5-0.625,1-1.25,1.5-2c0.125,0,0.375,0.125,0.5,0.25c0,0.5-0.375,0.875-0.625,1.25   c-2.125,2.875-5.25,6.375-9.375,5.375c-2.5-1-3.125-3.75-3.25-6.25c0-4.5,1.625-8.25,4-11.625   C65.875,58.125,69.375,54.875,73.75,56.25z M48.375,70.875l0.25-1.125l-2.5,8.875H41l6.125-22.75h6c0,0,8.125-1,7.25,7   C59.25,71.25,51.75,71.125,48.375,70.875z M94.5,102.875c-2-1.125-7.75-1.375-7.75-1.375c-9.125-4.75-25.375-1.5-25.375-1.5   c-1,0.5-2.75,0.375-2.75,0.375c-3.75,4.25-4.125,3.5-4.125,3.5c-0.625,0.125-0.75-1-0.75-1C55.875,99,58.125,97.5,58.125,97.5   C58.875,97.375,61,97.875,61,97.875c1.375-1.75,2.875-2.125,2.875-2.125c0.25-2.25,0.75-3.25,0.75-3.25c-2.25-1-1.375-3-1.375-3   c1.375-2.625,3.5-0.5,3.5-0.5c8-1.75,17.875,1,17.875,1c0.5-1.5,1.5-2.125,1.5-2.125c-4.75-6-3.875-6.625-3.875-6.625   c2.75-0.5,5.875,5.25,5.875,5.25c3.625,0.25,5.25,4.375,5.25,4.375c0.375,2.125-3.5,1.625-3.5,1.625   c0.375,4.125-2.375,5.75-2.375,5.75c7.875,1.75,8.625,2.875,8.625,2.875C96.875,103.75,94.375,103,94.5,102.875z M99.125,78.5   v-3.75H94l-1.75,3.75h-5.625L97.5,55.875h6.625V78.5H99.125z"/>
	<path fill="#65BEDB" d="M67.875,65.25c4.625-1.5,7.375-7.25,3.75-8.625c-3.75-1.25-7.25,9.5-7.25,9.5S63.125,66.75,67.875,65.25z"/>
	<path fill="#65BEDB" d="M51.125,60.5l-0.875,3.375l-0.625,2.5c0,0,2.375,0.625,4.125-1c1.125-1.125,1.625-4,0.875-4.625   C54,60.25,51.5,60.5,51.125,60.5z"/>
</g>
</svg>