<svg xmlns="http://www.w3.org/2000/svg" width="864.851" height="249.89" viewBox="0 0 864.851 249.89">
  <g id="c" transform="translate(-47.43 -355.18)">
    <g id="Group_30526" data-name="Group 30526">
      <g id="d">
        <g id="Group_30524" data-name="Group 30524">
          <path id="Path_43891" data-name="Path 43891" d="M801.18,545.19c-.43-.14-.76-.22-.68-.16,0,0-54.65-7.68-57.66-20.53-3.2-13.75-20.83-10.47-21.05-21.45-.11-5.48,6.54-3.47,8.14-5.86,1.98-3.01-.73-4.29-9.03-9.28-21.89-13.15-18.71-33.87-15.16-37.1,4.61-4.18,10.09,4.56,12.94.62,2.85-3.96-13.34-26.25,20.83-51.58,0,0,4.04,13.07,16.52,17.55,13.21,4.75-8.22,22.67-3.55,34.69,2.63,6.75,7.97-1.71,12.86-6.45,4.2-4.07,9.98-14.46,17.28-12.2,6.4,2.01,4.18,10.39,5.61,14.84,1.87,5.8,6.48,3.99,8.98,9.03,2.41,4.85.71,6.89-6.62,13.18-13.34,11.55-6.97,24.38-3.2,21.86,5.61-3.77,4.56-7.92,13.7-8.43,6.86-.38,9.22,6.37,7.38,11.23s-2.93,6.43-1.82,9.93c2.82,8.95,1.17,6.21-3.5,14.35-3.99,6.94-3.82,13.48.81,24.57,16.82,8.54,14.78-7.73,29.78-4.31,33.55,7.65,15.32-3.28,21.02-8.84,5.18-5.07,8.22-.6,15.21-3.39,10.36-6.48,11.34-8.71,24.98,1.98a113.868,113.868,0,0,0,4.04-113.77c-4.75-4.42-8.68-7.19-7.54-.05.65,3.93,17.95,36.21-8.03,61.16a6.222,6.222,0,0,0-.05-.68c-.3-2.96-2.06-14.54-12.23-16.06-12.37-1.84-2.09-20.77-8.11-29.62-8.49-12.42-10.69,4.64-13.67,8.38-3.04,3.82-15.65,10.93-15.65,1.14,0-11.17-7.84-12.56-10.85-16.19-2.9-3.5-1.71-5.34,3.69-11.39,9.9-11.04,2.77-17.98-.11-15.43-4.34,3.8-3.31,4.61-11.26,6.32-5.94,1.3-5.67-8.87-4.96-13.02,4.1-23.6-11.58-32.55-34.06-33.01a114.023,114.023,0,1,0,65.9,217.13c-15.89,3.69-24.84-2.36-25.71-4.66-1.71-4.56,11.63-1.44-.95-7.92-7.59-3.91-10.85-11.66-11.66-15.05l-2.6-1.44.05-.05Z" fill="#fff"/>
          <path id="Path_43892" data-name="Path 43892" d="M807.6,548.66s-74.94-29.1-77.54-102.84C730.06,445.82,737.3,501.88,807.6,548.66Z" fill="#fff"/>
          <path id="Path_43893" data-name="Path 43893" d="M807.03,355.18a89.247,89.247,0,0,1,35.31,13.26c6.35,5.94,15.3,20.5,1.46,50.34,0,0,17.74-23.95,13.26-38.48,14.89,14.92,27.39,38.59,27.85,76.1,0,0,16.54-93.95-77.92-101.22h.03Z" fill="#fff"/>
          <path id="Path_43894" data-name="Path 43894" d="M881.97,541.55c-5.72,3.47-15,11.63-30.16,6.86a25.934,25.934,0,0,0,15.49,4.31c-12.18,6.29-25.36,7.78-46.24,2.55,0,0,42.28,24.92,71.82-22.78,0,0-7.32,6.89-10.88,9.03Z" fill="#fff"/>
        </g>
        <g id="Group_30525" data-name="Group 30525">
          <path id="Path_43895" data-name="Path 43895" d="M83.77,440.85c0,8.22,1.57,10.5,7.4,10.5v2.03H66.95v-2.03c4.88,0,7.76-1.44,7.76-10.85V388.4h-9.9c-9.17,0-13.34,2.6-13.94,9.76H48.84V382.54h2.03a9.023,9.023,0,0,0,3.72,1.9,28.489,28.489,0,0,0,6.56.6H96.92c5.97,0,8.71-.71,10.85-2.5h2.14v15.62h-1.3c-1.33-5.72-3.58-9.76-14.43-9.76H83.79v52.45h-.03Z" fill="#fff"/>
          <path id="Path_43896" data-name="Path 43896" d="M157.49,443.24c0,6.45,1.19,8.11,6.78,8.11v2.03H142.33v-2.03c5.75,0,7.05-1.33,7.05-6.81V423.68c0-5.61-3.34-9.19-8.46-9.19-4.77,0-8.24,2.25-12.29,8v23.13c0,4.39,1.79,5.72,7.02,5.72v2.03H113v-2.03c6.32-.14,7.51-1.33,7.51-8.11V388.26c0-5.48-1.57-6.32-7.51-6.32v-2.03l13.59-1.44h2.03v39.95c5.37-6.21,9.3-8.46,14.78-8.46,7.05,0,14.08,4.64,14.08,14.65v18.63Z" fill="#fff"/>
          <path id="Path_43897" data-name="Path 43897" d="M177.23,427.62c-.22,18.96,11.09,23.73,16.82,23.73s8.81-2.03,14.92-8.81v3.12c-5.13,6.56-10.03,9.03-17.41,9.03-13.24,0-22.78-9.17-22.78-21.94S178.08,410,190.02,410c9.79,0,18.85,7.87,18.25,17.66H177.24v-.03Zm23.03-2.04c.35-9.3-5.97-13.13-11.34-13.13-7.02,0-11.2,5.23-11.69,13.13Z" fill="#fff"/>
          <path id="Path_43898" data-name="Path 43898" d="M317.91,479.01h-3.23l-76.35-94.14h-.38v75.99c0,10.96,4.34,14.94,14.18,14.94v3.23h-32.9V475.8c9.06,0,13.4-2.82,13.4-18.52V393.95c0-12.1-3.23-18.9-16.06-20.04v-3.2h27.77L312.03,455h.38V391.67c0-14.18-3.77-17.76-13.24-17.76v-3.2h32.71v3.2c-10.58,0-13.99,4.34-13.99,17V479Z" fill="#fff"/>
          <path id="Path_43899" data-name="Path 43899" d="M417.85,411.92h23.24v4.91H417.85v43.1c0,9.25,4.72,13.99,12.1,13.99,4.91,0,8.52-1.9,12.48-6.43l2.09,2.47c-5.86,7.38-12.67,11.15-20.23,11.15-11.34,0-19.28-7.95-19.28-19.47v-44.8H392.34v-3.2c9.06-4.53,16.63-12.67,22.29-24.19h3.2v22.51l.03-.03Z" fill="#fff"/>
          <path id="Path_43900" data-name="Path 43900" d="M517.3,466.35c0,7.38,2.47,9.47,11.53,9.47v3.23l-24.38,1.33V468.09h-.38c-6.62,8.71-14.37,13.05-23.43,13.05-13.24,0-21.91-10.01-21.91-22.48V424.43c0-6.43-2.28-8.9-11.91-8.9V412.3l21.56-2.09h3.23v47.81c0,9.47,6.05,15.13,15.13,15.13,6.43,0,12.29-3.58,17.76-10.96v-36.1c0-9.28-1.52-10.39-13.05-10.58v-3.23l22.67-2.09h3.23v56.14h-.05Z" fill="#fff"/>
          <path id="Path_43901" data-name="Path 43901" d="M558.85,466.35c0,7.38,2.25,9.47,11.15,9.47v3.23H534.66v-3.23c10.22,0,11.34-2.66,11.34-12.86V426.48c0-9.82-2.47-10.96-13.8-10.96v-3.23l23.43-2.09h3.23v14.56c12.48-10.77,18.33-14.56,22.86-14.56,3.77,0,8.9,2.28,12.29,5.29l-5.1,11.91c-5.48-3.01-11.34-5.86-15.87-5.86s-8.14,2.28-14.18,8.14v36.67h0Z" fill="#fff"/>
          <path id="Path_43902" data-name="Path 43902" d="M608.48,438.2c-.38,30.05,17.57,37.62,26.66,37.62s13.97-3.23,23.62-13.99v4.91c-8.14,10.39-15.89,14.35-27.61,14.35-20.99,0-36.1-14.54-36.1-34.77s14.75-36.1,33.66-36.1c15.49,0,29.86,12.48,28.91,27.99H608.48Zm36.48-3.23c.57-14.75-9.47-20.8-17.95-20.8-11.15,0-17.76,8.33-18.52,20.8h36.48Z" fill="#fff"/>
          <path id="Path_43903" data-name="Path 43903" d="M116.21,505.59c-3.96-15.27-12.31-21.94-26.31-21.94-19.53,0-30.02,15.7-30.02,36.53,0,24.33,12.61,40.33,30.86,40.33,12.75,0,22.24-5.94,28.31-17.82l2.12,1.98c-5.37,12.88-18.25,20.94-33.82,20.94-19.53,0-39.92-13.32-39.92-40.33s17.68-44.72,41.9-44.72c10.2,0,17.85,3.39,22.65,3.39a4.488,4.488,0,0,0,4.39-2.55h2.28v24.19h-2.44Z" fill="#fff"/>
          <path id="Path_43904" data-name="Path 43904" d="M153.66,565.15c-15.7,0-27.45-11.31-27.45-26.47s11.74-26.61,27.45-26.61,27.45,11.34,27.45,26.61S169.37,565.15,153.66,565.15Zm0-50.23c-10.6,0-16.98,9.33-16.98,23.76,0,12.88,5.37,23.65,16.98,23.65s16.98-11.47,16.98-23.65S165.27,514.92,153.66,514.92Z" fill="#fff"/>
          <path id="Path_43905" data-name="Path 43905" d="M239.26,552.7c0,6.51,1.41,8.49,8.49,8.49v2.41H221.01v-2.41c6.78,0,8.62-1.55,8.62-6.21V528.81c0-8.05-5.8-11.45-11.17-11.45-4.96,0-9.33,3.12-14.29,9.76v24.49c0,7.65.98,9.63,8.49,9.63v2.41H186.19v-2.41c6.64,0,8.35-.57,8.35-9.63V523.46c0-6.08-1.55-7.35-8.35-7.35V513.7l15.57-1.57h2.41v10.03c5.94-6.78,11.74-10.03,18.12-10.03,8.35,0,16.98,5.94,16.98,17.98v22.6Z" fill="#fff"/>
          <path id="Path_43906" data-name="Path 43906" d="M280.7,527.51c-.98-8.35-6.51-12.58-12.45-12.58-4.96,0-8.35,2.68-8.35,6.78,0,12.75,26.31,9.33,26.31,28.02,0,8.35-7.21,15.43-15.84,15.43-5.53,0-10.33-3.69-12.75-3.69a3.415,3.415,0,0,0-3.25,3.39h-2.41V547.75h2.41c2.14,10.47,9.93,14.59,16.14,14.59a8.543,8.543,0,0,0,8.79-8.65c0-13.99-26.61-10.2-26.61-27.18,0-7.78,6.94-14.43,15.27-14.43,5.23,0,6.81,2.41,10.2,2.41,1.27,0,2.25-.71,2.96-2.41h2.41v15.43h-2.82Z" fill="#fff"/>
          <path id="Path_43907" data-name="Path 43907" d="M301.58,533.04c-.27,22.51,13.15,28.15,19.96,28.15s10.47-2.41,17.68-10.47v3.66c-6.1,7.78-11.88,10.77-20.67,10.77-15.7,0-27.04-10.9-27.04-26.04s11.04-27.01,25.2-27.01c11.61,0,22.37,9.36,21.67,20.94h-36.8Zm27.31-2.42c.41-11.04-7.08-15.54-13.45-15.54-8.35,0-13.29,6.21-13.89,15.54h27.34Z" fill="#fff"/>
          <path id="Path_43908" data-name="Path 43908" d="M363.33,554.11c0,5.51,1.68,7.08,8.35,7.08v2.41H345.21v-2.41c7.65,0,8.49-1.98,8.49-9.63V524.25c0-7.35-1.84-8.19-10.33-8.19v-2.41l17.55-1.57h2.41v10.9c9.33-8.05,13.72-10.9,17.11-10.9,2.82,0,6.64,1.71,9.19,3.96l-3.82,8.9c-4.1-2.25-8.49-4.37-11.88-4.37s-6.08,1.68-10.6,6.08v27.47Z" fill="#fff"/>
          <path id="Path_43909" data-name="Path 43909" d="M423.03,551.43l9.76-25.33c2.41-6.51,2.41-9.47-4.96-10.03v-2.41h18.39v2.41c-5.8.57-7.21,1.84-9.63,7.21l-16.14,41.47h-2.39l-16-39.35c-3.39-8.19-4.66-9.06-10.6-9.33v-2.41h24.19v2.41c-4.83.43-6.08,3.12-3.82,8.62L423,551.43Z" fill="#fff"/>
          <path id="Path_43910" data-name="Path 43910" d="M546.13,552.7c0,6.51,1.41,8.49,8.49,8.49v2.41H527.88v-2.41c6.81,0,8.62-1.55,8.62-6.21V528.81c0-8.05-5.8-11.45-11.17-11.45-4.96,0-9.33,3.12-14.29,9.76v24.49c0,7.65,1,9.63,8.49,9.63v2.41H493.06v-2.41c6.64,0,8.35-.57,8.35-9.63V523.46c0-6.08-1.57-7.35-8.35-7.35V513.7l15.57-1.57h2.41v10.03c5.94-6.78,11.74-10.03,18.12-10.03,8.35,0,16.98,5.94,16.98,17.98v22.6Z" fill="#fff"/>
          <path id="Path_43911" data-name="Path 43911" d="M601.84,529.78h-2.41c-2.14-9.03-8.49-14.86-16.84-14.86-9.9,0-16.84,8.49-16.84,20.8,0,13.72,8.62,25.2,18.82,25.2,6.1,0,13.45-3.25,18.69-10.47v3.69a26.242,26.242,0,0,1-22.08,11.04c-14.86,0-25.2-10.33-25.2-25.33s11.61-27.74,25.9-27.74c7.51,0,11.61,2.82,14.16,2.82,1.27,0,2.55-.98,3.39-2.82h2.41v17.68Z" fill="#fff"/>
          <path id="Path_43912" data-name="Path 43912" d="M637.77,552l8.79-26.47c1.98-5.94,1.55-9.19-3.96-9.47v-2.41h17.68v2.41c-5.37,0-8.62,3.39-11.47,11.74l-19.96,59.02c-3.96,11.61-10.47,18.25-16.57,18.25-2.12,0-3.66-.57-6.21-2.12l3.25-8.62a10.838,10.838,0,0,0,4.8,1.14c6.08,0,9.63-3.53,12.75-12.31l6.51-18.12L615.4,523.57c-2.55-5.8-4.39-7.35-10.2-7.49v-2.41h24.06v2.41c-3.82.57-5.37,3.39-3.53,7.65l12.01,28.29.03-.03Z" fill="#fff"/>
          <path id="Path_43913" data-name="Path 43913" d="M383.13,464.45V434.81c0-18.14-13.02-24.57-24.16-24.57-12.1,0-21.91,8.14-24.76,20.61l3.42.95c2.85-9.66,10.2-14.37,17.76-14.37,9.44,0,14.94,6.81,14.94,16.25v4.91c-10.96,6.43-37.05,5.67-37.05,24.76,0,9.82,8.71,17.76,19.09,17.76,7,0,12.12-2.77,18.77-9.95h.03v8.03h23.49v-3.25c-9.57,0-11.5-2.68-11.5-11.47h-.03Zm-12.83.98c-2.66,5.67-9.82,8.52-13.8,8.52-5.48,0-10.22-5.48-10.22-12.29,0-13.61,11.34-13.4,24-18.9v22.67h.03Z" fill="#fff"/>
          <path id="Path_43914" data-name="Path 43914" d="M482.72,552.62v-22c0-13.45-9.66-18.23-17.93-18.23-8.98,0-16.25,6.02-18.36,15.27l2.52.71c2.09-7.16,7.57-10.66,13.15-10.66,7,0,11.07,5.04,11.07,12.07v3.63c-8.14,4.77-27.47,4.2-27.47,18.36,0,7.3,6.45,13.15,14.16,13.15,5.18,0,9-2.06,13.91-7.38h0v5.94h17.41v-2.41c-7.08,0-8.52-1.98-8.52-8.52l.05.05Zm-9.49.73c-1.95,4.2-7.3,6.32-10.22,6.32-4.07,0-7.57-4.07-7.57-9.11,0-10.09,8.41-9.95,17.79-14.02v16.82Z" fill="#fff"/>
        </g>
      </g>
      <path id="Path_43915" data-name="Path 43915" d="M901.01,377.88c-6.54,0-11.04-4.53-11.04-11.34s4.58-11.36,11.09-11.36,11.04,4.58,11.04,11.39-4.64,11.34-11.09,11.34v-.03Zm.05-21.4c-5.32,0-9.52,3.61-9.52,10.06s4.26,10.01,9.47,10.01,9.52-3.61,9.52-10.01S906.27,356.48,901.06,356.48Zm2.63,15.92-3.17-4.77h-.92v4.77h-2.79V359.87h4.29c2.87,0,4.64,1.36,4.64,3.8a3.484,3.484,0,0,1-2.39,3.47l3.61,5.26h-3.25Zm-2.79-10.31h-1.33v3.55h1.27c1.33,0,2.09-.6,2.09-1.82,0-1.11-.73-1.76-2.06-1.76l.03.03Z" fill="#fff"/>
    </g>
  </g>
</svg>
