<svg xmlns="http://www.w3.org/2000/svg" width="273.154" height="169.6" viewBox="0 0 273.154 169.6">
  <g id="Group_29890" data-name="Group 29890" transform="translate(-966 -199)">
    <g id="Group_29882" data-name="Group 29882" transform="translate(966 199)">
      <g id="Group_29878" data-name="Group 29878">
        <path id="Path_35444" data-name="Path 35444" d="M6.814,0H266.341a6.814,6.814,0,0,1,6.814,6.814V162.787a6.814,6.814,0,0,1-6.814,6.814H6.814A6.814,6.814,0,0,1,0,162.787V6.814A6.814,6.814,0,0,1,6.814,0Z"/>
        <g id="g4158" transform="translate(201.09 140.888)">
          <path id="polygon9" d="M437.778,127.243h-4.271l2.671-16.516h4.27Z" transform="translate(-414.933 -110.427)" fill="#d5d5d5"/>
          <path id="path11" d="M577.989,105.751a10.524,10.524,0,0,0-3.83-.7c-4.217,0-7.187,2.249-7.205,5.464-.035,2.372,2.126,3.69,3.743,4.481,1.652.808,2.214,1.336,2.214,2.056-.017,1.106-1.335,1.616-2.565,1.616a8.5,8.5,0,0,1-4.007-.879l-.562-.264-.6,3.707a13,13,0,0,0,4.763.879c4.481,0,7.4-2.214,7.433-5.64.017-1.88-1.124-3.321-3.585-4.5-1.494-.756-2.408-1.265-2.408-2.038.017-.7.774-1.423,2.46-1.423a7.256,7.256,0,0,1,3.181.632l.386.175.581-3.566Z" transform="translate(-539.664 -105.048)" fill="#d5d5d5"/>
          <path id="path13" d="M797.129,121.392c.352-.949,1.7-4.621,1.7-4.621-.018.035.351-.966.562-1.581l.3,1.423s.809,3.953.984,4.779Zm5.271-10.665h-3.3a2.107,2.107,0,0,0-2.232,1.37l-6.343,15.145H795l.9-2.477h5.483c.123.58.51,2.477.51,2.477h3.954L802.4,110.727Z" transform="translate(-753.128 -110.427)" fill="#d5d5d5"/>
          <path id="path15" d="M176.379,110.727,172.2,121.989l-.457-2.284a12.641,12.641,0,0,0-5.9-6.923l3.831,14.443h4.516l6.713-16.5h-4.516Z" transform="translate(-161.372 -110.427)" fill="#d5d5d5"/>
          <path id="path17" d="M88.107,110.727H81.236l-.07.334c5.36,1.371,8.909,4.674,10.368,8.645l-1.494-7.591a1.767,1.767,0,0,0-1.933-1.388Z" transform="translate(-81.166 -110.427)" fill="#efefef"/>
        </g>
        <text id="_5544" data-name="5544" transform="translate(51.369 153.323)" fill="#fff" font-size="12" font-family="Axiforma-Medium, Axiforma" font-weight="500"><tspan x="0" y="0">5544</tspan></text>
        <circle id="Ellipse_7916" data-name="Ellipse 7916" cx="2.446" cy="2.446" r="2.446" transform="translate(18.754 146.769)" fill="#fff"/>
        <circle id="Ellipse_7917" data-name="Ellipse 7917" cx="2.446" cy="2.446" r="2.446" transform="translate(26.908 146.769)" fill="#fff"/>
        <circle id="Ellipse_7918" data-name="Ellipse 7918" cx="2.446" cy="2.446" r="2.446" transform="translate(35.062 146.769)" fill="#fff"/>
        <circle id="Ellipse_7919" data-name="Ellipse 7919" cx="2.446" cy="2.446" r="2.446" transform="translate(43.215 146.769)" fill="#fff"/>
        <path id="Vector" d="M5.288,15.284c-.047,0-.094.016-.156.016a1.176,1.176,0,0,1-1.156-1.015,3.324,3.324,0,0,0-2.952-2.952A1.173,1.173,0,1,1,1.321,9,5.706,5.706,0,0,1,6.3,13.987,1.17,1.17,0,0,1,5.288,15.284Zm4.764-.8c-.047,0-.094.016-.156.016a1.176,1.176,0,0,1-1.156-1.015A7.823,7.823,0,0,0,1.82,6.568a1.173,1.173,0,1,1,.3-2.327,10.115,10.115,0,0,1,8.949,8.949A1.179,1.179,0,0,1,10.051,14.487Zm4.217-1.359c-.047,0-.094.016-.156.016a1.176,1.176,0,0,1-1.156-1.015A11.033,11.033,0,0,0,3.164,2.336,1.173,1.173,0,1,1,3.46.009,13.355,13.355,0,0,1,15.284,11.832,1.162,1.162,0,0,1,14.268,13.128Z" transform="translate(247.945 14.623) rotate(45)" fill="#292d32"/>
        <g id="Group_29900" data-name="Group 29900" transform="translate(-120.854 -27.512)">
          <path id="Path_35464" data-name="Path 35464" d="M2746.076-405.813c0-2.682.007-5.365-.008-8.047,0-.359.1-.48.459-.467.716.024,1.433.006,2.15.008.488,0,.5.011.5.512,0,1.211.013,2.422-.009,3.633-.006.325.1.392.4.389.964-.012,1.929-.015,2.893.011a6.7,6.7,0,0,1,2.249.446,3.243,3.243,0,0,1,1.993,2.56,7.174,7.174,0,0,1,.13,1.589c-.005,2.487-.009,4.974.005,7.461,0,.36-.1.464-.46.45-.729-.029-1.46-.031-2.189,0-.41.018-.5-.13-.5-.515.017-2.37.009-4.74.007-7.109a3.431,3.431,0,0,0-.095-.927,1.309,1.309,0,0,0-1.264-1.126c-.962-.1-1.927-.029-2.891-.044-.271,0-.274.172-.273.368,0,.742,0,1.484,0,2.227,0,2.2-.009,4.4.007,6.6,0,.385-.1.537-.5.522-.729-.026-1.46-.02-2.189,0-.323.009-.422-.091-.42-.418C2746.081-400.4,2746.076-403.105,2746.076-405.813Z" transform="translate(-2556.133 456.463)" fill="#faf9fb"/>
          <path id="Path_35465" data-name="Path 35465" d="M1458.8-19.213a6.866,6.866,0,0,1-1.317,4.419,5.8,5.8,0,0,1-4.409,2.169,6.667,6.667,0,0,1-2.39-.192,5.889,5.889,0,0,1-4.343-5.569,7.5,7.5,0,0,1,.762-4.12,5.241,5.241,0,0,1,3.263-2.733,6.9,6.9,0,0,1,5.989.79,5.484,5.484,0,0,1,2.231,3.484A10.67,10.67,0,0,1,1458.8-19.213Zm-9.193-.123a5.768,5.768,0,0,0,.3,2.128,2.753,2.753,0,0,0,2.482,1.89,2.769,2.769,0,0,0,2.776-1.691,5.033,5.033,0,0,0,.368-2.174,4.1,4.1,0,0,0-.848-2.691,2.841,2.841,0,0,0-4.037-.216A3.853,3.853,0,0,0,1449.606-19.336Z" transform="translate(-1270.742 72.005)" fill="#faf9fb"/>
          <path id="Path_35466" data-name="Path 35466" d="M-1802.99-4.317c1.708,0,3.416.007,5.124-.006.305,0,.4.082.391.394-.026.676-.016,1.354-.008,2.032a.732.732,0,0,1-.224.557q-2.418,2.468-4.829,4.943c-.5.512-1,1.021-1.5,1.536-.077.079-.224.145-.166.279s.208.077.318.077c1.969,0,3.937.016,5.906,0,.4,0,.525.108.5.506-.032.61-.016,1.224,0,1.836.005.267-.089.367-.364.367q-5.182-.009-10.365,0c-.223,0-.3-.077-.3-.292.006-.742.008-1.485,0-2.227a.619.619,0,0,1,.251-.459L-1803.833.7l1.91-1.952c.077-.08.212-.154.146-.287-.053-.107-.188-.063-.286-.063-2.008,0-4.016-.007-6.023.007-.311,0-.439-.057-.426-.4.026-.663.023-1.329,0-1.992-.009-.285.094-.342.357-.34C-1806.432-4.312-1804.711-4.317-1802.99-4.317Z" transform="translate(1948.121 50.988)" fill="#faf9fb"/>
          <path id="Path_35467" data-name="Path 35467" d="M-659.251,3.3c-1.03,0-2.06.01-3.09-.006-.331,0-.424.088-.379.429.2,1.527.821,1.778,2.1,1.856,1.455.089,2.919.043,4.378.025.387,0,.535.085.511.494-.034.584-.017,1.171-.005,1.758.005.273-.073.407-.375.4a51.5,51.5,0,0,1-5.352-.1,4.667,4.667,0,0,1-4.395-3.619,8.633,8.633,0,0,1,.219-5.662,4.612,4.612,0,0,1,3.359-2.876,9.185,9.185,0,0,1,2.28-.259c1.291,0,2.581.01,3.872-.005.314,0,.406.1.4.4-.021.586-.025,1.173,0,1.758.015.357-.1.478-.465.473-1.251-.02-2.5-.017-3.754-.006a5.344,5.344,0,0,0-1.467.185,1.82,1.82,0,0,0-1.315,1.9c.011.142.06.222.2.229.117.005.234.007.352.007,1.982,0,3.963.011,5.945-.005.4,0,.527.118.5.514a12.13,12.13,0,0,0,0,1.64c.032.424-.137.492-.51.484-1-.023-2.007-.008-3.011-.008Z" transform="translate(818.455 50.935)" fill="#faf9fb"/>
          <path id="Path_35468" data-name="Path 35468" d="M459.143-386.449q0-3.983,0-7.966c0-.557.011-.566.568-.566q1.094,0,2.189,0c.505,0,.518.016.518.535q0,7.419,0,14.839c0,.377,0,.755,0,1.132,0,.528,0,.531-.513.533-.769,0-1.538-.018-2.306.007-.371.012-.462-.129-.461-.473.009-2.551,0-5.1,0-7.654v-.391Z" transform="translate(-294.474 437.33)" fill="#f6e85a"/>
          <path id="Path_35469" data-name="Path 35469" d="M987.483,9.3q0-3.965,0-7.93c0-.587.01-.594.587-.6.717,0,1.434.017,2.15-.009.4-.014.515.144.514.526-.011,2.865,0,5.729,0,8.594q0,3.672,0,7.344c0,.555-.022.575-.568.576-.73,0-1.46-.016-2.19,0-.378.01-.493-.133-.492-.5.012-2.669.006-5.339.006-8.008Z" transform="translate(-816.975 45.959)" fill="#f6e85a"/>
        </g>
      </g>
    </g>
  </g>
</svg>
