<svg xmlns="http://www.w3.org/2000/svg" width="418.702" height="410.843" viewBox="0 0 418.702 410.843">
  <g id="Group_30094" data-name="Group 30094" transform="translate(-863.726 -170.723)">
    <path id="Path_1742" data-name="Path 1742" d="M209.351,0C324.972,0,418.7,91.725,418.7,204.874s-93.73,25.112-209.351,25.112S0,318.022,0,204.874,93.73,0,209.351,0Z" transform="translate(1282.428 581.565) rotate(180)" fill="#8000ff"/>
    <path id="Path_1743" data-name="Path 1743" d="M209.351,0C324.972,0,418.7,91.725,418.7,204.874s-93.73,25.112-209.351,25.112S0,318.022,0,204.874,93.73,0,209.351,0Z" transform="translate(863.727 170.723)" fill="#f6e85a"/>
    <g id="Group_29891" data-name="Group 29891" transform="translate(1048.034 243.05)">
      <path id="Path_35456" data-name="Path 35456" d="M459.16-347.991q0-21.936,0-43.872c0-3.07.061-3.116,3.129-3.119q6.025,0,12.055.016c2.784.015,2.855.089,2.855,2.947q0,40.861,0,81.722c0,2.079.011,4.158,0,6.237-.014,2.905-.02,2.925-2.826,2.935-4.234.015-8.471-.1-12.7.04-2.043.068-2.545-.708-2.538-2.6.051-14.05.02-28.1.014-42.151v-2.151Z" transform="translate(-459.139 394.981)" fill="#8024ff"/>
      <path id="Path_35457" data-name="Path 35457" d="M987.505,47.767q0-21.836,0-43.673c0-3.235.055-3.27,3.231-3.28,3.948-.012,7.9.091,11.843-.047,2.212-.077,2.835.791,2.828,2.9-.061,15.776-.026,31.553-.026,47.33q0,20.223-.014,40.446c0,3.056-.122,3.165-3.127,3.173-4.02.01-8.042-.088-12.059.021-2.079.056-2.717-.73-2.707-2.763.064-14.7.034-29.4.034-44.1Z" transform="translate(-955.325 23.321)" fill="#8024ff"/>
    </g>
    <g id="Group_29892" data-name="Group 29892" transform="translate(966.697 450.258)">
      <path id="Path_35458" data-name="Path 35458" d="M2746.1-384.675c0-9.341.023-18.682-.027-28.024-.007-1.249.335-1.67,1.6-1.627,2.493.085,4.992.021,7.489.028,1.7.005,1.726.038,1.726,1.784,0,4.217.045,8.435-.031,12.651-.02,1.131.356,1.366,1.389,1.354,3.358-.041,6.719-.052,10.075.038a23.326,23.326,0,0,1,7.831,1.553c4.087,1.587,6.033,4.84,6.941,8.915a24.99,24.99,0,0,1,.453,5.534c-.018,8.661-.032,17.322.019,25.983.007,1.255-.349,1.616-1.6,1.567-2.54-.1-5.086-.107-7.623,0-1.427.062-1.74-.453-1.732-1.8.058-8.252.033-16.506.024-24.758a11.949,11.949,0,0,0-.33-3.229c-.68-2.469-1.854-3.648-4.4-3.921-3.348-.358-6.712-.1-10.069-.152-.942-.014-.954.6-.951,1.281.01,2.585,0,5.17,0,7.754,0,7.664-.031,15.327.025,22.99.01,1.342-.336,1.869-1.744,1.819-2.54-.091-5.084-.071-7.624,0-1.126.033-1.47-.317-1.464-1.457C2746.113-365.811,2746.095-375.243,2746.1-384.675Z" transform="translate(-2570.8 414.328)" fill="#faf9fb"/>
      <path id="Path_35459" data-name="Path 35459" d="M1489.788-3.421c0,5.926-1.186,11.013-4.585,15.389-3.879,4.994-9.236,7.111-15.354,7.555a23.22,23.22,0,0,1-8.325-.667C1451.893,15.99,1447,8.5,1446.4-.537a26.128,26.128,0,0,1,2.655-14.349,18.254,18.254,0,0,1,11.363-9.517c7.2-1.986,14.415-1.684,20.857,2.752a19.1,19.1,0,0,1,7.77,12.134A37.156,37.156,0,0,1,1489.788-3.421Zm-32.013-.428a20.091,20.091,0,0,0,1.036,7.412,9.586,9.586,0,0,0,8.644,6.58,9.642,9.642,0,0,0,9.667-5.888,17.525,17.525,0,0,0,1.281-7.57c-.045-3.4-.674-6.615-2.952-9.372a9.894,9.894,0,0,0-14.057-.752C1458.493-10.6,1457.909-7.022,1457.775-3.849Z" transform="translate(-1321.065 40.534)" fill="#faf9fb"/>
      <path id="Path_35460" data-name="Path 35460" d="M-1789.276-4.3c5.948,0,11.9.024,17.843-.02,1.064-.008,1.4.284,1.361,1.374-.091,2.355-.054,4.717-.029,7.075a2.549,2.549,0,0,1-.781,1.941q-8.422,8.593-16.816,17.213c-1.742,1.784-3.495,3.557-5.229,5.349-.266.274-.781.506-.577.971s.723.269,1.109.269c6.856.015,13.711.055,20.567,0,1.378-.012,1.828.376,1.755,1.762-.112,2.126-.056,4.263-.015,6.394.019.93-.311,1.278-1.266,1.277q-18.048-.031-36.1,0c-.777,0-1.039-.267-1.033-1.018.022-2.585.028-5.171-.013-7.756a2.154,2.154,0,0,1,.873-1.6q7.7-7.878,15.411-15.749,3.327-3.4,6.651-6.8c.269-.277.739-.537.508-1-.186-.371-.654-.219-1-.219-6.992-.006-13.984-.026-20.976.025-1.084.008-1.531-.2-1.484-1.385.09-2.309.081-4.627.011-6.938-.03-.993.329-1.191,1.244-1.186C-1801.263-4.284-1795.269-4.3-1789.276-4.3Z" transform="translate(1808.514 20.1)" fill="#faf9fb"/>
      <path id="Path_35461" data-name="Path 35461" d="M-641.935,22.078c-3.586,0-7.173.034-10.759-.019-1.152-.017-1.477.308-1.32,1.493.706,5.319,2.86,6.19,7.321,6.465,5.066.311,10.165.149,15.248.086,1.347-.017,1.864.294,1.78,1.719-.12,2.034-.058,4.079-.018,6.121.019.95-.255,1.416-1.306,1.4-6.214-.1-12.456.387-18.637-.356-7.016-.843-12.844-3.892-15.3-12.6a30.064,30.064,0,0,1,.764-19.719,16.062,16.062,0,0,1,11.7-10.016,31.988,31.988,0,0,1,7.941-.9c4.494.015,8.989.035,13.483-.018,1.093-.013,1.413.351,1.376,1.409-.073,2.04-.088,4.084,0,6.121.051,1.242-.346,1.665-1.618,1.645-4.357-.068-8.716-.058-13.075-.019a18.61,18.61,0,0,0-5.109.645,6.339,6.339,0,0,0-4.579,6.6c.038.494.208.773.71.8.407.018.817.023,1.225.023,6.9,0,13.8.038,20.7-.018,1.385-.012,1.835.412,1.752,1.789a42.2,42.2,0,0,0-.008,5.71c.111,1.477-.477,1.714-1.775,1.685-3.494-.08-6.991-.027-10.487-.027Z" transform="translate(710.182 20.048)" fill="#faf9fb"/>
      <path id="Path_35462" data-name="Path 35462" d="M459.152-365.267q0-13.871,0-27.742c0-1.941.038-1.971,1.978-1.972q3.81,0,7.623.01c1.76.009,1.805.056,1.806,1.863q0,25.838,0,51.676c0,1.315.007,2.629,0,3.944-.009,1.837-.013,1.85-1.787,1.856-2.677.01-5.356-.064-8.03.025-1.292.043-1.609-.448-1.605-1.647.032-8.884.012-17.769.009-26.654v-1.36Z" transform="translate(-371.876 395.726)" fill="#f6e85a"/>
      <path id="Path_35463" data-name="Path 35463" d="M987.5,30.486q0-13.808,0-27.616C987.5.824,987.533.8,989.541.8c2.5-.008,5,.058,7.489-.03,1.4-.049,1.793.5,1.788,1.831-.039,9.976-.016,19.952-.017,29.929q0,12.788-.009,25.576c0,1.933-.077,2-1.978,2.006-2.542.007-5.085-.056-7.625.013-1.315.035-1.718-.462-1.712-1.747.041-9.3.022-18.592.022-27.888Z" transform="translate(-879.884 15.211)" fill="#f6e85a"/>
    </g>
  </g>
</svg>
